<?xml version="1.0" standalone="no"?>
<!DOCTYPE svg PUBLIC "-//W3C//DTD SVG 1.1//EN" "http://www.w3.org/Graphics/SVG/1.1/DTD/svg11.dtd" >
<svg xmlns="http://www.w3.org/2000/svg" xmlns:xlink="http://www.w3.org/1999/xlink" version="1.1">
<metadata></metadata>
<defs>
<font id="tgromanbold_italic" horiz-adv-x="1024" >
<font-face units-per-em="2048" ascent="1628" descent="-420" />
<missing-glyph horiz-adv-x="512" />
<glyph unicode="&#xfb01;" horiz-adv-x="1139" d="M-385 -260q0 49 27.5 79.5t72.5 30.5t75 -28.5t30 -71.5q0 -17 -5.5 -28.5t-19.5 -26.5q-14 -17 -14 -27q0 -18 35 -18q34 0 58 13t44 50t39 104t43 175l188 842h-153l20 86h156q28 81 51 139.5t46 102.5t47.5 78t56.5 67q29 31 66.5 56t81 42t91 26t97.5 9 q64 0 117.5 -14.5t92 -40t59.5 -61.5t21 -79q0 -51 -32.5 -84t-83.5 -33q-26 0 -47.5 9t-37.5 24t-25 35.5t-9 44.5q0 20 7 37.5t24 36.5q14 20 14 31q0 32 -53 32q-57 0 -106.5 -20t-78.5 -55q-24 -30 -42.5 -59.5t-35.5 -71t-35.5 -101.5t-43.5 -151h241q23 0 80.5 3 t140.5 11l97 6l-150 -580l-2 -8q-20 -72 -31.5 -124.5t-11.5 -69.5q0 -13 10 -23t21 -10q25 0 62.5 37.5t97.5 124.5l45 -27q-53 -81 -96 -134.5t-82 -85.5t-78.5 -45t-85.5 -13q-70 0 -108 35t-38 100q0 13 1 24.5t4.5 28.5t10 43.5t17.5 69.5l141 551h-307l-192 -789 q-10 -40 -27 -85t-38.5 -89t-45 -84t-47.5 -70q-51 -65 -122 -101t-146 -36q-43 0 -79.5 12t-63 33.5t-41.5 50.5t-15 64z" />
<glyph unicode="&#xfb02;" horiz-adv-x="1139" d="M-381 -254q0 51 28 80t79 29q43 0 69.5 -25.5t26.5 -69.5q0 -15 -5 -28t-16 -29q-8 -9 -10 -15.5t-2 -11.5q0 -11 12.5 -17.5t32.5 -6.5q27 0 47.5 14.5t39.5 54t38.5 109t44.5 180.5l189 824h-152l20 86h152q26 84 47.5 143.5t43 104t45.5 78.5t54 67q27 30 62.5 54 t77 40.5t87 25.5t93.5 9q18 0 31 -0.5t30.5 -3t45 -7.5t73.5 -14l27 -6l203 25l-310 -1233q-6 -23 -7 -29t-1 -12q0 -14 10.5 -24.5t24.5 -10.5q28 0 65 36t91 118l41 -23q-53 -81 -94.5 -134t-79.5 -84.5t-76.5 -44.5t-83.5 -13q-66 0 -107 33t-41 85q0 17 2.5 36.5 t7.5 39.5l162 658h-301l-162 -668q-141 -586 -456 -586q-45 0 -81.5 12t-62.5 34t-40.5 52.5t-14.5 67.5zM453 920h309l61 243q-43 33 -43 80q0 20 6 36t25 42q7 12 10 17q2 3 2 5q0 16 -23 27.5t-50 11.5q-53 0 -99.5 -32.5t-83.5 -94.5q-16 -26 -30 -56t-27 -69.5t-27 -91 t-30 -118.5z" />
<glyph unicode="&#xfb04;" horiz-adv-x="1677" d="M-385 -260q0 49 27.5 79.5t72.5 30.5t75 -28.5t30 -71.5q0 -17 -5.5 -28.5t-19.5 -26.5q-14 -17 -14 -27q0 -18 35 -18q34 0 61 13t51 50t46 104t46 175l189 842h-154l21 86h155q28 81 51 139.5t46 102.5t47.5 78t56.5 67q59 63 148 98t188 35q84 0 147.5 -23t100.5 -63 q54 42 126 65t150 23q18 0 31 -0.5t31 -3t45.5 -7.5t73.5 -14l26 -6l203 25l-309 -1233q-7 -23 -8 -29t-1 -12q0 -14 10.5 -24.5t24.5 -10.5q28 0 65 36t91 118l41 -23q-52 -81 -94 -134t-80 -84.5t-76.5 -44.5t-83.5 -13q-66 0 -106.5 33t-40.5 85q0 17 2.5 36.5t7.5 39.5 l162 658h-301l-162 -668q-35 -147 -75 -256.5t-89.5 -183t-111 -110t-140.5 -36.5q-45 0 -81.5 12t-62.5 34t-40.5 52.5t-14.5 67.5q0 51 28 80t79 29q43 0 69.5 -25.5t26.5 -69.5q0 -15 -4.5 -28t-15.5 -29q-8 -9 -10.5 -15.5t-2.5 -11.5q0 -11 12.5 -17.5t32.5 -6.5 q27 0 41 14.5t25.5 54t24.5 109t38 180.5l189 824h-309l-193 -789q-14 -58 -33 -105t-41.5 -86.5t-47 -73t-48.5 -63.5q-25 -32 -57.5 -57.5t-68.5 -43t-74.5 -27t-75.5 -9.5q-43 0 -79.5 12t-63 33.5t-41.5 50.5t-15 64zM473 920h309q25 77 44.5 133.5t39.5 99.5 q-20 16 -31.5 38t-11.5 50q0 20 7 37.5t24 36.5q14 20 14 31q0 32 -53 32q-57 0 -106 -20t-78 -55q-25 -30 -43 -59.5t-35 -71t-36 -101.5t-44 -151zM1022 920h309l62 243q-23 17 -33 36t-10 44q0 20 6 36t24 42q4 6 6.5 10t4.5 7t2 5q0 16 -23 27.5t-51 11.5 q-53 0 -99 -32.5t-83 -94.5q-16 -26 -30 -56t-27.5 -69.5t-27.5 -91t-30 -118.5z" />
<glyph horiz-adv-x="0" />
<glyph horiz-adv-x="682" />
<glyph unicode=" "  horiz-adv-x="512" />
<glyph unicode="&#x09;" horiz-adv-x="512" />
<glyph unicode="&#xa0;" horiz-adv-x="512" />
<glyph unicode="!" horiz-adv-x="797" d="M137 119q0 32 11.5 60t32 48.5t47.5 32.5t59 12q29 0 56 -12.5t47.5 -33.5t33 -48.5t12.5 -58.5t-12 -57.5t-32 -46t-48 -31t-59 -11.5q-32 0 -59.5 11t-47 30.5t-30.5 46t-11 58.5zM342 434q46 243 73.5 422t35.5 303q1 33 3 55t4.5 38t6.5 28.5t10 26.5 q22 45 57.5 69.5t83.5 24.5q31 0 57.5 -11t45 -30.5t29 -47t10.5 -61.5q0 -21 -2.5 -38.5t-9.5 -37.5t-19.5 -45t-32.5 -61q-44 -86 -83 -167t-75 -160.5t-69.5 -159.5t-65.5 -164z" />
<glyph unicode="&#x22;" horiz-adv-x="1137" d="M279 815l32 438q2 29 16.5 56t37 48t50.5 33.5t58 12.5q19 0 36 -8t29.5 -21.5t19.5 -31.5t7 -39q0 -11 -0.5 -18t-3.5 -16.5t-9 -23.5t-17 -39l-5 -10l-168 -381h-83zM811 815l33 438q2 29 16.5 56t37 48t50.5 33.5t58 12.5q19 0 36 -8t29.5 -21.5t19.5 -31.5t7 -39 q0 -11 -0.5 -18t-3.5 -16.5t-9 -23.5t-18 -39l-4 -10l-168 -381h-84z" />
<glyph unicode="#" d="M-68 430l41 150h217l111 274h-197l41 150h215l179 430h157l-176 -430h232l178 430h157l-176 -430h181l-41 -150h-199l-111 -274h179l-41 -150h-199l-174 -430h-160l174 430h-231l-174 -430h-160l174 430h-197zM350 580h232l110 274h-231z" />
<glyph unicode="$" d="M-41 176l86 291l45 -12q2 -83 12 -142t31.5 -101t57.5 -71.5t90 -54.5l151 535q-81 62 -133.5 109t-83 89.5t-42 85t-11.5 94.5q0 79 30.5 147t84 118.5t127 79t159.5 28.5q13 0 28.5 -0.5t49.5 -3.5l37 133h102l-41 -147q25 -5 55.5 -14.5t62 -22.5t63.5 -29t61 -35 l37 -28l-86 -273l-43 11q2 17 2 34.5v26.5q0 53 -9.5 94t-30.5 71.5t-53.5 53t-78.5 37.5l-121 -440q86 -75 141.5 -130.5t88 -103.5t45 -94t12.5 -100q0 -85 -36 -160t-98.5 -131t-145 -88.5t-175.5 -32.5h-18h-47l-58 -205h-106l59 219q-48 12 -86 25t-72 31.5t-68 44 t-75 61.5zM365 1110q0 -31 7 -57t23.5 -51.5t44 -51.5t68.5 -57l113 407q-8 4 -15 4.5t-16 0.5q-51 0 -93 -13.5t-71 -39t-45 -61.5t-16 -81zM381 66h33q55 0 100.5 18.5t78.5 52t51 80.5t18 105q0 36 -6.5 65t-23 56.5t-44.5 55.5t-70 62z" />
<glyph unicode="%" horiz-adv-x="1706" d="M80 883q0 96 39 187.5t103.5 162.5t147 114.5t169.5 43.5q44 0 78.5 -13t78.5 -45q22 -15 43.5 -26t44.5 -18t50 -10t59 -3q48 0 92 8t86 25t83.5 43.5t84.5 64.5h80l-807 -1433h-115l715 1269q-66 -27 -126.5 -41t-117.5 -14q-17 0 -35.5 2t-52.5 8q-1 -68 -8 -125.5 t-22 -108.5t-38.5 -97.5t-56.5 -94.5q-60 -88 -139 -134t-172 -46q-59 0 -107.5 21t-83 58t-54 88.5t-19.5 113.5zM315 807q-3 -48 25.5 -79.5t73.5 -31.5q36 0 72 20t69 54t61.5 81t49.5 101t33 112.5t12 117.5q0 17 -1 27t-7 17t-18 13t-34 14q-11 5 -15.5 8t-17.5 15 q-11 9 -16 12.5t-14 3.5q-28 3 -63.5 -26.5t-69.5 -81.5q-26 -39 -50 -89.5t-43 -102.5t-31.5 -101t-15.5 -84zM922 262q0 51 14 105.5t39.5 106.5t61.5 100.5t81 87.5q124 108 266 108q54 0 98 -17t75.5 -48.5t49 -75.5t17.5 -97q0 -58 -12.5 -118t-35.5 -117.5t-56 -110 t-74 -96.5q-50 -53 -116.5 -81.5t-135.5 -28.5q-62 0 -112 20t-85.5 57t-55 89t-19.5 116zM1161 190q-2 -24 5.5 -45.5t21.5 -37t33.5 -24.5t42.5 -9q55 0 107.5 43t98.5 127q84 150 84 280q0 60 -29 99.5t-75 42.5q-77 3 -156 -113q-22 -35 -45 -83.5t-41.5 -99.5 t-31.5 -99t-15 -81z" />
<glyph unicode="&#x26;" horiz-adv-x="1593" d="M10 303q0 71 30.5 141.5t86.5 128.5q27 28 55 50.5t69.5 45.5t101 51t149.5 66q-7 36 -11.5 62.5t-7 48.5t-3.5 40.5t-1 37.5q0 94 27.5 171.5t77.5 133t120 86.5t154 31q61 0 113 -17.5t90 -48.5t59 -74t21 -94q0 -103 -90.5 -188.5t-282.5 -163.5q9 -57 26 -118 t40 -121t50.5 -117.5t59.5 -108.5q45 55 74 95.5t46.5 70.5t24.5 53.5t7 44.5q0 17 -5.5 29.5t-19 21.5t-35.5 15.5t-55 11.5v51h434v-51q-32 -6 -55.5 -12.5t-47 -21t-49 -40.5t-62 -70t-86 -110.5t-120.5 -161.5q60 -78 113 -112.5t113 -34.5q42 0 77 18.5t80 63.5l54 -43 q-47 -57 -88 -95.5t-82 -62t-84.5 -33.5t-94.5 -10q-81 0 -148 29.5t-136 97.5q-51 -35 -98.5 -59t-95 -40t-96.5 -23t-103 -7q-89 0 -161.5 25t-125 70t-81 108t-28.5 139zM283 389q0 -61 19.5 -112.5t54 -89.5t82.5 -59.5t104 -21.5q24 0 46 3t45.5 10t49.5 18t57 27 q-43 67 -75.5 127.5t-59 123.5t-47.5 132.5t-41 154.5q-65 -32 -109.5 -64.5t-72.5 -70t-40.5 -81t-12.5 -97.5zM727 1085q0 -19 1 -36t3.5 -38t7 -50t11.5 -72q60 34 103 68.5t70.5 71.5t40.5 77t13 86q0 65 -28 101t-79 36q-69 0 -106 -62.5t-37 -181.5z" />
<glyph unicode="'" horiz-adv-x="569" d="M262 815l33 438q2 29 16.5 56t37 48t50.5 33.5t58 12.5q19 0 36 -8t29.5 -21.5t19.5 -31.5t7 -39q0 -11 -0.5 -18t-3.5 -16.5t-9 -23.5t-18 -39l-4 -10l-168 -381h-84z" />
<glyph unicode="(" horiz-adv-x="682" d="M57 424q0 221 82 403q35 80 78.5 147.5t104.5 134.5t145 137.5t201 156.5l37 -41q-62 -57 -109 -106t-83.5 -97t-66 -99.5t-57.5 -113.5q-33 -74 -59 -159t-43.5 -177t-27 -189.5t-9.5 -195.5q0 -89 7 -159.5t23.5 -135t44.5 -128t70 -138.5l-47 -31q-78 106 -133 203.5 t-90 193t-51.5 192.5t-16.5 202z" />
<glyph unicode=")" horiz-adv-x="682" d="M-90 -326q60 55 103.5 100t76.5 87t59 85t52 95q37 76 66.5 169t50.5 194.5t32.5 206.5t11.5 206q0 88 -7.5 159.5t-24.5 136.5t-45 127.5t-70 131.5l47 31q42 -58 72.5 -102.5t54 -84.5t42 -79t36.5 -86q43 -109 65.5 -219.5t22.5 -219.5q0 -154 -41.5 -291.5 t-128.5 -267.5q-39 -58 -79.5 -107.5t-91.5 -98t-116 -100t-153 -114.5z" />
<glyph unicode="*" d="M133 795q0 24 14.5 47t38.5 37q20 10 42.5 15t66.5 5q35 1 59 3.5t43.5 7t38 13t43.5 23.5l23 12l-23 13q-25 15 -44.5 23.5t-39 13.5t-43 7t-57.5 3q-22 0 -38 1t-28 3.5t-22 6.5t-21 11q-26 17 -39.5 37.5t-13.5 46.5q0 22 8.5 42t22.5 35.5t32 24.5t37 9 q37 0 66 -22.5t63 -75.5q19 -29 33.5 -49.5t29 -35.5t31.5 -27.5t40 -25.5l22 -12v25q0 25 -3 47.5t-9 44.5t-16 44.5t-25 47.5q-20 34 -27.5 55.5t-7.5 44.5q0 50 28 78.5t74 28.5q48 0 76.5 -28.5t28.5 -78.5q0 -23 -7.5 -44.5t-27.5 -55.5q-15 -25 -25 -47.5t-16 -44.5 t-9 -44.5t-3 -47.5v-25l22 12q23 13 40 25.5t31.5 27.5t29 35.5t33.5 49.5q34 53 62.5 75.5t66.5 22.5q20 0 38 -9t32 -24.5t22 -35.5t8 -42q0 -26 -13.5 -46.5t-39.5 -37.5q-11 -7 -21 -11t-22 -6.5t-28 -3.5t-38 -1q-34 -1 -57.5 -3t-43 -7t-39 -13.5t-44.5 -23.5l-23 -13 l23 -12q25 -15 43.5 -23.5t38 -13t43.5 -7t59 -3.5q44 0 66.5 -5t42.5 -15q24 -14 38.5 -37t14.5 -47q0 -23 -8 -43t-22.5 -35t-33 -24t-39.5 -9q-38 0 -66 21.5t-60 76.5q-17 28 -30.5 47t-28 33.5t-32.5 27.5t-43 28l-22 12v-25q0 -49 12 -90t41 -92q20 -34 27.5 -56.5 t7.5 -45.5q0 -48 -28.5 -76.5t-76.5 -28.5q-46 0 -74 28.5t-28 78.5q0 21 7.5 43.5t27.5 56.5q29 51 41 92t12 90v25l-22 -12q-26 -15 -43.5 -28t-32 -27.5t-28 -33.5t-30.5 -47q-32 -55 -60 -76.5t-66 -21.5q-21 0 -39.5 9t-33 24t-22.5 35t-8 43z" />
<glyph unicode="+" horiz-adv-x="1167" d="M66 422v180h403v404h180v-404h404v-180h-404v-404h-180v404h-403z" />
<glyph unicode="," horiz-adv-x="512" d="M-123 -324q242 128 242 240q0 22 -13.5 39.5t-48.5 40.5q-23 15 -38.5 29.5t-25.5 29.5t-14 32t-4 38q0 32 11 59.5t30.5 47.5t46 31t58.5 11q39 0 71 -14t55 -40.5t35.5 -63.5t12.5 -82q0 -62 -28 -125t-79 -121.5t-123 -110t-161 -90.5z" />
<glyph unicode="-" horiz-adv-x="682" d="M4 340l49 238h502l-47 -238h-504z" />
<glyph unicode="." horiz-adv-x="512" d="M23 123q0 33 11.5 61t32 48.5t48.5 32t61 11.5q31 0 58 -12t47.5 -32t32.5 -48t12 -59q0 -32 -12 -60t-33 -48.5t-49 -32t-60 -11.5t-59 11.5t-47 32t-31.5 47.5t-11.5 59z" />
<glyph unicode="/" horiz-adv-x="569" d="M-131 -37l653 1440h178l-653 -1440h-178z" />
<glyph unicode="0" d="M35 422q0 114 23 230t64.5 224.5t100 204.5t129.5 170q69 72 151 110t167 38q70 0 126.5 -35t96.5 -99.5t62 -156t22 -203.5q0 -122 -29 -249t-79.5 -242t-119 -209.5t-147.5 -151.5q-113 -82 -240 -82q-74 0 -134 32t-103 91.5t-66.5 142.5t-23.5 185zM246 166 q0 -62 28 -98.5t74 -36.5q32 0 60 16t54 51.5t51 91.5t52 136q11 33 25.5 84t31.5 112.5t34.5 128.5t33.5 131t29 121t22 98q11 60 18 110t7 81q0 69 -26 108t-74 39q-29 0 -56 -17.5t-53 -55.5t-52.5 -98t-55.5 -146q-24 -68 -48.5 -149.5t-47 -166t-42 -167.5t-34 -155.5 t-23 -129t-8.5 -88.5z" />
<glyph unicode="1" d="M10 0v47q55 0 95.5 8t69 26t47.5 47t32 71l249 890q4 14 6 27t2 22q0 67 -94 67q-29 0 -59 -2t-70 -8l4 47q496 136 566 157l-315 -1147q-9 -32 -14 -50t-8 -35.5t-3 -25.5q0 -28 8.5 -46t30.5 -28.5t60.5 -14.5t99.5 -5v-47h-707z" />
<glyph unicode="2" d="M-55 0v49l184 184q144 144 242 253.5t157.5 197.5t85 161t25.5 144q0 106 -49.5 165.5t-140.5 59.5q-81 0 -146 -42.5t-127 -133.5l-45 25q22 44 41 77t38 59t39.5 48t45.5 43q65 56 134.5 82.5t148.5 26.5q70 0 131.5 -27t106.5 -73.5t71 -109t26 -134.5 q0 -116 -74 -238.5t-221 -247.5l-401 -342h305q60 0 101 6.5t72 24.5t57 50t55 83h51l-162 -391h-751z" />
<glyph unicode="3" d="M-31 137q0 53 33 84t90 31q20 0 36.5 -4.5t32 -15.5t31 -29t33.5 -45q26 -37 37 -54t14 -20q13 -12 35.5 -20.5t46.5 -8.5q47 0 88 26t72 71t48.5 105.5t17.5 129.5q0 105 -38.5 177.5t-113.5 109.5q-18 9 -35 15.5t-36.5 10.5t-43.5 6.5t-55 4.5l8 45q199 41 293 117.5 t94 195.5q0 85 -48 134.5t-130 49.5q-36 0 -65.5 -7.5t-57.5 -25t-55.5 -47t-58.5 -73.5l-43 26q48 72 95.5 123.5t98.5 84.5t106 49t117 16q66 0 122.5 -21t97 -58.5t63.5 -88.5t23 -111q0 -183 -220 -295l-24 -12q44 -33 74 -65t49 -67.5t27 -76.5t8 -92 q0 -112 -46.5 -210.5t-127 -171.5t-189 -115t-231.5 -42q-63 0 -113.5 11.5t-86 33t-54.5 51.5t-19 68z" />
<glyph unicode="4" d="M-31 307l58 215l874 877h129l-244 -891h142l-56 -201h-139l-86 -307h-262l84 307h-500zM109 508h415l162 573z" />
<glyph unicode="5" d="M-23 135q0 53 33.5 85t87.5 32q23 0 42 -5.5t36 -18.5t33.5 -33.5t34.5 -51.5q16 -26 29 -43t25.5 -27t25.5 -14t30 -4q55 0 104.5 27t87.5 73t60.5 106t22.5 126q0 100 -54.5 184t-152.5 134q-29 14 -56 24t-58.5 16.5t-69.5 10.5t-88 6l268 608h579l-73 -223h-521 l-69 -156q72 -15 121 -27t84 -24t61 -25.5t53 -31.5q93 -62 142 -156.5t49 -212.5q0 -114 -46 -213t-126.5 -172t-189.5 -114.5t-236 -41.5q-61 0 -110.5 11.5t-85 32.5t-54.5 51t-19 67z" />
<glyph unicode="6" d="M47 399q0 111 29.5 220.5t85.5 210t136.5 189.5t182.5 161q60 42 116 73t119 55t138.5 43.5t175.5 39.5l12 -50q-104 -39 -188 -87.5t-153 -110t-125 -137t-103 -168.5q23 8 40 13t31.5 8t27.5 4t28 1q72 0 128.5 -24t96.5 -69.5t61 -110.5t21 -146q0 -114 -39 -213 t-107.5 -173t-160.5 -116.5t-197 -42.5q-84 0 -150 29t-111.5 84.5t-70 135.5t-24.5 181zM276 195q0 -82 28 -121t85 -39q40 0 72.5 21.5t52.5 58.5q17 32 34 75t32.5 91t28.5 99t23 99t15.5 91t5.5 75q0 71 -33.5 104t-105.5 33q-26 0 -43 -4.5t-31 -19t-27 -41.5t-30 -72 q-25 -64 -44.5 -127t-33.5 -121.5t-21.5 -110t-7.5 -91.5z" />
<glyph unicode="7" d="M106 0l680 1139h-272q-80 0 -133 -6t-90.5 -23t-65 -48t-55.5 -81h-53l178 389h780l-780 -1370h-189z" />
<glyph unicode="8" d="M6 313q0 65 22 120.5t67.5 102.5t115 86.5t164.5 73.5v11q-43 45 -72 83t-47 75t-25.5 74.5t-7.5 82.5q0 81 29.5 150.5t81.5 119.5t124 78.5t156 28.5q43 0 85.5 -8.5t81.5 -24.5t72.5 -38t57.5 -50q31 -34 47.5 -76.5t16.5 -95.5q0 -54 -16 -99.5t-51 -84.5 t-90.5 -73.5t-135.5 -68.5v-10q48 -51 81.5 -98t54.5 -92t30.5 -90.5t9.5 -94.5q0 -91 -34 -168.5t-94.5 -133.5t-144 -88t-182.5 -32q-88 0 -161 24.5t-125.5 69.5t-81.5 107.5t-29 138.5zM205 289q0 -119 53.5 -186.5t149.5 -67.5q48 0 88 19.5t69 55t45.5 84t16.5 107.5 q0 40 -6.5 71.5t-27 68.5t-60 87.5t-105.5 128.5q-61 -42 -103.5 -83t-69 -85.5t-38.5 -93.5t-12 -106zM451 1135q0 -39 9 -73.5t30 -70.5t56.5 -76t88.5 -90q45 46 73.5 82.5t45.5 69.5t23.5 65.5t6.5 71.5q0 49 -11.5 89t-33.5 68.5t-52.5 44t-68.5 15.5q-37 0 -67.5 -15 t-52.5 -41t-34.5 -62t-12.5 -78z" />
<glyph unicode="9" d="M-25 31q189 57 331.5 182t236.5 317q-19 -8 -34.5 -13.5t-29.5 -8.5t-28.5 -4.5t-32.5 -1.5q-69 0 -126 24.5t-97.5 69.5t-63 108t-22.5 140q0 117 39 218t107 176t159.5 118t197.5 43q152 0 242 -90q57 -59 88 -145.5t31 -188.5q0 -112 -30 -222.5t-86.5 -212.5 t-137 -191.5t-180.5 -160.5q-59 -42 -115 -73t-119.5 -55t-140 -43t-176.5 -37zM362 721q0 -63 35 -97t101 -34q32 0 53 5.5t37 24t31 54.5t36 98q25 73 41.5 131t27 107.5t15 93t4.5 88.5q0 141 -100 141q-49 0 -90 -33t-72 -96q-24 -48 -45.5 -111.5t-38 -129.5 t-26 -129.5t-9.5 -112.5z" />
<glyph unicode=":" horiz-adv-x="682" d="M47 125q0 32 11.5 59.5t32.5 48t49 32t61 11.5q31 0 58 -12t47 -32.5t32 -48t12 -58.5q0 -32 -12 -60t-32.5 -48.5t-48.5 -32t-60 -11.5t-59.5 11.5t-47.5 32t-31.5 48.5t-11.5 60zM238 788q0 32 11.5 60t32 48.5t48.5 32t61 11.5q31 0 58 -12t47.5 -33t32.5 -48.5 t12 -58.5q0 -32 -12 -60t-33 -48t-49 -31.5t-60 -11.5t-59.5 11.5t-47.5 31.5t-31 48t-11 60z" />
<glyph unicode=";" horiz-adv-x="682" d="M-51 -326q241 128 241 240q0 22 -13 39.5t-48 40.5q-23 15 -38.5 29t-25.5 29t-14 32.5t-4 38.5q0 32 11 59.5t30.5 47.5t46 31t58.5 11q39 0 71 -14t55 -40.5t35.5 -63.5t12.5 -82q0 -62 -28 -125t-79 -121.5t-123.5 -110t-161.5 -90.5zM238 788q0 32 11.5 60t32 48.5 t48.5 32t61 11.5q31 0 58 -12t47.5 -33t32.5 -48.5t12 -58.5q0 -32 -12 -60t-33 -48t-49 -31.5t-60 -11.5t-59.5 11.5t-47.5 31.5t-31 48t-11 60z" />
<glyph unicode="&#x3c;" horiz-adv-x="1167" d="M115 432v160l848 428v-201l-607 -307l607 -307v-201z" />
<glyph unicode="=" horiz-adv-x="1167" d="M66 250v180h987v-180h-987zM66 594v180h987v-180h-987z" />
<glyph unicode="&#x3e;" horiz-adv-x="1167" d="M115 4v201l606 307l-606 307v201l848 -428v-160z" />
<glyph unicode="?" d="M162 125q0 32 11.5 59.5t32 48t48.5 32t61 11.5q31 0 58 -12t47.5 -32.5t32.5 -48t12 -58.5q0 -32 -12 -60t-33 -48.5t-49 -32t-60 -11.5t-59.5 11.5t-47.5 32t-31 48.5t-11 60zM244 1137q0 57 26.5 105.5t74 84t113.5 55t144 19.5q81 0 148 -21.5t114 -60t73 -93 t26 -120.5q0 -48 -14.5 -92.5t-45.5 -87t-80 -84.5t-118 -86l-136 -88q-29 -20 -50.5 -40t-40.5 -47t-37 -64t-40 -91l-59 14q3 42 13 81.5t27.5 79t43.5 80t61 85.5l84 104q69 85 100 158t31 148t-37.5 118t-103.5 43q-24 0 -47 -6.5t-41 -17t-28.5 -24.5t-10.5 -29 q0 -10 5 -20t18 -26q20 -26 28.5 -47.5t8.5 -44.5q0 -25 -10 -47.5t-27 -39t-39.5 -26.5t-48.5 -10q-27 0 -50 10.5t-39.5 29t-26 44t-9.5 54.5z" />
<glyph unicode="@" horiz-adv-x="1704" d="M129 672q0 153 59.5 286t163 232t242.5 156t299 57q145 0 270 -47t217 -129t144.5 -193.5t52.5 -240.5q0 -102 -30.5 -193t-83 -159.5t-122 -109t-147.5 -40.5q-38 0 -71.5 12t-59.5 33t-42 48.5t-17 59.5q-54 -71 -122 -111t-134 -40q-40 0 -75 18t-60.5 49.5t-40.5 74 t-15 91.5q0 56 12 113.5t34 112.5t53.5 105t70.5 91q50 51 113 79t129 28q27 0 47 -4.5t36.5 -16.5t31 -33t32.5 -53l23 78h145l-133 -526q-3 -10 -3.5 -18.5t-0.5 -22.5q0 -92 76 -92q93 0 168 108q21 31 38 68t29 76.5t18.5 79t6.5 77.5q0 75 -21 144.5t-59.5 130 t-92.5 111t-119.5 86t-140.5 55.5t-155 20q-127 0 -233.5 -49t-183.5 -137.5t-120 -210.5t-43 -267q0 -131 45 -241.5t125 -190.5t191.5 -125t243.5 -45q54 0 101.5 5t95 16.5t98 30.5t110.5 47l27 -72q-75 -35 -134 -58t-111 -37t-102 -20t-106 -6q-108 0 -207.5 24.5 t-185 70t-155 110t-119 143t-76.5 170t-27 191.5zM713 563q0 -80 32.5 -127t88.5 -47q45 0 89 36.5t78 102.5q16 31 30 68.5t24.5 76.5t17 77.5t8.5 72.5q3 62 -19 96t-67 37q-20 2 -43.5 -5.5t-48 -22t-49 -36t-45.5 -48.5q-46 -57 -71 -129.5t-25 -151.5z" />
<glyph unicode="A" horiz-adv-x="1366" d="M-137 0v51q28 6 48.5 15.5t39.5 25t38 40.5t44 63l762 1204h51l196 -1172q10 -58 19 -91.5t26.5 -51t46.5 -23.5t80 -10v-51h-622v51q49 4 80.5 11.5t49.5 21t25 35t7 53.5q0 22 -3.5 55t-13.5 92q-5 20 -8 46.5t-6 60.5h-440l-121 -209q-31 -52 -31 -94q0 -37 31 -54.5 t102 -17.5v-51h-401zM330 508h379l-76 498z" />
<glyph unicode="B" horiz-adv-x="1366" d="M-49 0v51q37 4 62.5 13t44 26t32 43.5t25.5 65.5l250 919q11 38 16.5 69.5t5.5 47.5q0 19 -9 36t-22 25q-9 6 -18 9.5t-22 6t-31.5 4t-46.5 3.5v51h557q239 0 361 -75t122 -224q0 -63 -25 -121t-71 -96q-27 -22 -54 -39t-60 -32t-76 -28t-101 -28q78 -26 131.5 -54 t86.5 -64t47.5 -81.5t14.5 -105.5q0 -98 -41.5 -176.5t-119.5 -133t-190 -83.5t-253 -29h-616zM406 133q0 -35 28 -51t88 -16q134 0 215 81q28 28 50 64.5t38 78.5t24.5 88t8.5 91q0 57 -18 101.5t-54 72.5q-16 12 -36 21t-47.5 14.5t-64.5 8.5t-87 5l-135 -499 q-6 -22 -8 -34.5t-2 -25.5zM567 754q57 2 99.5 6t76 11t59.5 18t50 26q62 40 93.5 112t31.5 171q0 207 -178 207q-25 0 -41.5 -4t-28.5 -14t-20.5 -27.5t-16.5 -45.5z" />
<glyph unicode="C" horiz-adv-x="1366" d="M66 494q0 124 30 240t85 217t131.5 184t169 142.5t199 92.5t220.5 33q63 0 131 -10.5t137 -32.5q23 -8 44.5 -12.5t33.5 -4.5q23 0 39.5 13t38.5 47h61l-104 -479l-65 12q3 20 4.5 36t1.5 36q0 75 -18.5 135t-53.5 101.5t-85 64t-112 22.5q-65 0 -126.5 -25t-118.5 -73 q-69 -61 -129 -153t-104.5 -200t-69.5 -224.5t-25 -227.5q0 -84 21 -150t60.5 -111.5t96.5 -70t129 -24.5q48 0 94.5 9t89.5 28q32 13 60 30t56.5 40.5t60 56t69.5 77.5l62 -45q-25 -34 -44.5 -58.5t-38 -44t-37 -36t-40.5 -33.5q-177 -133 -397 -133q-125 0 -228 38 t-176 108t-113 168t-40 217z" />
<glyph unicode="D" horiz-adv-x="1479" d="M-94 0v51q37 4 62.5 13t44.5 26t32 43.5t25 65.5l247 913q14 51 19.5 78t5.5 43q0 37 -18.5 53t-67.5 23l-63 10v51h593q145 0 260 -38t194 -110t121 -176t42 -235q0 -117 -31 -222.5t-88.5 -195.5t-139.5 -162.5t-183 -124t-219.5 -79t-249.5 -27.5h-586zM362 139 q0 -37 26 -53t85 -16q150 0 261 58.5t196 182.5q40 59 71.5 132.5t54 154.5t34.5 167t12 171q0 189 -83.5 280t-254.5 91q-51 0 -76.5 -17.5t-36.5 -60.5l-262 -971l-2 -8q-14 -42 -19.5 -67t-5.5 -44z" />
<glyph unicode="E" horiz-adv-x="1366" d="M-55 0v51q40 6 66 15t43.5 24.5t30 41.5t24.5 67l251 919q10 35 15.5 68.5t5.5 56.5q0 31 -19 46.5t-67 21.5l-64 8v51h1106l-88 -389l-55 10q0 48 -3 82.5t-10 60.5t-18.5 46t-29.5 39q-42 42 -122.5 64t-193.5 22q-32 0 -53 -4t-35 -14.5t-23.5 -28t-17.5 -44.5 l-125 -456h25q86 0 142 6q64 7 108.5 29.5t76.5 66t68 115.5l57 -8l-151 -559l-58 10q5 29 7 48.5t2 41.5q0 53 -13.5 87.5t-47 55.5t-90.5 30t-144 11l-115 -428q-31 -67 -31 -129q0 -37 29.5 -53t95.5 -16q137 0 244 29.5t195 94.5q28 21 51 41.5t44 45.5t43 56.5t48 74.5 l51 -11l-121 -397h-1134z" />
<glyph unicode="F" horiz-adv-x="1366" d="M-27 0v51q40 6 66 15t43.5 24.5t30 41.5t24.5 67l252 919q9 35 15 68.5t6 56.5q0 31 -19 46.5t-67 21.5l-64 8v51h1092l-88 -389l-56 10q0 44 -3 77t-9 58.5t-16 45.5t-25 38q-85 95 -309 95q-32 0 -53 -4t-35.5 -14.5t-24 -28t-16.5 -44.5l-125 -456q67 0 116.5 3 t86.5 11t64 22.5t50 38.5t43.5 59t44.5 83l58 -8l-152 -559l-57 10q5 29 6.5 48.5t1.5 41.5q0 52 -13 87t-45 56t-86.5 30t-136.5 11l-110 -411l-8 -31q-13 -40 -18 -65t-5 -44q0 -24 6.5 -39.5t23 -26t45 -16t71.5 -8.5v-51h-605z" />
<glyph unicode="G" horiz-adv-x="1479" d="M43 514q0 117 32 231.5t91 217t141.5 187.5t184.5 144q188 109 426 109q70 0 128.5 -10t124.5 -33q29 -11 44.5 -15t29.5 -4q31 0 50 14t36 48h64l-105 -453l-59 8q-2 52 -5.5 91t-11 69.5t-19 55.5t-28.5 51q-34 49 -91.5 76.5t-129.5 27.5q-143 0 -264 -104 q-69 -61 -127.5 -151t-101.5 -196.5t-67 -222.5t-24 -229q0 -189 86 -287t250 -98q30 0 60 4.5t56 13t46 19.5t31 24q3 5 4.5 7t6 16t14 46.5l28.5 97.5q19 63 31 104.5t18.5 69.5t8.5 47.5t2 38.5q0 14 -8 28.5t-17 20.5q-8 4 -16.5 7.5t-22 6t-34.5 5.5t-54 6v53h589v-53 q-41 -3 -66 -10t-41.5 -24t-28 -48.5t-26.5 -85.5l-93 -351l-58 -27q-44 -21 -101.5 -38t-121.5 -29.5t-130 -19.5t-126 -7q-135 0 -246.5 40t-191.5 112.5t-124 174t-44 224.5z" />
<glyph unicode="H" horiz-adv-x="1593" d="M-49 0v51q38 6 64 14.5t44 25t31 42.5t25 66l250 919q12 44 17 72t5 47q0 34 -18 49.5t-68 22.5l-63 10v51h649v-51q-50 -2 -84 -9t-57 -24t-38.5 -45t-27.5 -70l-111 -407h490l96 354q4 15 7.5 33t6.5 35.5t5 32.5t2 24q0 31 -18 45t-66 21l-66 10v51h610v-51 q-39 -5 -65 -13.5t-44.5 -25t-31.5 -42.5t-25 -67l-223 -813l-12 -45q-12 -40 -19.5 -68.5t-12 -49t-6 -34.5t-1.5 -26q0 -22 7.5 -37.5t25 -25t46.5 -15t71 -6.5v-51h-650v51q52 3 86.5 11t58 24.5t37.5 43.5t25 69l131 475h-489l-103 -371l-8 -33q-15 -48 -20.5 -78 t-5.5 -53q0 -24 5 -39.5t20.5 -25t45 -14.5t78.5 -9v-51h-606z" />
<glyph unicode="I" horiz-adv-x="797" d="M-66 0v51q38 4 64 13t44 25.5t31 43t25 66.5l252 919q4 15 7.5 33t6.5 35.5t5 32.5t2 24q0 31 -18 45t-66 21q-17 3 -33.5 5.5t-32.5 4.5v51h610v-51q-39 -5 -65.5 -13t-45 -24.5t-31.5 -43t-25 -67.5l-234 -860q-11 -38 -18 -66t-11.5 -49t-6 -36t-1.5 -27 q0 -21 6.5 -36t23.5 -24.5t45.5 -14.5t72.5 -7v-51h-607z" />
<glyph unicode="J" horiz-adv-x="1061" d="M-12 170q0 31 10 57t27.5 45t41.5 30t52 11q27 0 50.5 -10t41 -27t27.5 -40.5t10 -51.5q0 -21 -5 -34t-22 -33q-12 -14 -16 -23t-4 -20q0 -19 13 -28t42 -9q28 0 49.5 13.5t41.5 52.5t41.5 110t51.5 186l189 719q11 42 16.5 75t5.5 50q0 28 -19.5 43.5t-66.5 22.5l-63 10 v51h608v-51q-38 -5 -63.5 -13t-44 -24.5t-32 -43t-26.5 -67.5l-217 -815q-54 -201 -158 -297t-270 -96q-68 0 -125 15.5t-98 43t-64.5 65.5t-23.5 83z" />
<glyph unicode="K" horiz-adv-x="1366" d="M-43 0v51q37 4 63 12.5t44 25t31.5 43t25.5 67.5l250 919q12 44 17 72t5 47q0 34 -18 49.5t-68 22.5l-63 10v51h635v-51q-45 -4 -76.5 -12.5t-53 -25t-36.5 -43.5t-27 -67l-127 -466l404 358q43 40 73 71t49 55t27 42t8 33q0 23 -16.5 34.5t-54.5 16.5l-43 4v51h432v-51 q-33 -5 -55 -9.5t-41.5 -14.5t-41.5 -27t-55 -47l-442 -406l321 -692q9 -18 19 -30.5t25 -21t35.5 -13t49.5 -7.5v-51h-573v51l55 6q42 3 60 15.5t18 33.5q0 19 -5.5 37t-21.5 52l-231 495l-137 -510q-2 -8 -3 -16.5t-1 -18.5q0 -25 6 -42t21.5 -27.5t41.5 -16t66 -8.5v-51 h-592z" />
<glyph unicode="L" horiz-adv-x="1251" d="M-45 0v51q37 4 63 13t44 25.5t31.5 43t25.5 66.5l252 919q4 15 7.5 33t6.5 35.5t4.5 32.5t1.5 24q0 31 -18 45t-66 21q-17 3 -33.5 5.5t-31.5 4.5v51h649v-51q-51 -3 -85 -10.5t-57 -24t-38 -44t-27 -69.5l-264 -978q-5 -17 -7.5 -35.5t-2.5 -30.5q0 -32 31 -46.5 t100 -14.5q131 0 239 31.5t193 92.5q28 22 51.5 43t45 45.5t43 56t46.5 73.5l49 -11l-121 -397h-1132z" />
<glyph unicode="M" horiz-adv-x="1821" d="M-59 0v51q27 6 47.5 13.5t36.5 20t29.5 33t27.5 53t29.5 80t35.5 114.5l224 763q11 41 16.5 69.5t5.5 49.5q0 22 -5 35t-20.5 20.5t-44.5 11t-77 5.5v51h452l111 -983l635 983h434v-51q-39 -5 -65.5 -13.5t-45 -25t-31 -43t-24.5 -66.5l-252 -919q-11 -28 -15.5 -56.5 t-4.5 -56.5q0 -24 6 -40t22.5 -26t45 -15t73.5 -7v-51h-639v51q50 3 83.5 11t56.5 24.5t38 43.5t27 69l256 950l-768 -1174h-57l-138 1145l-206 -755q-22 -77 -30.5 -120t-8.5 -69q0 -32 7 -53t25.5 -35t50 -22.5t81.5 -14.5v-51h-424z" />
<glyph unicode="N" horiz-adv-x="1479" d="M-55 0v51q42 9 68.5 21t47 43.5t41 90t50.5 159.5l245 841q-15 34 -27.5 54.5t-30 32t-44 17t-68.5 9.5v51h400l440 -952l164 588q17 63 27 113t10 79t-8.5 50.5t-28 35.5t-51 22.5t-76.5 12.5v51h428v-51q-30 -7 -51.5 -14t-38 -19t-29.5 -32t-26.5 -52.5t-28.5 -80.5 t-35 -115l-293 -1037h-57l-527 1125l-202 -729q-19 -65 -28 -114.5t-9 -78.5q0 -30 8.5 -51.5t28 -35.5t51 -22t76.5 -12v-51h-426z" />
<glyph unicode="O" horiz-adv-x="1479" d="M55 453q0 109 32.5 223t90.5 221t138.5 200t175.5 160q103 73 210.5 109.5t217.5 36.5q106 0 197 -35.5t157 -99t103.5 -150t37.5 -188.5q0 -114 -31.5 -231t-89 -225t-138 -202t-177.5 -163q-100 -73 -211.5 -109.5t-228.5 -36.5q-108 0 -197.5 35.5t-153 100 t-98.5 154.5t-35 200zM350 281q0 -58 14.5 -104t41.5 -78t66 -49t87 -17q85 0 159 50t146 159q33 51 65 116.5t60.5 139.5t52.5 153t41.5 156.5t27 149.5t9.5 133q0 54 -15 99t-42.5 77t-65.5 49.5t-84 17.5q-104 0 -191 -71t-167 -220q-27 -50 -52 -111.5t-48 -129.5 t-42 -139t-33 -139t-22 -130t-8 -112z" />
<glyph unicode="P" horiz-adv-x="1251" d="M-55 0v51q40 6 66 15t43.5 24.5t30 41.5t24.5 67l251 919q10 35 15.5 68.5t5.5 56.5q0 31 -19 46.5t-67 21.5l-64 8v51h588q215 0 325.5 -80.5t110.5 -236.5q0 -92 -39.5 -167t-112.5 -127.5t-176.5 -81t-230.5 -28.5h-169l-107 -397q-3 -13 -7 -30.5t-7 -35t-5 -32.5 t-2 -23q0 -21 7 -35t24 -23.5t45.5 -14.5t71.5 -7v-51h-602zM550 721h87q54 0 96.5 9.5t75 30t57.5 53t45 79.5q20 48 32.5 109.5t12.5 115.5q0 90 -45 138.5t-127 48.5q-29 0 -47 -7t-32 -22q-3 -5 -5.5 -8t-4.5 -9t-5 -16t-8 -29z" />
<glyph unicode="Q" horiz-adv-x="1479" d="M55 432q0 124 33.5 244.5t92.5 228.5t140.5 199.5t177.5 157.5t203 103.5t218 37.5q107 0 198 -35.5t157 -99.5t103 -151.5t37 -190.5q0 -102 -25 -205.5t-71.5 -202t-114 -188.5t-151.5 -166q-59 -53 -113 -88.5t-115 -58t-135 -34.5t-174 -18q-36 -34 -64 -64 q-16 -17 -30 -32q0 -6 21.5 -10t56.5 -6q27 -2 56 -6t56.5 -9t51.5 -11t41 -11l86 -27q28 -9 50.5 -15t42 -9.5t38 -5t39.5 -1.5q47 0 85.5 7.5t75.5 26t74.5 49.5t81.5 77l43 -39q-62 -84 -121 -139.5t-122 -87.5t-133 -45t-154 -13q-32 0 -58.5 2.5t-55 8.5t-63 16.5 t-82.5 25.5q-40 12 -69.5 20.5t-54 13.5t-46 7t-43.5 2q-24 0 -47.5 -5.5t-50.5 -16t-59.5 -24.5t-75.5 -31l-29 49l320 266q8 7 15 13l14 12q3 3 5 6t5 8q-5 6 -11 10t-18 9q-41 15 -67.5 25.5t-47 22t-37 24.5t-36.5 32q-70 65 -107 153.5t-37 188.5zM350 279 q0 -56 14.5 -101.5t41.5 -77t66 -48.5t87 -17q85 0 159 50.5t146 160.5q34 50 66 115t60.5 139t52 152.5t41 155.5t27 149t9.5 133q0 54 -15 99t-42.5 77t-65.5 49.5t-84 17.5q-104 0 -191 -71t-167 -220q-27 -50 -53 -111.5t-48.5 -129.5t-41.5 -139t-33 -139.5t-21.5 -131 t-7.5 -112.5z" />
<glyph unicode="R" horiz-adv-x="1366" d="M-59 0v51q37 4 63 13t44 25.5t31 43t25 66.5l252 919q4 15 8 33t7 35.5t4.5 32.5t1.5 24q0 31 -18 45t-66 21q-17 3 -33.5 5.5t-32.5 4.5v51h566q245 0 364 -72t119 -221q0 -86 -44.5 -162.5t-125.5 -130.5q-23 -15 -45.5 -26.5t-48 -21t-57 -17.5t-72.5 -17l170 -503 q17 -45 31 -72.5t32.5 -43t46 -22t70.5 -10.5v-51h-414l-219 678h-59l-113 -395q-14 -50 -21.5 -87t-7.5 -59q0 -23 6.5 -38t23 -25t45 -15t73.5 -8v-51h-606zM559 743q96 2 158 14t102 38q34 21 61 53.5t46.5 74t30 89t10.5 98.5q0 94 -48.5 144.5t-136.5 50.5 q-24 0 -40 -4t-27 -14t-18.5 -27.5t-14.5 -45.5z" />
<glyph unicode="S" horiz-adv-x="1139" d="M4 -37l74 459l59 -4q3 -47 8 -83.5t12.5 -66t19 -54t26.5 -48.5q40 -63 104.5 -98t145.5 -35q77 0 130.5 29.5t88.5 89.5q18 32 28.5 68.5t10.5 70.5q0 72 -55.5 146.5t-176.5 166.5q-88 68 -148.5 134.5t-94.5 131.5q-13 26 -20 60t-7 76q0 84 31.5 157t87 126 t130.5 83.5t163 30.5q22 0 44 -2t46 -6.5t51 -12t59 -18.5q40 -12 64.5 -17.5t40.5 -5.5q62 0 90 54h61l-82 -412l-55 8q-10 90 -30.5 154.5t-53 105.5t-79 60.5t-107.5 19.5q-49 0 -88.5 -15t-67 -42.5t-42.5 -67.5t-15 -90q0 -35 6.5 -62t24 -53t48 -54t78.5 -64 q94 -72 160 -134.5t106.5 -122.5t59 -120t18.5 -127q0 -95 -33 -172t-94 -131t-147.5 -83.5t-194.5 -29.5q-30 0 -59 2.5t-59 8.5t-63 15.5t-70 22.5q-36 13 -57.5 18t-37.5 5q-15 0 -25.5 -3t-19 -10.5t-16 -22t-16.5 -36.5h-62z" />
<glyph unicode="T" horiz-adv-x="1251" d="M102 0v51h29q79 0 122 34t64 114l304 1099q-78 -2 -142.5 -19t-118.5 -52t-99 -90t-85 -131l-51 14l78 350h1128l-74 -393l-55 4q-4 85 -21.5 145t-51.5 98t-85.5 55.5t-123.5 18.5l-287 -1036q-11 -42 -17 -73t-6 -54q0 -24 6 -39.5t24.5 -24.5t52 -13.5t87.5 -6.5v-51 h-678z" />
<glyph unicode="U" horiz-adv-x="1479" d="M137 303q0 51 17.5 141.5t52.5 217.5l112 421q14 54 22.5 95.5t8.5 60.5q0 34 -18 49t-68 23l-63 8v51h637v-51q-48 -2 -79 -9t-52 -23.5t-35 -44t-27 -71.5l-168 -614q-20 -72 -31.5 -115.5t-17 -71t-7 -46t-1.5 -39.5q0 -97 66 -152t184 -55q167 0 272 123 q23 28 43.5 62t40 79t38.5 103t40 133l119 428q18 68 28.5 119t10.5 77q0 55 -38.5 82t-125.5 35v51h426v-51q-42 -9 -68.5 -21t-47.5 -43t-41.5 -89.5t-51.5 -159.5l-135 -467q-24 -84 -46 -147.5t-43.5 -112.5t-44.5 -85.5t-49 -66.5q-69 -82 -170.5 -123t-232.5 -41 q-101 0 -184.5 25t-144.5 70t-94.5 107.5t-33.5 137.5z" />
<glyph unicode="V" horiz-adv-x="1366" d="M133 1319v51h610v-51q-52 -5 -83 -10t-47 -14.5t-20.5 -25.5t-4.5 -42v-16t2 -17l104 -821l389 618q121 192 121 260q0 29 -19 44t-63 20l-51 4v51h393v-51q-43 -14 -72 -33.5t-49 -48.5l-804 -1274h-66l-156 1043q-17 109 -30 172t-31.5 94t-46.5 39t-76 8z" />
<glyph unicode="W" horiz-adv-x="1821" d="M133 1321v49h567v-51q-36 -5 -60 -12t-38.5 -19.5t-20.5 -31t-6 -46.5q0 -9 0.5 -16.5t2.5 -15.5l79 -715l308 637q-1 66 -6.5 106.5t-21 64t-44 34t-74.5 16.5v49h551v-51q-41 -4 -66 -10.5t-39 -19t-19 -34t-5 -55.5v-15.5t1.5 -19t3.5 -35t7 -63.5l68 -604l319 670 q10 20 16 33.5t9.5 24t4.5 19t1 17.5q0 27 -4 44t-17.5 26.5t-39 14t-68.5 7.5v51h383v-49q-32 -5 -55 -13t-42 -24.5t-36.5 -43.5t-38.5 -69l-586 -1208h-59l-121 1002l-477 -1002h-59l-160 1186q-8 54 -15 84.5t-22.5 47t-43.5 24t-77 16.5z" />
<glyph unicode="X" horiz-adv-x="1366" d="M-49 0v51q22 4 43 13t46.5 27t58.5 48t78 76t105.5 111.5t141.5 154.5l139 152l-172 557q-12 35 -25.5 58t-34 37t-50.5 21.5t-76 12.5v51h624v-51l-61 -6q-51 -6 -70.5 -22.5t-19.5 -51.5q0 -23 17 -89t53 -175q3 -8 6 -17t6.5 -22t8.5 -31t13 -43l193 203 q40 42 67 73.5t44 55.5t24.5 41t7.5 31q0 23 -16 34.5t-51 14.5l-45 4v51h415v-51q-27 -4 -49.5 -11t-45 -21.5t-48 -36.5t-59.5 -56l-408 -420l152 -485q22 -72 41 -116t44.5 -69t61 -36t90.5 -17v-51h-631v51q42 4 69 9t42.5 14t22 22t6.5 33q0 34 -18.5 102t-59.5 187 l-39 123l-275 -303q-35 -39 -48 -62t-13 -43q0 -35 32 -55.5t101 -26.5v-51h-438z" />
<glyph unicode="Y" horiz-adv-x="1251" d="M150 0v51q53 4 86.5 11t55.5 23t36 43t28 71l123 442l-180 549q-15 40 -25.5 63.5t-25 36t-37 18.5t-61.5 11v51h579v-51q-42 -2 -70 -6t-44 -12.5t-22.5 -22.5t-6.5 -35q0 -28 16 -85t51 -159l39 -120l51 -158l265 381q16 23 26.5 40t16.5 30.5t8 26t2 26.5 q0 27 -6 44.5t-22 28t-42.5 15t-66.5 6.5v51h426v-51q-29 -6 -52 -15.5t-44.5 -25.5t-43 -40.5t-47.5 -59.5l-389 -547l-106 -391q-6 -20 -9 -33t-5 -23t-2.5 -18.5t-0.5 -18.5q0 -28 6 -45.5t23 -28t48 -15.5t81 -7v-51h-659z" />
<glyph unicode="Z" horiz-adv-x="1251" d="M-23 0v59l889 1239h-159q-85 0 -153.5 -15.5t-129 -50.5t-117 -92.5t-117.5 -142.5l-57 9l117 364h958v-59l-889 -1239h144q135 0 229.5 22t163.5 70q62 42 118.5 104t104.5 140l56 -11l-121 -397h-1037z" />
<glyph unicode="[" horiz-adv-x="682" d="M-76 -326l408 1706h409l-14 -71h-141q-28 0 -44 -3t-26.5 -15.5t-18 -38.5t-18.5 -72l-323 -1385v-4q0 -45 71 -45h160l-14 -72h-449z" />
<glyph unicode="\" horiz-adv-x="569" d="M-2 1403h174l399 -1440h-172z" />
<glyph unicode="]" horiz-adv-x="682" d="M-115 -322l15 72h139q28 0 44 3t26.5 15t17.5 37t18 70l324 1387v4q0 20 -19 31.5t-53 11.5h-159l14 71h450l-409 -1702h-408z" />
<glyph unicode="^" horiz-adv-x="1167" d="M137 623l365 747h164l364 -747h-182l-264 557l-265 -557h-182z" />
<glyph unicode="_" d="M0 -154h1024v-102h-1024v102z" />
<glyph unicode="`" horiz-adv-x="682" d="M222 1246.5q-6 20.5 9 49.5q11 20 28.5 38t37.5 31t42 20.5t42 7.5q28 0 46.5 -22t41.5 -81l106 -268h-100l-215 178q-32 26 -38 46.5z" />
<glyph unicode="a" d="M-43 233q0 80 24 164t65 163t96 149.5t117 123t128 83t129 30.5q66 0 102 -34.5t50 -112.5l37 121l227 14l-146 -483q-19 -63 -32 -111t-21.5 -84.5t-12 -63t-3.5 -45.5q0 -14 6 -22t18 -8t25 6.5t30 22.5t39 44t54 70l43 -31q-89 -134 -163 -196t-146 -62 q-29 0 -54 10.5t-43.5 29t-29.5 43t-11 52.5q0 11 1 22t4 26.5t9 36.5t15 53q-44 -74 -84.5 -125.5t-80.5 -84t-82 -47t-89 -14.5q-50 0 -90.5 19t-69.5 53t-45 82t-16 106zM209 229q0 -48 26 -79t66 -31q42 0 86 39t86 114q30 53 57 119.5t47 134t32 130t12 108.5 q0 42 -21 67.5t-55 28.5h-5q-40 0 -85 -42q-48 -44 -95 -126q-32 -57 -59.5 -121t-47.5 -127t-32 -119t-12 -96z" />
<glyph unicode="b" d="M-29 96q0 5 3.5 21t9.5 39t13 50.5t15 55.5l193 670q42 145 61 223t19 98q0 62 -92 62h-37v55q68 8 123 15t104.5 14t97 15t101.5 18l-185 -672q39 52 73.5 87.5t68 57.5t68 31.5t73.5 9.5q51 0 93 -18.5t72 -52t47 -80.5t17 -103q0 -91 -25.5 -180t-70.5 -169 t-106.5 -148t-134.5 -117t-154 -77t-164 -28q-51 0 -101.5 11t-91 29t-65.5 40t-25 43zM223 96q0 -25 18 -40t46 -15q134 0 237 186q28 48 51.5 105.5t40.5 116.5t27 115.5t10 101.5q0 141 -90 141q-51 0 -97.5 -43.5t-84.5 -128.5q-12 -26 -25.5 -59.5t-27 -69.5 t-25.5 -73.5t-22 -72.5q-9 -30 -19 -71.5t-18.5 -81t-14.5 -71t-6 -40.5z" />
<glyph unicode="c" horiz-adv-x="909" d="M-10 283q0 82 23 163t64 154.5t96.5 136.5t120.5 109.5t136 73t143 26.5q52 0 94.5 -13.5t72.5 -38t46.5 -58.5t16.5 -74q0 -65 -35 -104.5t-92 -39.5q-53 0 -86 30.5t-33 76.5q0 19 6.5 37t20.5 43q9 14 12.5 23.5t3.5 15.5q0 15 -13 25t-32 10q-92 0 -176 -146 q-28 -50 -51 -107.5t-40 -117t-26.5 -116.5t-9.5 -105q0 -41 10.5 -74.5t30 -57.5t47 -37.5t61.5 -13.5q33 0 62.5 9.5t59 31.5t60.5 57.5t68 86.5l58 -37q-27 -38 -47.5 -65.5t-38.5 -48.5t-35 -38t-37 -34q-53 -45 -116.5 -69t-131.5 -24q-70 0 -127.5 22.5t-99 63.5 t-64 98t-22.5 126z" />
<glyph unicode="d" d="M-43 229q0 80 24 164.5t65 164.5t96 150.5t116.5 123.5t127 83.5t128.5 30.5q22 0 41 -3.5t36.5 -11.5t34.5 -21t36 -31l36 139q19 67 30.5 111t18 70.5t9 40t2.5 20.5q0 27 -22 42t-62 15h-43v55q77 6 136 12.5t108.5 13t93.5 15t90 19.5l-228 -830q-26 -95 -47.5 -176 t-36.5 -141t-23.5 -96.5t-8.5 -43.5q0 -9 6.5 -16.5t15.5 -7.5q23 0 58.5 39t78.5 108l46 -32q-42 -68 -81 -117t-76.5 -80.5t-74 -46.5t-74.5 -15q-58 0 -90 33.5t-32 91.5q0 12 1 24.5t3.5 28t6.5 36.5t11 51q-44 -73 -84 -124t-80.5 -83.5t-83.5 -47t-92 -14.5 q-47 0 -86.5 19t-68.5 53t-45.5 81t-16.5 103zM211 250q-2 -27 4 -50.5t17.5 -41t27.5 -27.5t35 -10q90 0 176 151q18 33 37 75.5t36.5 89t33.5 94.5t27.5 91.5t18.5 79t7 58.5q0 43 -21 70.5t-55 29.5h-6q-45 0 -93 -44q-52 -46 -102 -134q-27 -50 -52 -108t-44.5 -116.5 t-32 -112.5t-14.5 -95z" />
<glyph unicode="e" horiz-adv-x="909" d="M10 274q0 84 23 167t64 157.5t96.5 138t121.5 110t138.5 73t146.5 26.5q47 0 86.5 -13t68 -37t44.5 -56.5t16 -71.5q0 -56 -28 -111t-82 -104q-39 -35 -78.5 -62t-88 -48t-109 -38t-140.5 -32q-6 -31 -9.5 -53.5t-3.5 -47.5q0 -83 33.5 -125.5t98.5 -42.5q33 0 61.5 9.5 t56.5 31t58 57.5t65 89l60 -35q-46 -76 -90.5 -130t-91.5 -88t-98 -49.5t-110 -15.5q-67 0 -123.5 22.5t-98 62.5t-64.5 95.5t-23 120.5zM303 438q44 14 76.5 27t58 27.5t46.5 31.5t42 39q50 51 75.5 114.5t25.5 131.5q0 70 -58 70q-74 0 -142 -113t-124 -328z" />
<glyph unicode="f" horiz-adv-x="682" d="M-346 -258q0 22 8.5 42t23 35.5t33 24.5t39.5 9q20 0 38.5 -8.5t33 -22.5t23 -32t8.5 -36q0 -34 -25 -69l-3.5 -7t-2.5 -6q-2 -4 -2 -6q0 -9 10.5 -15.5t26.5 -6.5q31 0 54.5 18t44.5 62t41 118.5t44 188.5l180 803h-149l18 86h150q22 77 41.5 133.5t40.5 100.5 t45.5 79.5t56.5 71.5q56 61 127 93t152 32q94 0 148 -44.5t54 -119.5q0 -48 -29 -78.5t-75 -30.5q-43 0 -71.5 28.5t-28.5 71.5q0 16 5 30.5t17 33.5q3 5 4.5 8.5t3.5 6.5q1 4 2 7q0 13 -9.5 20t-24.5 7q-110 0 -187 -305l-37 -145h189l-19 -86h-184q-29 -136 -50.5 -237 t-38.5 -177t-30.5 -131t-25.5 -99.5t-24 -83t-26 -79.5q-24 -71 -45 -125t-43 -95.5t-45 -73.5t-51 -59q-97 -94 -233 -94q-46 0 -83.5 11.5t-64 32.5t-41 51t-14.5 67z" />
<glyph unicode="g" d="M-106 -199q0 37 15 71.5t40 55.5q18 15 36.5 26t42.5 20.5t57 19t81 20.5q-68 23 -97.5 54.5t-29.5 81.5q0 28 7 49.5t28.5 42.5t60 46t101.5 60q-84 35 -124 91t-40 134t35.5 146t97 118.5t144 79.5t177.5 29q36 0 65.5 -3.5t56.5 -11.5t52.5 -21t51.5 -31h227v-115 h-137q6 -25 9 -43t3 -43q0 -93 -46 -168.5t-136 -126.5q-59 -34 -125.5 -52t-134.5 -18q-19 0 -33 2t-31 7q-12 5 -22.5 6.5t-18.5 1.5q-10 0 -20 -7t-18.5 -17.5t-13.5 -24t-5 -25.5q0 -23 27.5 -43.5t76.5 -34.5l109 -31q84 -24 142 -49t94 -55.5t52.5 -67.5t16.5 -84 q0 -68 -36 -124t-100.5 -97t-154.5 -63.5t-198 -22.5q-89 0 -160 15t-121 43.5t-77 68.5t-27 90zM72 -186q0 -36 17 -65.5t47 -50.5t71.5 -32.5t91.5 -11.5q118 0 182 36.5t64 104.5q0 40 -20.5 67.5t-63.5 49.5q-17 7 -51 20t-69.5 25t-65.5 21t-39 10q-6 1 -19.5 -5 t-29 -15t-31 -20.5t-25.5 -21.5q-31 -29 -45 -56t-14 -56zM309 498q0 -59 22 -90t64 -31q95 0 160 141q13 28 24 60t18.5 64t12 63t4.5 57q0 54 -26 87.5t-66 33.5q-77 0 -135 -101q-16 -29 -30.5 -65.5t-25 -74.5t-16.5 -75.5t-6 -68.5z" />
<glyph unicode="h" horiz-adv-x="1139" d="M-27 0l316 1161q9 34 12.5 53t3.5 33q0 35 -20 52.5t-64 17.5l-45 -2v55q62 5 114 11t101.5 13.5t100.5 16.5t110 21l-219 -852q76 108 134 178.5t107 112.5t95 58.5t98 16.5q72 0 114 -40.5t42 -112.5q0 -58 -62 -250l-118 -365q-5 -12 -6 -15.5t-1 -8.5q0 -11 11.5 -22 t23.5 -11q10 0 23 8.5t31 28.5t42.5 52.5t57.5 80.5l45 -31q-51 -79 -93 -132.5t-82 -85.5t-80 -46t-87 -14q-60 0 -97.5 33t-37.5 85q0 31 5.5 67.5t19.5 90t38 129.5t62 186q7 23 17 51.5t18 55t14 47.5t6 29q0 17 -13.5 30t-31.5 13q-81 0 -213 -193q-25 -37 -45.5 -71 t-39 -71.5t-36 -81t-36 -99t-40 -125t-47.5 -158.5h-248z" />
<glyph unicode="i" horiz-adv-x="569" d="M4 111q0 21 7 58.5t20 82.5l119 440q6 26 10 48t4 34q0 60 -94 60h-27v55q121 9 225.5 24t188.5 33l-187 -684q-3 -13 -6 -28.5t-6 -30.5t-4.5 -27.5t-1.5 -19.5q0 -13 9 -22t22 -9q23 0 56.5 31.5t74.5 91.5l28 41l45 -29q-54 -81 -96.5 -135t-82 -85.5t-78.5 -44.5 t-85 -13q-63 0 -102 35t-39 94zM268 1212q0 27 11 51.5t30 43.5t43 30t51 11q29 0 55 -11t45.5 -30.5t30.5 -45t11 -53.5t-11 -53t-30.5 -43.5t-45.5 -29.5t-55 -11q-28 0 -52.5 11t-43 30t-29 44.5t-10.5 55.5z" />
<glyph unicode="j" horiz-adv-x="569" d="M-387 -266q0 22 8 41.5t21.5 34.5t31.5 23.5t39 8.5t39.5 -8t32 -21.5t21.5 -31.5t8 -39q0 -16 -4 -28t-17 -29q-6 -10 -8 -13t-2 -8q0 -9 15 -16.5t34 -7.5q21 0 39 13t35 44t34 82.5t37 128.5l189 727q12 46 18 81.5t6 55.5q0 32 -20.5 47t-65.5 15h-41v55 q86 7 146.5 13.5t107 13t86.5 13.5t86 17l-233 -897q-122 -473 -428 -473q-48 0 -88 11.5t-68 32.5t-43.5 50t-15.5 64zM305 1212q0 27 11 51.5t30 43.5t43 30t51 11q29 0 55 -11t45.5 -30.5t30.5 -45t11 -53.5t-11 -53t-30.5 -43.5t-45.5 -29.5t-55 -11q-28 0 -52.5 11 t-43 30t-29 44.5t-10.5 55.5z" />
<glyph unicode="k" d="M-47 0l319 1161q10 34 13.5 52.5t3.5 33.5q0 70 -86 70l-43 -2v55q60 6 111.5 12.5t102 14t102 16t110.5 19.5l-252 -943q97 76 161.5 130t103.5 92t55 64t16 46q0 25 -22.5 34.5t-82.5 12.5v52h424v-52q-35 -5 -63 -13t-58 -25t-66.5 -45t-88.5 -72l-129 -113 q30 -150 50.5 -242t37.5 -143t33.5 -68.5t37.5 -17.5q15 0 28.5 6.5t28.5 22t32 40.5t38 62l45 -22q-38 -71 -72 -119.5t-67 -78.5t-67 -43t-72 -13q-48 0 -84 22.5t-65 75t-53.5 140t-49.5 218.5l-80 -55l-102 -385h-250z" />
<glyph unicode="l" horiz-adv-x="569" d="M4 104q0 18 5 49t14 73t22 93t29 109l153 541q15 56 27.5 104t21.5 85.5t14 63.5t5 38q0 27 -22 42t-64 15h-17t-26 -2v55q57 5 106.5 11t99 13t103 16.5t119.5 21.5l-297 -1072q-23 -83 -34 -133t-11 -71q0 -13 9 -22t22 -9t28 8.5t34 28t42.5 51t54.5 76.5l45 -29 q-53 -81 -95.5 -134.5t-82.5 -85.5t-79.5 -45t-86.5 -13q-63 0 -101 33.5t-38 88.5z" />
<glyph unicode="m" horiz-adv-x="1593" d="M-29 0l138 487q21 75 34.5 126t21.5 85t11.5 53.5t3.5 30.5q0 18 -9.5 28t-25.5 15.5t-35.5 7t-39.5 1.5v55q87 7 143.5 12t99.5 10.5t80.5 13t85.5 19.5l-131 -407q50 77 88 131.5t69 93.5t58 66t55 49q44 35 88.5 52t88.5 17q65 0 101 -37t36 -102q0 -21 -2.5 -42 t-8.5 -46t-16.5 -55t-25.5 -70q64 101 115.5 169t98.5 108.5t93 57.5t98 17q34 0 63 -11t50 -30t33 -46t12 -58q0 -40 -12 -96.5t-35 -122.5l-92 -273q-16 -51 -25 -79.5t-13 -43.5t-4.5 -21.5t-0.5 -14.5q0 -13 9 -21t23 -8q20 0 51 31t66 88q13 23 25 36l45 -26 q-45 -75 -84 -126.5t-77 -83t-78.5 -45t-88.5 -13.5q-66 0 -101.5 33t-35.5 96q0 22 5 55.5t14.5 74t23 87.5t30.5 96l93 268q6 20 10 36t4 26q0 17 -14.5 30t-32.5 13q-47 0 -105.5 -61t-123.5 -177q-19 -32 -33 -59t-27.5 -56t-26.5 -65.5t-30 -87.5t-39 -122t-51 -169 h-246l133 424q25 78 43 134t28.5 94.5t15.5 62.5t5 37q0 18 -10.5 31.5t-26.5 13.5q-11 0 -27 -7.5t-34 -20.5t-36.5 -31t-35.5 -38q-44 -52 -81 -113.5t-72.5 -143.5t-71 -190t-76.5 -253h-248z" />
<glyph unicode="n" horiz-adv-x="1139" d="M-12 0l114 418q49 173 72 259.5t23 104.5q0 29 -23.5 39.5t-87.5 12.5v55q43 1 94 6t105 12t108 16.5t103 20.5l-131 -405q51 76 86.5 126t62.5 85t50.5 60t51.5 52q42 40 95 62t110 22q73 0 111.5 -39t38.5 -114q0 -38 -14.5 -101t-38.5 -135l-74 -223 q-15 -43 -24.5 -73.5t-15.5 -51t-8.5 -33.5t-2.5 -20q0 -16 8 -25.5t20 -9.5q13 0 25.5 6.5t28.5 23.5t37.5 47.5t52.5 77.5l45 -26q-45 -75 -84 -126t-77.5 -82.5t-78.5 -45.5t-86 -14q-66 0 -102.5 32t-36.5 90q0 20 4.5 51t12 67t18 75t22.5 76l113 340q5 15 7.5 26.5 t2.5 16.5q0 17 -15.5 30t-35.5 13q-14 0 -32 -8t-37.5 -21.5t-38.5 -32t-34 -39.5q-47 -62 -86 -129t-73.5 -149.5t-67.5 -184.5t-69 -235h-248z" />
<glyph unicode="o" d="M-6 276q0 86 22.5 169.5t62.5 157.5t95.5 137t120.5 109t138 71.5t149 25.5q70 0 129 -23t102 -64t66.5 -98t23.5 -124q0 -86 -22 -169t-61.5 -157t-94 -136t-119 -107t-138 -70t-149.5 -25q-71 0 -130.5 23t-102.5 63.5t-67.5 96t-24.5 120.5zM238 160q0 -60 26.5 -93.5 t73.5 -33.5q56 0 102.5 46.5t91.5 145.5q25 55 48.5 128t40.5 148t27.5 145.5t10.5 121.5q0 56 -25.5 87.5t-70.5 31.5q-102 0 -184 -154q-18 -32 -35 -76.5t-32.5 -95t-29 -105t-23.5 -107.5t-15.5 -101.5t-5.5 -87.5z" />
<glyph unicode="p" d="M-246 -365q37 -1 60.5 4t39 21t27.5 46t27 81l205 795q21 80 33 132.5t12 67.5t-4.5 24t-16.5 14.5t-34 8.5t-56 5v55l395 57l-77 -235q45 64 85.5 108.5t79.5 72.5t78.5 41t83.5 13q51 0 91.5 -17.5t69.5 -49.5t44.5 -78t15.5 -103q0 -88 -22.5 -176.5t-62.5 -169 t-94 -150t-117 -120.5t-132 -80t-139 -29q-16 0 -29.5 2t-29 7t-34.5 13.5t-46 22.5q-3 -11 -5 -18.5t-4 -16t-5 -19.5t-9 -30q-15 -54 -25 -93t-16 -66.5t-9 -45t-3 -28.5q0 -18 6.5 -30.5t22 -20t41 -11t63.5 -4.5v-55h-510v55zM231 119q0 -31 23 -52.5t57 -21.5 q53 0 102 42t97 126q28 50 53 111t45 124t33 124t16 112q1 8 1 15q0 40 -18 67q-22 32 -62 35q-20 1 -42.5 -7.5t-45.5 -25.5t-45.5 -41.5t-41.5 -54.5q-11 -18 -21 -38t-20.5 -48t-23 -67t-29.5 -95q-21 -70 -35.5 -121.5t-24 -88t-14 -59.5t-4.5 -36z" />
<glyph unicode="q" d="M2 240q0 85 26.5 174.5t80.5 183.5q45 79 100 143.5t115 110t121.5 70t119.5 24.5q35 0 65 -12.5t46 -32.5q13 -17 20 -38t15 -64l30 121h224l-174 -623q-33 -109 -63 -212t-52.5 -185.5t-35.5 -137.5t-13 -69q0 -31 24 -44.5t80 -13.5h29v-55h-547v55q48 3 77.5 8.5 t49 19t32 37.5t25.5 64l129 437q-40 -63 -76 -106.5t-73 -70.5t-76.5 -39t-85.5 -12q-100 0 -156.5 71t-56.5 196zM258 238q0 -117 80 -117q93 0 180 151q27 48 53.5 114.5t47.5 136t34 133t13 104.5q0 43 -19 69.5t-53 28.5h-5q-41 0 -89 -42q-51 -45 -101 -132 q-32 -55 -57.5 -115.5t-44.5 -120t-29 -113.5t-10 -97z" />
<glyph unicode="r" horiz-adv-x="797" d="M-43 0q54 184 93.5 322.5t65 234t38 151t12.5 74.5q0 15 -4.5 24t-16.5 14.5t-34 8.5t-56 5v55q93 7 151.5 12.5t100.5 11.5t77 13.5t81 19.5l-135 -428q61 122 108.5 204.5t88 132t77.5 70.5t76 21q53 0 85 -36.5t32 -98.5q0 -32 -9 -59.5t-25 -47.5t-38 -31t-47 -11 q-26 0 -47.5 12.5t-44.5 38.5q-19 26 -33 26q-22 0 -56.5 -40.5t-76.5 -114.5q-21 -36 -38 -70.5t-33.5 -76.5t-35 -95.5t-41.5 -128.5l-67 -213h-248z" />
<glyph unicode="s" horiz-adv-x="797" d="M-39 -27l45 340l55 -6q40 -272 197 -272q25 0 46 8.5t37 23.5t25 35t9 43q0 39 -28 91.5t-87 121.5q-51 61 -83 104.5t-50 80t-24.5 70.5t-6.5 75q0 59 19.5 107t55.5 81.5t87 51.5t113 18q15 0 28.5 -1.5t27 -4.5t28.5 -8t34 -12q28 -11 43.5 -15t30.5 -4q12 0 19.5 1 t13.5 5.5t12 13t15 23.5h59l-47 -313l-55 4q-25 128 -67 186t-114 58q-49 0 -78.5 -29.5t-29.5 -79.5q0 -35 27.5 -83t87.5 -118q86 -100 125.5 -178t39.5 -147q0 -58 -23 -107.5t-63.5 -86t-96 -57t-120.5 -20.5q-32 0 -62 6.5t-67 18.5q-20 8 -36 12t-27 4 q-20 0 -36.5 -11t-23.5 -30h-55z" />
<glyph unicode="t" horiz-adv-x="569" d="M-23 115q0 28 13.5 89.5t36.5 141.5l139 488h-105v71q61 23 111.5 51.5t95.5 66t86 85t82 109.5h72l-80 -297h147v-86h-169l-68 -244q-56 -191 -83.5 -298t-27.5 -136q0 -13 10.5 -22t22.5 -9q51 0 156 164l45 -29q-51 -79 -93 -132.5t-81.5 -85.5t-79.5 -46t-86 -14 q-65 0 -104.5 36.5t-39.5 96.5z" />
<glyph unicode="u" horiz-adv-x="1139" d="M31 133q0 38 10.5 91t32.5 130l82 273q14 45 21 84.5t7 64.5q0 15 -4.5 25t-17 16.5t-35 10t-57.5 6.5v55q74 3 165 15t205 32q23 5 35.5 6.5t22.5 3.5l-193 -631q-11 -35 -17 -56t-9 -34.5t-4 -23t-1 -21.5q0 -51 43 -51q31 0 66.5 27t83.5 86q30 37 55 74t48 79 t44 92.5t43.5 113.5t47 141.5t53.5 177.5h241l-159 -549q-11 -35 -20.5 -69.5t-16.5 -63.5t-11 -51t-4 -31q0 -16 8.5 -25.5t20.5 -9.5q13 0 27.5 8t32.5 26t39.5 47t48.5 70l43 -26q-80 -137 -159 -200.5t-171 -63.5q-68 0 -100.5 29.5t-32.5 92.5q0 22 2.5 44.5t8 48.5 t15 58.5t23.5 74.5q-79 -111 -133.5 -179t-99 -105.5t-85 -50.5t-92.5 -13q-153 0 -153 151z" />
<glyph unicode="v" horiz-adv-x="909" d="M33 834v55q64 9 107.5 15.5t77.5 13t64 13t68 15.5q11 -41 19 -79.5t14.5 -81t11.5 -92t8.5 -112t6 -141t4.5 -178.5q76 87 125.5 148t79 104.5t41.5 74.5t12 58q0 17 -9 33.5t-32 42.5q-28 31 -38.5 54.5t-10.5 49.5q0 24 9 45.5t25 38t36.5 26t43.5 9.5 q25 0 47.5 -11.5t39.5 -30t27.5 -43.5t10.5 -52q0 -65 -31.5 -145.5t-93.5 -169.5q-42 -62 -84 -116t-95 -113t-123 -129t-167 -163h-53l8 279q2 31 2 54.5v29.5q0 83 -4 156.5t-11 134t-17.5 105t-22.5 69.5q-5 10 -12 16t-17.5 10t-26.5 5.5t-40 1.5z" />
<glyph unicode="w" horiz-adv-x="1366" d="M33 834v55q64 11 109.5 18.5t81 14t65 12t61.5 12.5q18 -66 30 -126.5t19.5 -126t12 -140.5t6.5 -170l319 563h56l65 -680q67 79 114 138t75.5 103t41.5 75.5t13 54.5q0 15 -9.5 36t-31.5 50q-23 32 -33 54.5t-10 45.5q0 25 9 47t25 39t37 27t44 10q25 0 47.5 -10.5 t39.5 -27.5t27 -40.5t10 -48.5q0 -129 -136.5 -337t-420.5 -509h-55l-47 584l-231 -407l-117 -177h-55q1 49 2 85t1 71t-1 76.5t-2 101.5q-3 107 -9.5 195.5t-16 154t-23 107t-29.5 53.5q-13 10 -29.5 13.5t-54.5 3.5z" />
<glyph unicode="x" d="M-94 94q0 25 8.5 46t23.5 36.5t35.5 24t44.5 8.5q20 0 39 -6.5t43 -20.5q16 -9 25 -12.5t18 -3.5q14 0 25.5 3.5t22.5 13t23.5 25.5t27.5 42l90 143l-62 316q-15 75 -40 106t-74 31q-14 0 -28.5 -0.5t-43.5 -3.5v55l342 49q15 -21 26 -43.5t21 -53.5t20.5 -75.5 t24.5 -109.5q61 85 105.5 140t81 86.5t69 43.5t68.5 12q24 0 45.5 -10.5t38 -27.5t26 -39.5t9.5 -47.5q0 -22 -9.5 -41.5t-25 -34.5t-36.5 -23.5t-44 -8.5q-17 0 -30.5 4t-35.5 18q-35 19 -51 19q-35 0 -75 -39.5t-95 -128.5q-8 -11 -10.5 -16t-7.5 -11l65 -319 q13 -60 30 -84.5t46 -24.5q14 0 26 4.5t26.5 17.5t34.5 37t50 62l43 -29q-47 -68 -87.5 -115.5t-77.5 -77.5t-72 -43.5t-72 -13.5q-38 0 -67.5 16.5t-53 54t-42.5 98t-36 149.5l-49 -80q-45 -74 -78.5 -120.5t-62.5 -72.5t-59 -35.5t-68 -9.5q-59 0 -95 33.5t-36 87.5z" />
<glyph unicode="y" horiz-adv-x="909" d="M-193 -297q0 22 8.5 42.5t23 36t33 25t38.5 9.5q28 0 62.5 -12.5t60.5 -30.5q14 -11 36 -20t33 -9q13 0 30 8t36 22t37.5 33.5t34.5 42.5q26 38 38.5 72.5t12.5 69.5q0 47 -25.5 194t-77.5 396q-45 219 -98 249q-11 7 -22 9t-39 2v55q50 4 90 9t75.5 11t69 13t70.5 16 q14 -36 30.5 -95t34 -133t35.5 -161t35 -178l25 -154q54 103 88.5 172.5t54.5 117t27.5 77t7.5 53.5q0 20 -10 35t-39 37q-19 14 -31 26t-19.5 24.5t-10.5 27.5t-3 34q0 23 9.5 44.5t25.5 37.5t37.5 25.5t44.5 9.5q25 0 48 -10.5t40.5 -28.5t28 -42t10.5 -50 q0 -52 -19.5 -125t-54 -158.5t-82 -180.5t-104 -191t-120.5 -189t-130 -174q-85 -103 -179.5 -160t-179.5 -57q-27 0 -50 9.5t-40 26t-27 39t-10 48.5z" />
<glyph unicode="z" horiz-adv-x="797" d="M-69 0v21l579 702h-297q-23 0 -41 -6.5t-33 -21t-28.5 -38.5t-26.5 -59l-57 6l88 316h639v-21l-589 -702h317q23 0 41 6.5t33 21t28.5 38.5t26.5 59l57 -6l-88 -316h-649z" />
<glyph unicode="{" horiz-adv-x="713" d="M10 510q69 15 115.5 33t78 45t52 65.5t35.5 94.5l94 366q24 84 60.5 139.5t95 89.5t144.5 48t208 14l-6 -25q-63 -11 -109.5 -30.5t-80 -49.5t-56 -73t-37.5 -101l-92 -350q-18 -65 -40 -109.5t-57 -74.5t-86 -48.5t-126 -33.5q57 -15 93.5 -29.5t57.5 -31.5t29 -40 t8 -55q0 -35 -15 -104t-44 -162q-29 -97 -45.5 -171t-16.5 -116q0 -35 9 -61.5t28.5 -45t51.5 -31.5t77 -21l-6 -25q-107 2 -178.5 12.5t-115 32t-61.5 56t-18 85.5q0 23 6 61t15.5 82.5t22.5 92t28 90.5q25 75 39 137.5t14 100.5q0 27 -9 48t-29.5 38t-53 31t-80.5 26z" />
<glyph unicode="|" horiz-adv-x="451" d="M111 -326v1706h180v-1706h-180z" />
<glyph unicode="}" horiz-adv-x="713" d="M-264 -383l6 25q63 11 109.5 30.5t80 49.5t56 72.5t37.5 101.5l92 350q18 65 40 109.5t56.5 74.5t86 48.5t126.5 33.5q-58 15 -94.5 29.5t-57.5 31.5t-28.5 40t-7.5 55q0 35 14 99.5t43 166.5q32 106 47.5 177t15.5 112q0 67 -38.5 103.5t-126.5 53.5l6 25 q72 -2 124.5 -6t90 -11.5t63.5 -19.5t45 -29q49 -42 49 -114q0 -24 -5.5 -62.5t-15.5 -83.5t-22.5 -93.5t-27.5 -92.5q-25 -75 -39.5 -137.5t-14.5 -100.5q0 -27 9 -48t29.5 -38t53.5 -31t80 -26q-68 -15 -114.5 -33.5t-78 -45.5t-52 -65.5t-35.5 -93.5l-94 -366 q-24 -84 -60.5 -139.5t-95.5 -89.5t-144.5 -48t-207.5 -14z" />
<glyph unicode="~" horiz-adv-x="1167" d="M111 506q51 90 110.5 131t136.5 41q28 0 53 -3.5t55.5 -12.5t71 -25.5t99.5 -42.5q37 -17 63 -27.5t44.5 -16.5t32.5 -8.5t28 -2.5q37 0 69 21t70 71l113 -99q-35 -49 -65.5 -82.5t-60.5 -53.5t-60.5 -29t-65.5 -9q-26 0 -49 3.5t-48 11.5t-53.5 21t-64.5 32 q-35 20 -65.5 33.5t-58 22t-53.5 12.5t-53 4q-22 0 -40 -4.5t-34.5 -14.5t-32.5 -26.5t-34 -40.5z" />
<glyph unicode="&#xa1;" horiz-adv-x="797" d="M285 -332q0 21 2.5 38.5t9 37.5t19 45t32.5 61q44 86 83 167.5t75 161t69.5 159.5t65.5 164l59 -17q-46 -242 -73 -421.5t-35 -303.5q-2 -33 -3.5 -55t-4 -37.5t-7 -28t-10.5 -26.5q-21 -45 -57 -69.5t-84 -24.5q-63 0 -102 40.5t-39 108.5zM606 801q0 31 12 57.5 t32.5 46t48 30.5t59.5 11t59 -11t46.5 -30t30.5 -46t11 -58q0 -32 -11.5 -60t-31.5 -49t-47.5 -33t-58.5 -12q-29 0 -56 12.5t-48 33.5t-33.5 49t-12.5 59z" />
<glyph unicode="&#xa2;" d="M86 283q0 82 23 163t63.5 155t96 137t120.5 109t136.5 72.5t144.5 26.5q14 0 26 -1.5t31 -4.5l84 240h72l-92 -260q108 -61 108 -162q0 -30 -10 -55.5t-28 -44.5t-42.5 -29.5t-52.5 -10.5q-42 0 -72 23l-188 -535q65 4 122 47t120 136l55 -37q-48 -69 -88.5 -116.5 t-79.5 -79t-81 -49t-93 -27.5l-96 -273h-70l94 266q-145 10 -224 90t-79 220zM346 301q0 -68 22 -112t70 -72l256 729v4q-3 29 -45 29q-48 0 -90.5 -36.5t-85.5 -113.5q-28 -49 -51 -105.5t-40 -113t-26.5 -110.5t-9.5 -99z" />
<glyph unicode="&#xa3;" d="M-66 154q0 40 14.5 72.5t40.5 56t62 36.5t80 13q16 0 30 -1.5t28.5 -4.5t30.5 -8.5t36 -14.5l39 332h-223l20 123h215q19 95 39 167t43.5 128.5t52 102t66.5 87.5q65 75 145 115.5t168 40.5q48 0 89 -14t71 -39t46.5 -59.5t16.5 -74.5q0 -29 -9.5 -54.5t-26 -44 t-39 -29.5t-49.5 -11q-23 0 -43 8t-34.5 22t-23 33t-8.5 42q0 15 2.5 33t5.5 36q6 22 6 39q0 19 -13.5 31t-35.5 12q-45 0 -76 -40t-47 -118l-80 -413h234l-21 -123h-235q-10 -45 -24.5 -92t-31.5 -92.5t-36 -87t-39 -74.5l-23 -35q45 -18 81.5 -30.5t67 -20.5t56.5 -11.5 t51 -3.5q37 0 64.5 6t48.5 21t38 39.5t34 62.5h51q-9 -44 -18.5 -78t-20.5 -61.5t-24 -50t-29 -43.5q-41 -51 -97.5 -80t-119.5 -29q-32 0 -62 6.5t-61 21.5t-65 38.5t-73 58.5q-41 -66 -87.5 -94.5t-112.5 -28.5q-41 0 -75 13t-58.5 36t-38 56t-13.5 72zM-4 143 q0 -46 32 -75t83 -29q46 0 74.5 35t45.5 110q-37 34 -67 48t-64 14q-48 0 -76 -28t-28 -75z" />
<glyph unicode="&#xa4;" d="M-53 188l200 201q-40 60 -57.5 117t-17.5 129q0 71 17.5 129.5t57.5 120.5l-200 200l119 115l196 -196q62 38 120.5 54.5t129.5 16.5q36 0 68 -4t62 -12.5t59.5 -22t60.5 -32.5l196 196l119 -115l-200 -200q21 -33 35 -63t23 -60t13 -61t4 -66q0 -72 -17.5 -131 t-57.5 -115l200 -201l-119 -118l-196 200q-65 -40 -123.5 -57.5t-126.5 -17.5t-126.5 17.5t-123.5 57.5l-196 -200zM252 635q0 -57 20 -107t55.5 -86.5t83 -58t101.5 -21.5q53 0 100 21.5t82.5 58t56.5 85.5t21 104q0 58 -20 108.5t-55.5 87.5t-83 58.5t-101.5 21.5 t-101.5 -21t-83 -57.5t-55.5 -86.5t-20 -107z" />
<glyph unicode="&#xa5;" d="M68 336l28 102h289l45 160h-291l29 102h256l-162 490q-15 39 -27.5 62t-29.5 36t-43 19.5t-68 11.5v51h574v-51q-44 -2 -73.5 -5.5t-47.5 -11t-25.5 -19.5t-7.5 -30q0 -29 12 -65l164 -483l277 397q16 23 26.5 40t16.5 30.5t8 26t2 26.5q0 27 -6.5 44.5t-22.5 28 t-43.5 15t-70.5 6.5v51h409v-51q-31 -6 -54.5 -15.5t-45 -25.5t-43 -40.5t-47.5 -59.5l-340 -478h276l-26 -102h-308l-43 -160h312l-29 -102h-311l-6 -23q-9 -34 -15.5 -60t-10.5 -46.5t-5.5 -36.5t-1.5 -31q0 -25 6.5 -41t24.5 -26t50.5 -14.5t84.5 -6.5v-51h-660v51 q59 4 96.5 11t61 23t37.5 43t28 71l39 137h-288z" />
<glyph unicode="&#xa6;" horiz-adv-x="451" d="M111 -326v682h180v-682h-180zM111 698v682h180v-682h-180z" />
<glyph unicode="&#xa7;" d="M74 -78q0 54 33 88.5t86 34.5q51 0 82.5 -28.5t31.5 -73.5q0 -31 -10 -51t-35 -42q-15 -12 -20.5 -20t-5.5 -16q0 -12 11.5 -22.5t30.5 -19t44 -13.5t51 -5q39 0 71.5 11.5t55.5 32t36 49t13 63.5q0 25 -6 48t-24.5 53.5t-52 74t-87.5 109.5l-135 163q-54 66 -79.5 127 t-25.5 127q0 54 16.5 101t45.5 82t67.5 55t83.5 20q20 0 50.5 -3.5t50.5 -8.5l4 6q-56 62 -84.5 129t-28.5 135q0 61 23 111.5t65 87t100.5 56.5t129.5 20q60 0 111 -15t88 -41.5t58 -63.5t21 -81q0 -27 -9 -50t-25 -39.5t-38 -26t-47 -9.5q-23 0 -43.5 8.5t-35.5 23.5 t-24 35.5t-9 43.5t10 40.5t35 37.5q28 20 28 34q0 12 -10 22.5t-26.5 18.5t-38 12.5t-45.5 4.5q-39 0 -71 -11t-55 -31t-36 -47.5t-13 -60.5q0 -24 7.5 -49.5t24 -55.5t43 -66t65.5 -81l141 -165q60 -70 91.5 -145.5t31.5 -147.5q0 -52 -19 -97.5t-52 -79.5t-76.5 -53.5 t-92.5 -19.5q-15 0 -29 1.5t-32 6.5l-4 -8q33 -42 56 -76.5t37.5 -66t21 -61.5t6.5 -62q0 -58 -26 -108t-71.5 -87t-107 -58.5t-131.5 -21.5q-63 0 -117.5 16.5t-94 45.5t-62.5 68.5t-23 84.5zM285 700q0 -32 16.5 -74.5t42.5 -80.5q20 -27 41.5 -54t42.5 -52t41 -45.5 t37 -35.5q35 -31 61 -43t58 -12q24 0 46 9.5t38.5 26t26 38t9.5 45.5q0 34 -17.5 77t-46 87t-65 86t-75 74.5t-75.5 52.5t-67 20q-24 0 -45 -9t-36.5 -25t-24 -38t-8.5 -47z" />
<glyph unicode="&#xa8;" horiz-adv-x="682" d="M80 1206q0 28 10.5 52.5t28 43t41.5 29t51 10.5q28 0 52.5 -10.5t43 -29t29 -43t10.5 -52.5q0 -27 -10.5 -50.5t-29 -41.5t-43 -28.5t-52.5 -10.5q-26 0 -50 11t-42 29t-28.5 41.5t-10.5 49.5zM510 1206q0 28 10.5 52.5t28 43t41.5 29t51 10.5q28 0 52.5 -10.5t43 -29 t29 -43t10.5 -52.5q0 -27 -10.5 -50.5t-29 -41.5t-43 -28.5t-52.5 -10.5q-26 0 -50 11t-42 29t-28.5 41.5t-10.5 49.5z" />
<glyph unicode="&#xa9;" horiz-adv-x="1530" d="M39 666q0 97 25 187t70.5 168.5t109.5 142.5t142 110t168 71t187 25t187 -25t168.5 -71t143 -110t110.5 -142.5t71 -168.5t25 -187t-25 -187t-71 -168.5t-110.5 -142.5t-143 -109.5t-168.5 -70.5t-187 -25t-187 25t-168 70.5t-142 109.5t-109.5 142.5t-70.5 168 t-25 187.5zM117 666q0 -130 49 -244t133.5 -198.5t198 -133.5t243.5 -49t244 49t199 133.5t134.5 198.5t49.5 244q0 86 -22.5 166.5t-63.5 150t-98 126.5t-126.5 97.5t-150 63t-166.5 22.5q-87 0 -166.5 -22.5t-149 -63t-126.5 -97.5t-97.5 -126.5t-62.5 -150t-22 -166.5z M340 563q-3 104 35.5 195.5t107 160t161.5 108.5t198 40q79 0 164 -25q12 -5 24 -6.5t19 -1.5q12 0 21 7t20 26h53l-60 -279l-65 11q3 14 3.5 23t0.5 22q-2 75 -40 120.5t-108 45.5q-35 0 -68.5 -13t-64.5 -36q-40 -33 -74 -82.5t-58.5 -107.5t-38 -121t-11.5 -122 q3 -86 48 -136t126 -50q28 0 55 4.5t52 15.5q19 8 35.5 17t33 22.5t35 31.5t41.5 44l51 -35q-15 -21 -27.5 -35.5t-24 -26t-23 -21t-25.5 -19.5q-106 -74 -240 -74q-78 0 -142.5 21.5t-111.5 60.5t-74 93.5t-28 121.5z" />
<glyph unicode="&#xaa;" horiz-adv-x="545" d="M-39 719v61h647v-61h-647zM33 975q0 49 15.5 100t42 98.5t62.5 89t77 73t84.5 49.5t86.5 18q41 0 63.5 -21.5t33.5 -70.5l22 73l156 9l-94 -287q-25 -74 -35 -116t-10 -66q0 -19 10 -19q11 0 33 19.5t51 54.5l10 12l27 -18q-59 -82 -106 -119t-93 -37q-37 0 -63.5 23.5 t-26.5 54.5q0 9 0.5 16.5t3 18.5t6.5 27t12 42q-28 -50 -54 -84.5t-53 -55.5t-55.5 -30.5t-62.5 -9.5q-32 0 -58.5 11.5t-45.5 32t-29 49t-10 63.5zM193 969q0 -23 14.5 -40.5t34.5 -17.5q31 0 65 33.5t66 93.5q15 28 28 63t23 70t16 66.5t6 52.5q0 23 -11 39.5t-29 18.5 t-41 -16t-46.5 -49t-46 -71t-40 -83t-28.5 -84.5t-11 -75.5z" />
<glyph unicode="&#xab;" d="M25 444v19l348 254q18 13 31.5 23t24.5 18.5t20.5 17t19.5 17.5q58 57 84 57q11 0 19 -7.5t8 -17.5q0 -32 -49 -97t-158 -177l-92 -100l81 -170q36 -75 52 -118.5t16 -66.5q0 -12 -8.5 -21t-22.5 -9q-8 0 -13.5 4t-16.5 16zM403 444v19l349 254q18 13 31.5 23t24.5 18.5 t20.5 17t19.5 17.5q58 57 84 57q11 0 18.5 -7.5t7.5 -17.5q0 -16 -12 -40t-37 -57.5t-64 -77t-93 -99.5l-93 -100l82 -170q35 -75 51.5 -118.5t16.5 -66.5q0 -12 -8.5 -21t-22.5 -9q-8 0 -13.5 4t-16.5 16z" />
<glyph unicode="&#xac;" horiz-adv-x="1167" d="M66 594v180h987v-434h-181v254h-806z" />
<glyph unicode="&#xad;" horiz-adv-x="682" d="M4 340l49 238h502l-47 -238h-504z" />
<glyph unicode="&#xae;" horiz-adv-x="1530" d="M39 666q0 97 25 187t70.5 168.5t109.5 142.5t142 110t168 71t187 25t187 -25t168.5 -71t143 -110t110.5 -142.5t71 -168.5t25 -187t-25 -187t-71 -168.5t-110.5 -142.5t-143 -109.5t-168.5 -70.5t-187 -25t-187 25t-168 70.5t-142 109.5t-109.5 142.5t-70.5 168 t-25 187.5zM117 666q0 -130 49 -244t133.5 -198.5t198 -133.5t243.5 -49t244 49t199 133.5t134.5 198.5t49.5 244q0 86 -22.5 166.5t-63.5 150t-98 126.5t-126.5 97.5t-150 63t-166.5 22.5q-87 0 -166.5 -22.5t-149 -63t-126.5 -97.5t-97.5 -126.5t-62.5 -150t-22 -166.5z M340 285v45q21 1 34.5 5.5t22.5 12.5t15 21.5t12 33.5l137 500q5 16 8.5 36t1.5 30q0 12 -8 18t-31 8q-12 3 -23.5 4.5t-14.5 1.5l-2 46h342q154 0 230 -41.5t79 -126.5q2 -48 -25 -91.5t-78 -72.5q-26 -17 -53 -26.5t-72 -18.5l107 -267q10 -24 18.5 -37.5t19.5 -21t28 -11 t45 -5.5v-43h-275l-147 383l-64 -224q-8 -26 -12 -45t-2 -30q0 -22 15 -29.5t63 -9.5v-45h-371zM721 707q46 2 76.5 7t50.5 17q38 22 59 67t21 99q-2 45 -27 70.5t-72 25.5q-23 0 -30.5 -9t-14.5 -32z" />
<glyph unicode="&#xaf;" horiz-adv-x="682" d="M78 1137l35 143h665l-33 -143h-667z" />
<glyph unicode="&#xb0;" horiz-adv-x="819" d="M170 1106q0 61 22.5 114.5t62.5 93.5t93 62.5t115 22.5q61 0 114.5 -22.5t93.5 -62.5t62.5 -93.5t22.5 -114.5q0 -62 -23 -115.5t-62.5 -93t-94 -62t-117.5 -22.5q-60 0 -112.5 23t-92 62.5t-62 93t-22.5 114.5zM254 1106q0 -45 16.5 -84.5t44.5 -69.5t66 -47.5t80 -17.5 q44 0 82.5 17t67 47t45 70t16.5 85t-17 84.5t-45.5 69.5t-66.5 47.5t-80 17.5q-43 0 -81 -17t-66.5 -47t-45 -70t-16.5 -85z" />
<glyph unicode="&#xb1;" horiz-adv-x="1167" d="M66 0v180h987v-180h-987zM66 602v180h403v404h180v-404h404v-180h-404v-260h-180v260h-403z" />
<glyph unicode="&#xb2;" horiz-adv-x="614" d="M4 561v33q77 73 125.5 119t80.5 77.5t53.5 53.5t43.5 47q39 43 66.5 78t45 64.5t25 55t7.5 50.5q0 63 -32 99t-89 36q-23 0 -42.5 -5t-39.5 -16.5t-41 -30.5t-45 -46l-37 22q56 103 127.5 152t167.5 49q47 0 87.5 -15.5t70 -43t46.5 -64.5t17 -80q0 -37 -10 -70.5 t-32.5 -68t-58.5 -70.5t-87 -78l-256 -207h182q38 0 64.5 4t46.5 14t37 28t36 47h33l-104 -234h-488z" />
<glyph unicode="&#xb3;" horiz-adv-x="614" d="M35 645q0 37 21 60.5t55 23.5q49 0 88 -57q16 -22 26.5 -34.5t19 -18.5t17.5 -7.5t23 -1.5q31 0 57.5 14.5t46 40t30.5 60t11 74.5q0 177 -205 186l4 29q127 23 187.5 65.5t60.5 108.5q0 49 -30 77.5t-82 28.5q-22 0 -40.5 -4t-36.5 -14t-37 -26.5t-40 -41.5l-29 27 q61 86 125.5 125t147.5 39q43 0 80 -12.5t64 -35t42.5 -53t15.5 -65.5q0 -29 -6 -50.5t-22.5 -41t-45 -40t-73.5 -46.5l-14 -8q29 -20 49 -39.5t33 -41t18.5 -46t5.5 -54.5q0 -67 -31 -125.5t-84 -102.5t-124 -69.5t-152 -25.5q-85 0 -130.5 26.5t-45.5 75.5z" />
<glyph unicode="&#xb4;" horiz-adv-x="682" d="M182 1022l250 268q28 29 48.5 49t37 32t30 17t27.5 5q41 0 70 -28t29 -69q0 -29 -17 -49.5t-63 -46.5l-311 -178h-101z" />
<glyph unicode="&#xb5;" horiz-adv-x="1180" d="M-113 -332q-2 42 21 91t55 109.5t67 134t58 163.5l184 733h256l-145 -577q-9 -31 -16 -64t-7 -68q2 -29 22.5 -50t51.5 -21q26 0 61 19.5t72 67t73.5 127t66.5 199.5l90 367h256l-150 -592q-4 -15 -10 -38t-11.5 -47.5t-9.5 -46.5t-4 -36q2 -20 17 -37.5t37 -17.5 q17 0 34 16.5t31.5 39t26 46.5t16.5 39l37 -20q-13 -47 -35 -89.5t-54 -74.5t-74 -51t-95 -19q-38 0 -69 12.5t-53.5 35t-35.5 53.5t-14 69l-2 78h-4q-27 -43 -58.5 -87t-70.5 -80t-87.5 -58.5t-109.5 -22.5q-49 0 -90 21t-65 67q-23 -65 -33 -133t-6 -137q1 -33 -0.5 -73 t-13.5 -75.5t-37.5 -59t-71.5 -23.5q-23 0 -41.5 9t-31.5 24.5t-20 35.5t-8 41z" />
<glyph unicode="&#xb6;" d="M-117 -395l15 51q38 3 64.5 6t45 7.5t30 10t19.5 13.5q6 5 11 14.5t11.5 28t15 48.5t20.5 77l174 667q-39 1 -68 4.5t-52 9.5t-42.5 15.5t-38.5 22.5q-46 32 -71 88.5t-25 126.5q0 58 12 121t32.5 122t49 110.5t61.5 86.5q126 135 400 135h604l-12 -51q-62 -5 -97 -10.5 t-54.5 -18t-29 -36t-20.5 -64.5l-346 -1329l-33 -150q0 -21 23 -33t80 -18l47 -4l-15 -51h-350l444 1714h-112l-445 -1714h-348zM154 807q0 -81 38 -139.5t109 -87.5l193 739q-50 -12 -87 -26.5t-65.5 -34.5t-51 -47.5t-44.5 -65.5q-21 -35 -38 -77.5t-29 -87t-18.5 -89 t-6.5 -84.5z" />
<glyph unicode="&#xb7;" horiz-adv-x="512" d="M59 512q0 35 13.5 66.5t37 55t55 37t66.5 13.5q36 0 67 -13.5t54.5 -37t37 -55t13.5 -66.5t-13.5 -66.5t-37 -55t-54.5 -37t-67 -13.5q-35 0 -66.5 13.5t-55 37t-37 55t-13.5 66.5z" />
<glyph unicode="&#xb8;" horiz-adv-x="682" d="M-164 -395l45 67q22 -10 40 -16.5t34 -10.5t31 -5.5t32 -1.5q53 0 84 22.5t31 60.5q0 36 -25 55t-71 19q-16 0 -29.5 -1.5t-32.5 -6.5l-26 25l135 198h90l-92 -137q15 3 26.5 4.5t26.5 1.5q40 0 74 -11t58.5 -30.5t38 -46.5t13.5 -59q0 -39 -19 -71.5t-53 -56t-80.5 -37 t-100.5 -13.5q-56 0 -109 11.5t-121 39.5z" />
<glyph unicode="&#xb9;" horiz-adv-x="614" d="M61 561v39q43 0 72 6.5t48.5 24.5t33.5 50t27 83q3 12 10 34t16 50l26.5 79.5t28.5 88.5t26.5 87.5t22 76t15 54t4.5 21.5q-9 43 -53 43q-11 0 -27.5 -1t-38.5 -3l-22 -2l4 43q55 9 100.5 16t87.5 14.5t84 15.5t90 18l-204 -676q-7 -19 -10 -37.5t-3 -32.5q0 -17 5 -27.5 t18 -16t36.5 -7.5t61.5 -2v-39h-459z" />
<glyph unicode="&#xba;" horiz-adv-x="614" d="M35 721v61h563v-61h-563zM115 1001q0 77 32 149.5t85.5 128.5t122.5 90t143 34q49 0 89.5 -15t68.5 -41.5t42.5 -63.5t12.5 -81q-4 -76 -37.5 -145.5t-86 -122t-119 -84t-136.5 -31.5q-47 0 -86.5 13.5t-68.5 37.5t-45.5 57.5t-16.5 73.5zM281 932q0 -34 15.5 -53 t41.5 -19q37 0 69 32t64 101q15 31 27.5 68.5t22.5 76t16 76.5t8 70q2 35 -11.5 55.5t-39.5 22.5q-31 2 -64 -23.5t-59 -74.5q-18 -31 -34 -74t-28.5 -89t-20 -90.5t-7.5 -78.5z" />
<glyph unicode="&#xbb;" d="M25 90q0 16 12 40t37 57.5t64 77.5t93 100l93 100l-82 170q-37 75 -52.5 117t-15.5 67q0 13 8.5 22t22.5 9q8 0 14 -4t17 -17l344 -358v-18l-349 -254l-31.5 -24.5t-24.5 -19.5t-20.5 -17t-19.5 -17q-58 -55 -84 -55q-11 0 -18.5 6.5t-7.5 17.5zM403 90q0 16 12 40 t37 57.5t64.5 77.5t93.5 100l92 100l-81 170q-38 75 -53 117t-15 67q0 13 8.5 22t22.5 9q8 0 13.5 -4t16.5 -17l344 -358v-18l-348 -254l-31.5 -24.5t-24.5 -19.5t-20.5 -17t-19.5 -17q-58 -55 -84 -55q-11 0 -19 6.5t-8 17.5z" />
<glyph unicode="&#xbc;" horiz-adv-x="1536" d="M14 561v39q43 0 72 6.5t48.5 24.5t33.5 50t94 284t80 260q2 17 -14 30t-37 13q-11 0 -27.5 -1t-38.5 -3l-22 -2l4 43q55 9 184.5 44.5t177.5 49.5l-204 -676q-6 -19 -9.5 -37.5t-3.5 -32.5q0 -17 5 -27.5t18 -16t36.5 -7.5t61.5 -2v-39h-459zM279 -29l890 1428h119 l-891 -1428h-118zM780 180l33 137l569 523h95l-160 -535h92l-35 -125h-90l-57 -180h-176l55 180h-326zM870 305h271l106 348z" />
<glyph unicode="&#xbd;" horiz-adv-x="1536" d="M-19 561v39q43 0 72 6.5t48.5 24.5t33.5 50t94 284t80 260q2 17 -14 30t-37 13q-11 0 -27.5 -1t-38.5 -3l-22 -2l4 43q55 9 184.5 44.5t177.5 49.5l-204 -676q-6 -19 -9.5 -37.5t-3.5 -32.5q0 -17 5 -27.5t18 -16t36.5 -7.5t61.5 -2v-39h-459zM248 -29l891 1428h118 l-890 -1428h-119zM844 0v33q77 73 125.5 119t80.5 77.5t53 53.5t44 47q39 43 66 77.5t44.5 64.5t25 55.5t7.5 50.5q0 63 -32 99t-89 36q-22 0 -42 -5t-39.5 -16.5t-40.5 -30.5t-46 -47l-36 23q55 103 127 152t168 49q46 0 86.5 -15.5t70.5 -43t47 -64.5t17 -80 q0 -37 -10 -70.5t-32.5 -68t-58.5 -70.5t-88 -78l-256 -207h183q38 0 64.5 4t46.5 14t37 28t36 46h33l-105 -233h-487z" />
<glyph unicode="&#xbe;" horiz-adv-x="1536" d="M14 645q0 37 21 60.5t55 23.5q50 0 88 -57q16 -22 26.5 -34.5t19 -18.5t17.5 -7.5t23 -1.5q31 0 57.5 14.5t46 39.5t31 59.5t11.5 73.5q0 91 -50 137t-155 51l4 29q127 23 187.5 65.5t60.5 108.5q0 49 -30 77.5t-83 28.5q-21 0 -40 -4t-37 -14t-36.5 -26.5t-40.5 -41.5 l-28 27q61 86 126 125t146 39q43 0 80 -12.5t64.5 -35t43 -53t15.5 -65.5q0 -29 -6.5 -50.5t-23 -41.5t-45 -40.5t-73.5 -45.5l-14 -8q29 -20 49.5 -39.5t33 -41t18.5 -46t6 -54.5q0 -67 -31 -125.5t-84 -102.5t-124.5 -69.5t-152.5 -25.5q-85 0 -130.5 26.5t-45.5 75.5z M289 -29l891 1428h118l-890 -1428h-119zM791 180l32 137l570 523h94l-160 -535h92l-35 -125h-90l-57 -180h-176l55 180h-325zM881 305h270l106 348z" />
<glyph unicode="&#xbf;" d="M307 -186q0 48 14.5 92t45.5 86.5t80 84.5t118 87l135 88q29 19 51 39t41 47t37 64.5t39 91.5l60 -15q-3 -42 -13 -81.5t-27.5 -79t-43.5 -80t-62 -84.5l-84 -105q-68 -85 -99.5 -158t-31.5 -147q0 -75 38 -118.5t104 -43.5q24 0 47 6.5t41 17t28.5 25t10.5 29.5 q0 16 -23 45q-20 26 -28.5 47.5t-8.5 44.5q0 25 9.5 47.5t26.5 39.5t40 26.5t49 9.5q27 0 50 -10.5t39.5 -29t26 -43.5t9.5 -54q0 -58 -26.5 -106.5t-74 -83.5t-113.5 -54.5t-144 -19.5q-81 0 -148 21.5t-114 60t-73 93t-26 120.5zM805 795q0 32 12 59.5t32.5 48t48.5 32 t60 11.5t59.5 -11.5t47.5 -32t31.5 -48t11.5 -59.5t-11.5 -60t-32.5 -48.5t-49 -32t-61 -11.5q-31 0 -58 12t-47.5 33t-32 48.5t-11.5 58.5z" />
<glyph unicode="&#xc0;" horiz-adv-x="1366" d="M-137 0v51q28 6 48.5 15.5t39.5 25t38 40.5t44 63l762 1204h51l196 -1172q10 -58 19 -91.5t26.5 -51t46.5 -23.5t80 -10v-51h-622v51q49 4 80.5 11.5t49.5 21t25 35t7 53.5q0 22 -3.5 55t-13.5 92q-5 20 -8 46.5t-6 60.5h-440l-121 -209q-31 -52 -31 -94q0 -37 31 -54.5 t102 -17.5v-51h-401zM330 508h379l-76 498zM640.5 1651q-9.5 16 2.5 39q9 15 25 29t36.5 24.5t43 17t43.5 6.5q30 0 54.5 -17.5t55.5 -63.5l154 -218h-109l-258 146q-38 21 -47.5 37z" />
<glyph unicode="&#xc1;" horiz-adv-x="1366" d="M-137 0v51q28 6 48.5 15.5t39.5 25t38 40.5t44 63l762 1204h51l196 -1172q10 -58 19 -91.5t26.5 -51t46.5 -23.5t80 -10v-51h-622v51q49 4 80.5 11.5t49.5 21t25 35t7 53.5q0 22 -3.5 55t-13.5 92q-5 20 -8 46.5t-6 60.5h-440l-121 -209q-31 -52 -31 -94q0 -37 31 -54.5 t102 -17.5v-51h-401zM330 508h379l-76 498zM623 1468l270 218q28 23 50.5 38.5t40.5 25t34 13.5t31 4q21 0 39.5 -6.5t33 -17t23 -24.5t8.5 -29q0 -23 -17.5 -39t-68.5 -37l-336 -146h-108z" />
<glyph unicode="&#xc2;" horiz-adv-x="1366" d="M-137 0v51q28 6 48.5 15.5t39.5 25t38 40.5t44 63l762 1204h51l196 -1172q10 -58 19 -91.5t26.5 -51t46.5 -23.5t80 -10v-51h-622v51q49 4 80.5 11.5t49.5 21t25 35t7 53.5q0 22 -3.5 55t-13.5 92q-5 20 -8 46.5t-6 60.5h-440l-121 -209q-31 -52 -31 -94q0 -37 31 -54.5 t102 -17.5v-51h-401zM330 508h379l-76 498zM479 1475l352 288h179l192 -288h-112l-197 157l-289 -157h-125z" />
<glyph unicode="&#xc3;" horiz-adv-x="1366" d="M-137 0v51q28 6 48.5 15.5t39.5 25t38 40.5t44 63l762 1204h51l196 -1172q10 -58 19 -91.5t26.5 -51t46.5 -23.5t80 -10v-51h-622v51q49 4 80.5 11.5t49.5 21t25 35t7 53.5q0 22 -3.5 55t-13.5 92q-5 20 -8 46.5t-6 60.5h-440l-121 -209q-31 -52 -31 -94q0 -37 31 -54.5 t102 -17.5v-51h-401zM330 508h379l-76 498zM512 1499q10 55 32 100t53 76.5t70 48.5t83 17q74 0 198 -53q42 -17 67 -25t44 -8q18 0 32 4t26.5 14t23.5 26.5t22 41.5h84q-34 -129 -91 -186.5t-148 -57.5q-15 0 -27 1t-25.5 4t-28.5 8t-36 14l-121 47q-43 16 -78 16 q-34 0 -56 -19t-42 -69h-82z" />
<glyph unicode="&#xc4;" horiz-adv-x="1366" d="M-137 0v51q28 6 48.5 15.5t39.5 25t38 40.5t44 63l762 1204h51l196 -1172q10 -58 19 -91.5t26.5 -51t46.5 -23.5t80 -10v-51h-622v51q49 4 80.5 11.5t49.5 21t25 35t7 53.5q0 22 -3.5 55t-13.5 92q-5 20 -8 46.5t-6 60.5h-440l-121 -209q-31 -52 -31 -94q0 -37 31 -54.5 t102 -17.5v-51h-401zM330 508h379l-76 498zM530 1616q0 28 10.5 52.5t28.5 43t42 29t51 10.5t51.5 -10.5t43 -29t29.5 -43t11 -52.5q0 -27 -11 -51t-29.5 -41.5t-43 -28t-51.5 -10.5q-26 0 -50 10.5t-42 28.5t-29 42t-11 50zM961 1616q0 28 10.5 52.5t28 43t41.5 29t51 10.5 t51.5 -10.5t43 -29t29.5 -43t11 -52.5q0 -27 -11 -51t-29.5 -41.5t-43 -28t-51.5 -10.5q-26 0 -50 10.5t-42 28.5t-28.5 42t-10.5 50z" />
<glyph unicode="&#xc5;" horiz-adv-x="1366" d="M-137 0v51q28 6 48.5 15.5t39.5 25t38 40.5t44 63l762 1204h51l196 -1172q10 -58 19 -91.5t26.5 -51t46.5 -23.5t80 -10v-51h-622v51q49 4 80.5 11.5t49.5 21t25 35t7 53.5q0 22 -3.5 55t-13.5 92q-5 20 -8 46.5t-6 60.5h-440l-121 -209q-31 -52 -31 -94q0 -37 31 -54.5 t102 -17.5v-51h-401zM330 508h379l-76 498zM672 1661q0 44 17.5 83t47.5 68.5t69.5 46.5t84.5 17t84.5 -17t69 -46.5t46.5 -69t17 -84.5t-17 -85t-47 -70t-70 -47t-85 -17t-85 17t-69 47t-46 70.5t-17 86.5zM770 1657q0 -25 9.5 -46.5t25 -37.5t37 -25.5t45.5 -9.5 q25 0 47.5 9.5t39 25t26.5 37t10 45.5q0 25 -10 47.5t-26.5 39t-39 26.5t-47.5 10q-24 0 -45.5 -10t-37 -26.5t-25 -38.5t-9.5 -46z" />
<glyph unicode="&#xc6;" horiz-adv-x="1933" d="M-131 0v51q26 3 37.5 7t23.5 12q4 1 12 8.5t21.5 23.5t34.5 42t51 65l750 967q18 24 29.5 48.5t11.5 41.5q0 15 -7 24.5t-26 15.5t-51 10t-82 7v47h1206l-92 -389l-49 10l-4 82q-14 232 -332 232q-32 0 -53 -2.5t-34.5 -10t-21 -20t-12.5 -33.5l-133 -481h20h19 q78 0 132.5 9t94 33.5t70 66.5t61.5 108l53 -8l-149 -559l-51 10q2 15 2 23t2 18q2 21 2 31v22q0 51 -10.5 83.5t-40.5 52t-83 29.5t-138 15l-129 -493q-11 -39 -11 -58q0 -40 27 -57.5t92 -17.5q113 0 207 25t160 73q28 20 52.5 41.5t48.5 50t50 65.5t58 87l53 -7 l-121 -401h-1079v51q40 6 65 14t42 23.5t28.5 41t23.5 67.5l95 325h-394l-233 -321q-16 -20 -23.5 -41t-7.5 -39q0 -17 6.5 -29t22 -20t40.5 -13t62 -8v-51h-399zM461 602h354l189 682h-25z" />
<glyph unicode="&#xc7;" horiz-adv-x="1366" d="M66 494q0 124 30 240t85 217t131.5 184t169 142.5t199 92.5t220.5 33q63 0 131 -10.5t137 -32.5q23 -8 44.5 -12.5t33.5 -4.5q23 0 39.5 13t38.5 47h61l-104 -479l-65 12q3 20 4.5 36t1.5 36q0 75 -18.5 135t-53.5 101.5t-85 64t-112 22.5q-65 0 -126.5 -25t-118.5 -73 q-69 -61 -129 -153t-104.5 -200t-69.5 -224.5t-25 -227.5q0 -84 21 -150t60.5 -111.5t96.5 -70t129 -24.5q48 0 94.5 9t89.5 28q32 13 60 30t56.5 40.5t60 56t69.5 77.5l62 -45q-25 -34 -44.5 -58.5t-38 -44t-37 -36t-40.5 -33.5q-177 -133 -397 -133q-62 0 -129 12 l-70 -102q15 3 26.5 4.5t26.5 1.5q40 0 74 -11t58.5 -30.5t38.5 -46.5t14 -59q0 -39 -19.5 -71.5t-53.5 -56t-80.5 -37t-100.5 -13.5q-56 0 -110 11.5t-120 39.5l45 67q22 -10 39.5 -16.5t33.5 -10.5t31.5 -5.5t32.5 -1.5q53 0 84 22.5t31 60.5q0 36 -25 55t-71 19 q-16 0 -29.5 -1.5t-32.5 -6.5l-26 25l125 184q-168 56 -259 185t-91 313z" />
<glyph unicode="&#xc8;" horiz-adv-x="1366" d="M-55 0v51q40 6 66 15t43.5 24.5t30 41.5t24.5 67l251 919q10 35 15.5 68.5t5.5 56.5q0 31 -19 46.5t-67 21.5l-64 8v51h1106l-88 -389l-55 10q0 48 -3 82.5t-10 60.5t-18.5 46t-29.5 39q-42 42 -122.5 64t-193.5 22q-32 0 -53 -4t-35 -14.5t-23.5 -28t-17.5 -44.5 l-125 -456q102 -1 166.5 6t109 29.5t76.5 66t68 115.5l57 -8l-151 -559l-58 10q5 29 7 48.5t2 41.5q0 53 -13.5 87.5t-47 55.5t-90.5 30t-144 11l-115 -428q-31 -67 -31 -129q0 -37 29.5 -53t95.5 -16q137 0 244 29.5t195 94.5q28 21 51 41.5t44 45.5t43 56.5t48 74.5 l51 -11l-121 -397h-1134zM705.5 1651q-9.5 16 3.5 39q8 15 24.5 29t36.5 24.5t42.5 17t43.5 6.5q31 0 55.5 -17.5t55.5 -63.5l153 -218h-108l-258 146q-39 21 -48.5 37z" />
<glyph unicode="&#xc9;" horiz-adv-x="1366" d="M-55 0v51q40 6 66 15t43.5 24.5t30 41.5t24.5 67l251 919q10 35 15.5 68.5t5.5 56.5q0 31 -19 46.5t-67 21.5l-64 8v51h1106l-88 -389l-55 10q0 48 -3 82.5t-10 60.5t-18.5 46t-29.5 39q-42 42 -122.5 64t-193.5 22q-32 0 -53 -4t-35 -14.5t-23.5 -28t-17.5 -44.5 l-125 -456q102 -1 166.5 6t109 29.5t76.5 66t68 115.5l57 -8l-151 -559l-58 10q5 29 7 48.5t2 41.5q0 53 -13.5 87.5t-47 55.5t-90.5 30t-144 11l-115 -428q-31 -67 -31 -129q0 -37 29.5 -53t95.5 -16q137 0 244 29.5t195 94.5q28 21 51 41.5t44 45.5t43 56.5t48 74.5 l51 -11l-121 -397h-1134zM688 1468l270 218q28 23 50.5 38.5t40.5 25t34 13.5t31 4q21 0 40 -6.5t33.5 -17t23 -24.5t8.5 -29q0 -23 -18 -39t-68 -37l-336 -146h-109z" />
<glyph unicode="&#xca;" horiz-adv-x="1366" d="M-55 0v51q40 6 66 15t43.5 24.5t30 41.5t24.5 67l251 919q10 35 15.5 68.5t5.5 56.5q0 31 -19 46.5t-67 21.5l-64 8v51h1106l-88 -389l-55 10q0 48 -3 82.5t-10 60.5t-18.5 46t-29.5 39q-42 42 -122.5 64t-193.5 22q-32 0 -53 -4t-35 -14.5t-23.5 -28t-17.5 -44.5 l-125 -456q102 -1 166.5 6t109 29.5t76.5 66t68 115.5l57 -8l-151 -559l-58 10q5 29 7 48.5t2 41.5q0 53 -13.5 87.5t-47 55.5t-90.5 30t-144 11l-115 -428q-31 -67 -31 -129q0 -37 29.5 -53t95.5 -16q137 0 244 29.5t195 94.5q28 21 51 41.5t44 45.5t43 56.5t48 74.5 l51 -11l-121 -397h-1134zM545 1475l352 288h178l193 -288h-113l-197 157l-288 -157h-125z" />
<glyph unicode="&#xcb;" horiz-adv-x="1366" d="M-55 0v51q40 6 66 15t43.5 24.5t30 41.5t24.5 67l251 919q10 35 15.5 68.5t5.5 56.5q0 31 -19 46.5t-67 21.5l-64 8v51h1106l-88 -389l-55 10q0 48 -3 82.5t-10 60.5t-18.5 46t-29.5 39q-42 42 -122.5 64t-193.5 22q-32 0 -53 -4t-35 -14.5t-23.5 -28t-17.5 -44.5 l-125 -456q102 -1 166.5 6t109 29.5t76.5 66t68 115.5l57 -8l-151 -559l-58 10q5 29 7 48.5t2 41.5q0 53 -13.5 87.5t-47 55.5t-90.5 30t-144 11l-115 -428q-31 -67 -31 -129q0 -37 29.5 -53t95.5 -16q137 0 244 29.5t195 94.5q28 21 51 41.5t44 45.5t43 56.5t48 74.5 l51 -11l-121 -397h-1134zM596 1616q0 28 10.5 52.5t28 43t41.5 29t51 10.5q28 0 52.5 -10.5t43 -29t29 -43t10.5 -52.5q0 -27 -10.5 -51t-29 -41.5t-43 -28t-52.5 -10.5q-26 0 -50 10.5t-42 28.5t-28.5 42t-10.5 50zM1026 1616q0 28 10.5 52.5t28 43t41.5 29t51 10.5 q28 0 52.5 -10.5t43 -29t29 -43t10.5 -52.5q0 -27 -10.5 -51t-29 -41.5t-43 -28t-52.5 -10.5q-26 0 -50 10.5t-42 28.5t-28.5 42t-10.5 50z" />
<glyph unicode="&#xcc;" horiz-adv-x="797" d="M-66 0v51q38 4 64 13t44 25.5t31 43t25 66.5l252 919q4 15 7.5 33t6.5 35.5t5 32.5t2 24q0 31 -18 45t-66 21q-17 3 -33.5 5.5t-32.5 4.5v51h610v-51q-39 -5 -65.5 -13t-45 -24.5t-31.5 -43t-25 -67.5l-234 -860q-11 -38 -18 -66t-11.5 -49t-6 -36t-1.5 -27 q0 -21 6.5 -36t23.5 -24.5t45.5 -14.5t72.5 -7v-51h-607zM394.5 1651q-9.5 16 2.5 39q9 15 25 29t36.5 24.5t43 17t43.5 6.5q31 0 55 -17.5t55 -63.5l154 -218h-109l-258 146q-38 21 -47.5 37z" />
<glyph unicode="&#xcd;" horiz-adv-x="797" d="M-66 0v51q38 4 64 13t44 25.5t31 43t25 66.5l252 919q4 15 7.5 33t6.5 35.5t5 32.5t2 24q0 31 -18 45t-66 21q-17 3 -33.5 5.5t-32.5 4.5v51h610v-51q-39 -5 -65.5 -13t-45 -24.5t-31.5 -43t-25 -67.5l-234 -860q-11 -38 -18 -66t-11.5 -49t-6 -36t-1.5 -27 q0 -21 6.5 -36t23.5 -24.5t45.5 -14.5t72.5 -7v-51h-607zM377 1468l270 218q28 23 50.5 38.5t40.5 25t34 13.5t31 4q21 0 39.5 -6.5t33 -17t23 -24.5t8.5 -29q0 -23 -17.5 -39t-68.5 -37l-336 -146h-108z" />
<glyph unicode="&#xce;" horiz-adv-x="797" d="M-66 0v51q38 4 64 13t44 25.5t31 43t25 66.5l252 919q4 15 7.5 33t6.5 35.5t5 32.5t2 24q0 31 -18 45t-66 21q-17 3 -33.5 5.5t-32.5 4.5v51h610v-51q-39 -5 -65.5 -13t-45 -24.5t-31.5 -43t-25 -67.5l-234 -860q-11 -38 -18 -66t-11.5 -49t-6 -36t-1.5 -27 q0 -21 6.5 -36t23.5 -24.5t45.5 -14.5t72.5 -7v-51h-607zM233 1475l353 288h178l192 -288h-112l-197 157l-289 -157h-125z" />
<glyph unicode="&#xcf;" horiz-adv-x="797" d="M-66 0v51q38 4 64 13t44 25.5t31 43t25 66.5l252 919q4 15 7.5 33t6.5 35.5t5 32.5t2 24q0 31 -18 45t-66 21q-17 3 -33.5 5.5t-32.5 4.5v51h610v-51q-39 -5 -65.5 -13t-45 -24.5t-31.5 -43t-25 -67.5l-234 -860q-11 -38 -18 -66t-11.5 -49t-6 -36t-1.5 -27 q0 -21 6.5 -36t23.5 -24.5t45.5 -14.5t72.5 -7v-51h-607zM285 1616q0 28 10.5 52.5t28 43t41.5 29t51 10.5t51.5 -10.5t43 -29t29.5 -43t11 -52.5q0 -27 -11 -51t-29.5 -41.5t-43 -28t-51.5 -10.5q-26 0 -50 10.5t-42 28.5t-28.5 42t-10.5 50zM715 1616q0 28 10.5 52.5 t28 43t41.5 29t51 10.5q28 0 52.5 -10.5t43 -29t29 -43t10.5 -52.5q0 -27 -10.5 -51t-29 -41.5t-43 -28t-52.5 -10.5q-26 0 -50 10.5t-42 28.5t-28.5 42t-10.5 50z" />
<glyph unicode="&#xd0;" horiz-adv-x="1479" d="M-63 0v51q37 4 62.5 13t44.5 26t32 43.5t24 65.5l129 475h-209l25 90h209l94 348q14 51 19.5 78t5.5 43q0 37 -18.5 53t-67.5 23l-64 10v51h594q145 0 259.5 -38t194 -110t121.5 -176t42 -235q0 -117 -31 -222.5t-88.5 -195.5t-139.5 -162.5t-183.5 -124t-220 -79 t-249.5 -27.5h-585zM393 139q0 -37 26 -53t85 -16q149 0 260.5 58.5t196.5 182.5q40 59 71.5 132.5t54 154.5t34.5 167t12 171q0 189 -83.5 280t-254.5 91q-51 0 -76.5 -17.5t-36.5 -60.5l-125 -465h250l-25 -90h-250l-112 -416l-2 -8q-14 -42 -19.5 -67t-5.5 -44z" />
<glyph unicode="&#xd1;" horiz-adv-x="1479" d="M-55 0v51q42 9 68.5 21t47 43.5t41 90t50.5 159.5l245 841q-15 34 -27.5 54.5t-30 32t-44 17t-68.5 9.5v51h400l440 -952l164 588q17 63 27 113t10 79t-8.5 50.5t-28 35.5t-51 22.5t-76.5 12.5v51h428v-51q-30 -7 -51.5 -14t-38 -19t-29.5 -32t-26.5 -52.5t-28.5 -80.5 t-35 -115l-293 -1037h-57l-527 1125l-202 -729q-19 -65 -28 -114.5t-9 -78.5q0 -30 8.5 -51.5t28 -35.5t51 -22t76.5 -12v-51h-426zM631 1499q10 55 32 100t53 76.5t69.5 48.5t82.5 17q39 0 87.5 -13t111.5 -40q42 -17 67 -25t44 -8q35 0 58 18t46 68h84 q-34 -129 -91 -186.5t-149 -57.5q-15 0 -27 1t-25 4t-28 8t-36 14l-121 47q-43 16 -78 16q-34 0 -56 -19t-42 -69h-82z" />
<glyph unicode="&#xd2;" horiz-adv-x="1479" d="M55 453q0 109 32.5 223t90.5 221t138.5 200t175.5 160q103 73 210.5 109.5t217.5 36.5q106 0 197 -35.5t157 -99t103.5 -150t37.5 -188.5q0 -114 -31.5 -231t-89 -225t-138 -202t-177.5 -163q-100 -73 -211.5 -109.5t-228.5 -36.5q-108 0 -197.5 35.5t-153 100 t-98.5 154.5t-35 200zM350 281q0 -58 14.5 -104t41.5 -78t66 -49t87 -17q85 0 159 50t146 159q33 51 65 116.5t60.5 139.5t52.5 153t41.5 156.5t27 149.5t9.5 133q0 54 -15 99t-42.5 77t-65.5 49.5t-84 17.5q-104 0 -191 -71t-167 -220q-27 -50 -52 -111.5t-48 -129.5 t-42 -139t-33 -139t-22 -130t-8 -112zM751 1651q-10 16 3 39q8 15 24.5 29t36.5 24.5t42.5 17t43.5 6.5q31 0 55.5 -17.5t55.5 -63.5l153 -218h-108l-258 146q-38 21 -48 37z" />
<glyph unicode="&#xd3;" horiz-adv-x="1479" d="M55 453q0 109 32.5 223t90.5 221t138.5 200t175.5 160q103 73 210.5 109.5t217.5 36.5q106 0 197 -35.5t157 -99t103.5 -150t37.5 -188.5q0 -114 -31.5 -231t-89 -225t-138 -202t-177.5 -163q-100 -73 -211.5 -109.5t-228.5 -36.5q-108 0 -197.5 35.5t-153 100 t-98.5 154.5t-35 200zM350 281q0 -58 14.5 -104t41.5 -78t66 -49t87 -17q85 0 159 50t146 159q33 51 65 116.5t60.5 139.5t52.5 153t41.5 156.5t27 149.5t9.5 133q0 54 -15 99t-42.5 77t-65.5 49.5t-84 17.5q-104 0 -191 -71t-167 -220q-27 -50 -52 -111.5t-48 -129.5 t-42 -139t-33 -139t-22 -130t-8 -112zM733 1468l271 218q28 23 50 38.5t40 25t34 13.5t31 4q21 0 40 -6.5t33.5 -17t23 -24.5t8.5 -29q0 -23 -18 -39t-68 -37l-336 -146h-109z" />
<glyph unicode="&#xd4;" horiz-adv-x="1479" d="M55 453q0 109 32.5 223t90.5 221t138.5 200t175.5 160q103 73 210.5 109.5t217.5 36.5q106 0 197 -35.5t157 -99t103.5 -150t37.5 -188.5q0 -114 -31.5 -231t-89 -225t-138 -202t-177.5 -163q-100 -73 -211.5 -109.5t-228.5 -36.5q-108 0 -197.5 35.5t-153 100 t-98.5 154.5t-35 200zM350 281q0 -58 14.5 -104t41.5 -78t66 -49t87 -17q85 0 159 50t146 159q33 51 65 116.5t60.5 139.5t52.5 153t41.5 156.5t27 149.5t9.5 133q0 54 -15 99t-42.5 77t-65.5 49.5t-84 17.5q-104 0 -191 -71t-167 -220q-27 -50 -52 -111.5t-48 -129.5 t-42 -139t-33 -139t-22 -130t-8 -112zM590 1475l352 288h178l193 -288h-113l-196 157l-289 -157h-125z" />
<glyph unicode="&#xd5;" horiz-adv-x="1479" d="M55 453q0 109 32.5 223t90.5 221t138.5 200t175.5 160q103 73 210.5 109.5t217.5 36.5q106 0 197 -35.5t157 -99t103.5 -150t37.5 -188.5q0 -114 -31.5 -231t-89 -225t-138 -202t-177.5 -163q-100 -73 -211.5 -109.5t-228.5 -36.5q-108 0 -197.5 35.5t-153 100 t-98.5 154.5t-35 200zM350 281q0 -58 14.5 -104t41.5 -78t66 -49t87 -17q85 0 159 50t146 159q33 51 65 116.5t60.5 139.5t52.5 153t41.5 156.5t27 149.5t9.5 133q0 54 -15 99t-42.5 77t-65.5 49.5t-84 17.5q-104 0 -191 -71t-167 -220q-27 -50 -52 -111.5t-48 -129.5 t-42 -139t-33 -139t-22 -130t-8 -112zM623 1499q10 55 31.5 100t52.5 76.5t70 48.5t83 17q75 0 199 -53q42 -17 67 -25t43 -8q36 0 59 18t46 68h84q-34 -129 -91 -186.5t-149 -57.5q-15 0 -27 1t-25 4t-28.5 8t-36.5 14l-120 47q-43 16 -78 16q-34 0 -56 -19t-42 -69h-82z " />
<glyph unicode="&#xd6;" horiz-adv-x="1479" d="M55 453q0 109 32.5 223t90.5 221t138.5 200t175.5 160q103 73 210.5 109.5t217.5 36.5q106 0 197 -35.5t157 -99t103.5 -150t37.5 -188.5q0 -114 -31.5 -231t-89 -225t-138 -202t-177.5 -163q-100 -73 -211.5 -109.5t-228.5 -36.5q-108 0 -197.5 35.5t-153 100 t-98.5 154.5t-35 200zM350 281q0 -58 14.5 -104t41.5 -78t66 -49t87 -17q85 0 159 50t146 159q33 51 65 116.5t60.5 139.5t52.5 153t41.5 156.5t27 149.5t9.5 133q0 54 -15 99t-42.5 77t-65.5 49.5t-84 17.5q-104 0 -191 -71t-167 -220q-27 -50 -52 -111.5t-48 -129.5 t-42 -139t-33 -139t-22 -130t-8 -112zM641 1616q0 28 10.5 52.5t28 43t41.5 29t51 10.5q28 0 52.5 -10.5t43 -29t29 -43t10.5 -52.5q0 -27 -10.5 -51t-29 -41.5t-43 -28t-52.5 -10.5q-26 0 -50 10.5t-42 28.5t-28.5 42t-10.5 50zM1071 1616q0 28 10.5 52.5t28 43t41.5 29 t51 10.5q28 0 52.5 -10.5t43 -29t29 -43t10.5 -52.5q0 -27 -10.5 -51t-29 -41.5t-43 -28t-52.5 -10.5q-26 0 -49.5 10.5t-41.5 28.5t-29 42t-11 50z" />
<glyph unicode="&#xd7;" horiz-adv-x="1167" d="M145 227l287 285l-287 285l129 129l285 -287l285 287l129 -129l-287 -285l287 -285l-129 -129l-285 287l-285 -287z" />
<glyph unicode="&#xd8;" horiz-adv-x="1479" d="M55 434q0 124 33.5 244t93 227.5t141 199t177.5 157.5t203 103.5t217 37.5q23 0 42.5 -1.5t39 -4.5t40.5 -8t45 -13l109 189h100l-129 -222q31 -18 54.5 -33.5t42 -31t33.5 -32.5t30 -38q42 -59 65 -132.5t23 -147.5q0 -114 -31.5 -230.5t-89 -224.5t-138 -201.5 t-177.5 -162.5q-102 -73 -211 -109.5t-223 -36.5q-48 0 -85.5 5.5t-84.5 21.5l-144 -246h-98l162 279q-24 13 -41.5 24.5t-32 22.5t-26.5 22.5t-25 26.5q-56 65 -85.5 145t-29.5 170zM350 289q0 -68 23 -131l663 1132q-29 23 -58.5 33t-70.5 10q-187 0 -338 -266 q-30 -53 -57.5 -116.5t-52 -132.5t-44.5 -140.5t-34.5 -140.5t-22.5 -132.5t-8 -115.5zM426 78q31 -25 62 -35t71 -10q85 0 159 50.5t146 160.5q33 48 64.5 113t60 138.5t52.5 152t41.5 155.5t27.5 147.5t10 128.5q0 34 -7 67t-21 68z" />
<glyph unicode="&#xd9;" horiz-adv-x="1479" d="M137 303q0 51 17.5 141.5t52.5 217.5l112 421q14 54 22.5 95.5t8.5 60.5q0 34 -18 49t-68 23l-63 8v51h637v-51q-48 -2 -79 -9t-52 -23.5t-35 -44t-27 -71.5l-168 -614q-20 -72 -31.5 -115.5t-17 -71t-7 -46t-1.5 -39.5q0 -97 66 -152t184 -55q167 0 272 123 q23 28 43.5 62t40 79t38.5 103t40 133l119 428q18 68 28.5 119t10.5 77q0 55 -38.5 82t-125.5 35v51h426v-51q-42 -9 -68.5 -21t-47.5 -43t-41.5 -89.5t-51.5 -159.5l-135 -467q-24 -84 -46 -147.5t-43.5 -112.5t-44.5 -85.5t-49 -66.5q-69 -82 -170.5 -123t-232.5 -41 q-101 0 -184.5 25t-144.5 70t-94.5 107.5t-33.5 137.5zM837 1651q-10 16 3 39q8 15 24.5 29t36.5 24.5t42.5 17t43.5 6.5q31 0 55.5 -17.5t55.5 -63.5l153 -218h-108l-258 146q-38 21 -48 37z" />
<glyph unicode="&#xda;" horiz-adv-x="1479" d="M137 303q0 51 17.5 141.5t52.5 217.5l112 421q14 54 22.5 95.5t8.5 60.5q0 34 -18 49t-68 23l-63 8v51h637v-51q-48 -2 -79 -9t-52 -23.5t-35 -44t-27 -71.5l-168 -614q-20 -72 -31.5 -115.5t-17 -71t-7 -46t-1.5 -39.5q0 -97 66 -152t184 -55q167 0 272 123 q23 28 43.5 62t40 79t38.5 103t40 133l119 428q18 68 28.5 119t10.5 77q0 55 -38.5 82t-125.5 35v51h426v-51q-42 -9 -68.5 -21t-47.5 -43t-41.5 -89.5t-51.5 -159.5l-135 -467q-24 -84 -46 -147.5t-43.5 -112.5t-44.5 -85.5t-49 -66.5q-69 -82 -170.5 -123t-232.5 -41 q-101 0 -184.5 25t-144.5 70t-94.5 107.5t-33.5 137.5zM819 1468l271 218q28 23 50 38.5t40 25t34 13.5t31 4q21 0 40 -6.5t33.5 -17t23 -24.5t8.5 -29q0 -23 -18 -39t-68 -37l-336 -146h-109z" />
<glyph unicode="&#xdb;" horiz-adv-x="1479" d="M137 303q0 51 17.5 141.5t52.5 217.5l112 421q14 54 22.5 95.5t8.5 60.5q0 34 -18 49t-68 23l-63 8v51h637v-51q-48 -2 -79 -9t-52 -23.5t-35 -44t-27 -71.5l-168 -614q-20 -72 -31.5 -115.5t-17 -71t-7 -46t-1.5 -39.5q0 -97 66 -152t184 -55q167 0 272 123 q23 28 43.5 62t40 79t38.5 103t40 133l119 428q18 68 28.5 119t10.5 77q0 55 -38.5 82t-125.5 35v51h426v-51q-42 -9 -68.5 -21t-47.5 -43t-41.5 -89.5t-51.5 -159.5l-135 -467q-24 -84 -46 -147.5t-43.5 -112.5t-44.5 -85.5t-49 -66.5q-69 -82 -170.5 -123t-232.5 -41 q-101 0 -184.5 25t-144.5 70t-94.5 107.5t-33.5 137.5zM676 1475l352 288h178l193 -288h-113l-196 157l-289 -157h-125z" />
<glyph unicode="&#xdc;" horiz-adv-x="1479" d="M137 303q0 51 17.5 141.5t52.5 217.5l112 421q14 54 22.5 95.5t8.5 60.5q0 34 -18 49t-68 23l-63 8v51h637v-51q-48 -2 -79 -9t-52 -23.5t-35 -44t-27 -71.5l-168 -614q-20 -72 -31.5 -115.5t-17 -71t-7 -46t-1.5 -39.5q0 -97 66 -152t184 -55q167 0 272 123 q23 28 43.5 62t40 79t38.5 103t40 133l119 428q18 68 28.5 119t10.5 77q0 55 -38.5 82t-125.5 35v51h426v-51q-42 -9 -68.5 -21t-47.5 -43t-41.5 -89.5t-51.5 -159.5l-135 -467q-24 -84 -46 -147.5t-43.5 -112.5t-44.5 -85.5t-49 -66.5q-69 -82 -170.5 -123t-232.5 -41 q-101 0 -184.5 25t-144.5 70t-94.5 107.5t-33.5 137.5zM727 1616q0 28 10.5 52.5t28 43t41.5 29t51 10.5q28 0 52.5 -10.5t43 -29t29 -43t10.5 -52.5q0 -27 -10.5 -51t-29 -41.5t-43 -28t-52.5 -10.5q-26 0 -50 10.5t-42 28.5t-28.5 42t-10.5 50zM1157 1616q0 28 10.5 52.5 t28.5 43t41.5 29t50.5 10.5q28 0 52.5 -10.5t43 -29t29 -43t10.5 -52.5q0 -27 -10.5 -51t-29 -41.5t-43 -28t-52.5 -10.5q-26 0 -49.5 10.5t-41.5 28.5t-29 42t-11 50z" />
<glyph unicode="&#xdd;" horiz-adv-x="1251" d="M150 0v51q53 4 86.5 11t55.5 23t36 43t28 71l123 442l-180 549q-15 40 -25.5 63.5t-25 36t-37 18.5t-61.5 11v51h579v-51q-42 -2 -70 -6t-44 -12.5t-22.5 -22.5t-6.5 -35q0 -28 16 -85t51 -159l39 -120l51 -158l265 381q16 23 26.5 40t16.5 30.5t8 26t2 26.5 q0 27 -6 44.5t-22 28t-42.5 15t-66.5 6.5v51h426v-51q-29 -6 -52 -15.5t-44.5 -25.5t-43 -40.5t-47.5 -59.5l-389 -547l-106 -391q-6 -20 -9 -33t-5 -23t-2.5 -18.5t-0.5 -18.5q0 -28 6 -45.5t23 -28t48 -15.5t81 -7v-51h-659zM633 1468l270 218q28 23 50.5 38.5t40.5 25 t34 13.5t31 4q21 0 39.5 -6.5t33 -17t23 -24.5t8.5 -29q0 -23 -17.5 -39t-68.5 -37l-336 -146h-108z" />
<glyph unicode="&#xde;" horiz-adv-x="1251" d="M-55 0v51q40 6 66 15t43.5 24.5t30 41.5t24.5 67l251 919q10 35 15.5 68.5t5.5 56.5q0 31 -19 46.5t-67 21.5l-64 8v51h603l-3 -51q-41 -6 -66 -13.5t-42 -22.5t-29.5 -41.5t-27.5 -70.5l-27 -77h98q215 0 326 -81t111 -237q0 -92 -39.5 -166.5t-113 -127t-177 -81 t-230.5 -28.5q-41 0 -76.5 2t-88.5 8l-29 -131q-13 -54 -17 -79.5t-4 -41.5q0 -21 7 -35t24 -23.5t45.5 -14.5t71.5 -7v-51h-602zM469 449q26 -2 46 -3.5t40 -1.5q54 0 96.5 9.5t75 30t57.5 53t45 79.5q10 24 18.5 52t14.5 58t9 59.5t3 56.5q0 90 -45 138t-127 48 q-29 0 -47 -6.5t-32 -22.5q-3 -5 -5 -8t-4.5 -8.5t-5.5 -16t-8 -28.5z" />
<glyph unicode="&#xdf;" d="M-410 -252q0 50 28.5 79.5t76.5 29.5q46 0 72 -24.5t26 -68.5q0 -23 -4 -36t-18 -27q-8 -8 -10.5 -12.5t-2.5 -12.5q0 -12 7.5 -17t25.5 -5q29 0 46.5 7.5t33.5 27.5q25 32 50 102.5t46 167.5l189 866q66 306 195.5 462.5t318.5 156.5q65 0 120 -20t94.5 -56t62 -85 t22.5 -107q0 -56 -22 -109t-62 -90q-26 -26 -52 -45.5t-58.5 -37.5t-75.5 -36.5t-103 -40.5q42 -8 72.5 -16.5t54.5 -18t43 -22t37 -29.5q43 -37 65.5 -90t22.5 -119q0 -106 -37 -203t-99.5 -171t-144 -118t-170.5 -44q-46 0 -80 10t-69 35l41 71l8 -10q12 -15 37.5 -26 t50.5 -11q71 0 127 123q18 41 34.5 97t29 117t19.5 121.5t7 109.5q0 46 -13 81.5t-36 51.5q-8 6 -16.5 10.5t-20 7.5t-27.5 6t-38 6l14 76q26 0 52 7.5t49.5 22t42 34.5t30.5 45q13 28 24 63t18.5 72.5t12 76t4.5 74.5q0 65 -23 95t-71 30q-35 0 -64.5 -19.5t-55 -60.5 t-47.5 -105.5t-42 -154.5l-186 -833q-138 -619 -463 -619q-45 0 -81.5 11.5t-62.5 32.5t-40.5 50t-14.5 64z" />
<glyph unicode="&#xe0;" d="M-43 233q0 80 24 164t65 163t96 149.5t117 123t128 83t129 30.5q66 0 102 -34.5t50 -112.5l37 121l227 14l-146 -483q-19 -63 -32 -111t-21.5 -84.5t-12 -63t-3.5 -45.5q0 -14 6 -22t18 -8t25 6.5t30 22.5t39 44t54 70l43 -31q-89 -134 -163 -196t-146 -62 q-29 0 -54 10.5t-43.5 29t-29.5 43t-11 52.5q0 11 1 22t4 26.5t9 36.5t15 53q-44 -74 -84.5 -125.5t-80.5 -84t-82 -47t-89 -14.5q-50 0 -90.5 19t-69.5 53t-45 82t-16 106zM209 229q0 -48 26 -79t66 -31q42 0 86 39t86 114q30 53 57 119.5t47 134t32 130t12 108.5 q0 42 -21 67.5t-55 28.5q-42 3 -90 -41.5t-95 -126.5q-32 -57 -59.5 -121t-47.5 -127t-32 -119t-12 -96zM380 1246.5q-6 20.5 9 49.5q11 20 28 38t37.5 31t42.5 20.5t42 7.5q27 0 46 -22t42 -81l106 -268h-100l-215 178q-32 26 -38 46.5z" />
<glyph unicode="&#xe1;" d="M-43 233q0 80 24 164t65 163t96 149.5t117 123t128 83t129 30.5q66 0 102 -34.5t50 -112.5l37 121l227 14l-146 -483q-19 -63 -32 -111t-21.5 -84.5t-12 -63t-3.5 -45.5q0 -14 6 -22t18 -8t25 6.5t30 22.5t39 44t54 70l43 -31q-89 -134 -163 -196t-146 -62 q-29 0 -54 10.5t-43.5 29t-29.5 43t-11 52.5q0 11 1 22t4 26.5t9 36.5t15 53q-44 -74 -84.5 -125.5t-80.5 -84t-82 -47t-89 -14.5q-50 0 -90.5 19t-69.5 53t-45 82t-16 106zM209 229q0 -48 26 -79t66 -31q42 0 86 39t86 114q30 53 57 119.5t47 134t32 130t12 108.5 q0 42 -21 67.5t-55 28.5q-42 3 -90 -41.5t-95 -126.5q-32 -57 -59.5 -121t-47.5 -127t-32 -119t-12 -96zM340 1022l250 268q28 29 48.5 49t37 32t30 17t27.5 5q20 0 37.5 -7.5t31 -20.5t21.5 -31t8 -38q0 -29 -16.5 -49.5t-62.5 -46.5l-312 -178h-100z" />
<glyph unicode="&#xe2;" d="M-43 233q0 80 24 164t65 163t96 149.5t117 123t128 83t129 30.5q66 0 102 -34.5t50 -112.5l37 121l227 14l-146 -483q-19 -63 -32 -111t-21.5 -84.5t-12 -63t-3.5 -45.5q0 -14 6 -22t18 -8t25 6.5t30 22.5t39 44t54 70l43 -31q-89 -134 -163 -196t-146 -62 q-29 0 -54 10.5t-43.5 29t-29.5 43t-11 52.5q0 11 1 22t4 26.5t9 36.5t15 53q-44 -74 -84.5 -125.5t-80.5 -84t-82 -47t-89 -14.5q-50 0 -90.5 19t-69.5 53t-45 82t-16 106zM205 1030l327 356h166l176 -356h-104l-180 195l-268 -195h-117zM209 229q0 -48 26 -79t66 -31 q42 0 86 39t86 114q30 53 57 119.5t47 134t32 130t12 108.5q0 42 -21 67.5t-55 28.5q-42 3 -90 -41.5t-95 -126.5q-32 -57 -59.5 -121t-47.5 -127t-32 -119t-12 -96z" />
<glyph unicode="&#xe3;" d="M-43 233q0 80 24 164t65 163t96 149.5t117 123t128 83t129 30.5q66 0 102 -34.5t50 -112.5l37 121l227 14l-146 -483q-19 -63 -32 -111t-21.5 -84.5t-12 -63t-3.5 -45.5q0 -14 6 -22t18 -8t25 6.5t30 22.5t39 44t54 70l43 -31q-89 -134 -163 -196t-146 -62 q-29 0 -54 10.5t-43.5 29t-29.5 43t-11 52.5q0 11 1 22t4 26.5t9 36.5t15 53q-44 -74 -84.5 -125.5t-80.5 -84t-82 -47t-89 -14.5q-50 0 -90.5 19t-69.5 53t-45 82t-16 106zM209 229q0 -48 26 -79t66 -31q42 0 86 39t86 114q30 53 57 119.5t47 134t32 130t12 108.5 q0 42 -21 67.5t-55 28.5q-42 3 -90 -41.5t-95 -126.5q-32 -57 -59.5 -121t-47.5 -127t-32 -119t-12 -96zM221 1090q10 55 32 99.5t53 76t70 48.5t83 17q38 0 86.5 -12.5t111.5 -40.5q42 -17 67 -25t44 -8q18 0 32 4.5t26.5 14.5t23.5 26.5t22 40.5h84q-34 -129 -90.5 -186.5 t-148.5 -57.5q-15 0 -27 1t-25.5 4t-28.5 8.5t-36 13.5l-121 47q-20 8 -40.5 12.5t-37.5 4.5q-34 0 -56 -19.5t-42 -68.5h-82z" />
<glyph unicode="&#xe4;" d="M-43 233q0 80 24 164t65 163t96 149.5t117 123t128 83t129 30.5q66 0 102 -34.5t50 -112.5l37 121l227 14l-146 -483q-19 -63 -32 -111t-21.5 -84.5t-12 -63t-3.5 -45.5q0 -14 6 -22t18 -8t25 6.5t30 22.5t39 44t54 70l43 -31q-89 -134 -163 -196t-146 -62 q-29 0 -54 10.5t-43.5 29t-29.5 43t-11 52.5q0 11 1 22t4 26.5t9 36.5t15 53q-44 -74 -84.5 -125.5t-80.5 -84t-82 -47t-89 -14.5q-50 0 -90.5 19t-69.5 53t-45 82t-16 106zM209 229q0 -48 26 -79t66 -31q42 0 86 39t86 114q30 53 57 119.5t47 134t32 130t12 108.5 q0 42 -21 67.5t-55 28.5q-42 3 -90 -41.5t-95 -126.5q-32 -57 -59.5 -121t-47.5 -127t-32 -119t-12 -96zM238 1206q0 28 10.5 52.5t28 43t41.5 29t51 10.5t51.5 -10.5t43 -29t29.5 -43t11 -52.5q0 -27 -11 -50.5t-29.5 -41.5t-43 -28.5t-51.5 -10.5q-26 0 -50 11t-42 29 t-28.5 41.5t-10.5 49.5zM668 1206q0 28 10.5 52.5t28 43t41.5 29t51 10.5t51.5 -10.5t43 -29t29.5 -43t11 -52.5q0 -27 -11 -50.5t-29.5 -41.5t-43 -28.5t-51.5 -10.5q-26 0 -50 11t-42 29t-28.5 41.5t-10.5 49.5z" />
<glyph unicode="&#xe5;" d="M-43 233q0 80 24 164t65 163t96 149.5t117 123t128 83t129 30.5q66 0 102 -34.5t50 -112.5l37 121l227 14l-146 -483q-19 -63 -32 -111t-21.5 -84.5t-12 -63t-3.5 -45.5q0 -14 6 -22t18 -8t25 6.5t30 22.5t39 44t54 70l43 -31q-89 -134 -163 -196t-146 -62 q-29 0 -54 10.5t-43.5 29t-29.5 43t-11 52.5q0 11 1 22t4 26.5t9 36.5t15 53q-44 -74 -84.5 -125.5t-80.5 -84t-82 -47t-89 -14.5q-50 0 -90.5 19t-69.5 53t-45 82t-16 106zM209 229q0 -48 26 -79t66 -31q42 0 86 39t86 114q30 53 57 119.5t47 134t32 130t12 108.5 q0 42 -21 67.5t-55 28.5q-42 3 -90 -41.5t-95 -126.5q-32 -57 -59.5 -121t-47.5 -127t-32 -119t-12 -96zM369 1212q0 44 17.5 83t47.5 68.5t69.5 46.5t84.5 17t84.5 -17t69 -46.5t46.5 -69t17 -84.5t-17 -85t-47 -69.5t-70 -47t-85 -17.5t-85 17.5t-69 47.5t-46 70t-17 86z M467 1208q0 -24 9.5 -45.5t25 -37.5t37 -25.5t45.5 -9.5q25 0 47.5 9.5t39 25t26.5 36.5t10 45q0 25 -10 47.5t-26.5 39.5t-39 26.5t-47.5 9.5q-24 0 -45.5 -9.5t-37 -26t-25 -38.5t-9.5 -47z" />
<glyph unicode="&#xe6;" horiz-adv-x="1479" d="M-10 217q0 84 24 170t65 167t96 152.5t117.5 124.5t129 84t131.5 31q34 0 59 -7t44.5 -22.5t35 -41.5t29.5 -64l37 119l211 10l-41 -133q33 38 61.5 63.5t57 41t59 22t68.5 6.5q97 0 150.5 -46.5t53.5 -131.5q0 -63 -31 -119.5t-91 -104.5t-147 -86t-198 -63l-80 -18 q-6 -31 -8 -51.5t-2 -43.5q0 -81 36 -127.5t99 -46.5q150 0 254 183l58 -35q-66 -136 -167 -206.5t-231 -70.5q-74 0 -132.5 23.5t-92.5 66.5q-13 16 -23 32.5t-17.5 37.5t-14 47t-12.5 62q-43 -72 -84.5 -122.5t-84.5 -82.5t-89 -47t-97 -15t-93.5 18.5t-73.5 50.5 t-48.5 76.5t-17.5 96.5zM248 254q-3 -62 24.5 -98.5t73.5 -36.5q53 0 99.5 39t91.5 123q30 52 56 115t46 126t31.5 121t11.5 100q0 51 -27.5 83t-70.5 32q-50 0 -99 -43.5t-100 -134.5q-29 -51 -53.5 -107.5t-42 -112.5t-28.5 -108.5t-13 -97.5zM846 438q45 6 84.5 22.5 t89.5 47.5q174 115 174 287q0 45 -16 64.5t-52 19.5q-77 0 -143 -100t-127 -306z" />
<glyph unicode="&#xe7;" horiz-adv-x="909" d="M-49 -395l45 67q43 -20 73 -27t64 -7q53 0 84 22.5t31 60.5q0 36 -25 55t-71 19q-16 0 -29.5 -1.5t-32.5 -6.5l-27 25l123 180q-94 34 -145 109.5t-51 181.5q0 82 23 163t64 154.5t96.5 136.5t120.5 109.5t136 73t143 26.5q52 0 94.5 -13.5t72.5 -37.5t46.5 -58t16.5 -75 q0 -65 -35 -104.5t-92 -39.5q-53 0 -86 30.5t-33 76.5q0 19 6.5 37t20.5 43q9 14 12.5 23.5t3.5 15.5q0 15 -13 25t-32 10q-92 0 -176 -146q-28 -50 -51 -107.5t-40 -117t-26.5 -116.5t-9.5 -105q0 -41 10.5 -74.5t30 -57.5t47 -37.5t61.5 -13.5q33 0 62.5 9.5t59 31.5 t60.5 57.5t68 86.5l58 -37q-27 -38 -47.5 -65.5t-38.5 -48.5t-35 -38t-37 -34q-51 -45 -115.5 -69t-132.5 -24h-17.5t-19.5 2l-69 -102q15 3 26 4.5t27 1.5q40 0 73.5 -11t58 -30.5t38.5 -46.5t14 -59q0 -39 -19 -71.5t-53 -56t-80.5 -37t-101.5 -13.5q-56 0 -108.5 11.5 t-120.5 39.5z" />
<glyph unicode="&#xe8;" horiz-adv-x="909" d="M10 274q0 84 23 167t64 157.5t96.5 138t121.5 110t138.5 73t146.5 26.5q47 0 86.5 -13t68 -37t44.5 -56.5t16 -71.5q0 -56 -28 -111t-82 -104q-39 -35 -78.5 -62t-88 -48t-109 -38t-140.5 -32q-6 -31 -9.5 -53.5t-3.5 -47.5q0 -83 33.5 -125.5t98.5 -42.5q33 0 61.5 9.5 t56.5 31t58 57.5t65 89l60 -35q-46 -76 -90.5 -130t-91.5 -88t-98 -49.5t-110 -15.5q-67 0 -123.5 22.5t-98 62.5t-64.5 95.5t-23 120.5zM303 438q44 14 76.5 27t58 27.5t46.5 31.5t42 39q50 51 75.5 114.5t25.5 131.5q0 70 -58 70q-74 0 -142 -113t-124 -328zM414.5 1246.5 q-6.5 20.5 9.5 49.5q11 20 28 38t37.5 31t42 20.5t41.5 7.5q28 0 47 -22t42 -81l106 -268h-100l-215 178q-32 26 -38.5 46.5z" />
<glyph unicode="&#xe9;" horiz-adv-x="909" d="M10 274q0 84 23 167t64 157.5t96.5 138t121.5 110t138.5 73t146.5 26.5q47 0 86.5 -13t68 -37t44.5 -56.5t16 -71.5q0 -56 -28 -111t-82 -104q-39 -35 -78.5 -62t-88 -48t-109 -38t-140.5 -32q-6 -31 -9.5 -53.5t-3.5 -47.5q0 -83 33.5 -125.5t98.5 -42.5q33 0 61.5 9.5 t56.5 31t58 57.5t65 89l60 -35q-46 -76 -90.5 -130t-91.5 -88t-98 -49.5t-110 -15.5q-67 0 -123.5 22.5t-98 62.5t-64.5 95.5t-23 120.5zM303 438q44 14 76.5 27t58 27.5t46.5 31.5t42 39q50 51 75.5 114.5t25.5 131.5q0 70 -58 70q-74 0 -142 -113t-124 -328zM375 1022 l250 268q27 29 47.5 49t37 32t30.5 17t28 5q20 0 37.5 -7.5t31 -20.5t21.5 -31t8 -38q0 -29 -17 -49.5t-63 -46.5l-311 -178h-100z" />
<glyph unicode="&#xea;" horiz-adv-x="909" d="M10 274q0 84 23 167t64 157.5t96.5 138t121.5 110t138.5 73t146.5 26.5q47 0 86.5 -13t68 -37t44.5 -56.5t16 -71.5q0 -56 -28 -111t-82 -104q-39 -35 -78.5 -62t-88 -48t-109 -38t-140.5 -32q-6 -31 -9.5 -53.5t-3.5 -47.5q0 -83 33.5 -125.5t98.5 -42.5q33 0 61.5 9.5 t56.5 31t58 57.5t65 89l60 -35q-46 -76 -90.5 -130t-91.5 -88t-98 -49.5t-110 -15.5q-67 0 -123.5 22.5t-98 62.5t-64.5 95.5t-23 120.5zM240 1030l327 356h166l176 -356h-104l-180 195l-269 -195h-116zM303 438q44 14 76.5 27t58 27.5t46.5 31.5t42 39q50 51 75.5 114.5 t25.5 131.5q0 70 -58 70q-74 0 -142 -113t-124 -328z" />
<glyph unicode="&#xeb;" horiz-adv-x="909" d="M10 274q0 84 23 167t64 157.5t96.5 138t121.5 110t138.5 73t146.5 26.5q47 0 86.5 -13t68 -37t44.5 -56.5t16 -71.5q0 -56 -28 -111t-82 -104q-39 -35 -78.5 -62t-88 -48t-109 -38t-140.5 -32q-6 -31 -9.5 -53.5t-3.5 -47.5q0 -83 33.5 -125.5t98.5 -42.5q33 0 61.5 9.5 t56.5 31t58 57.5t65 89l60 -35q-46 -76 -90.5 -130t-91.5 -88t-98 -49.5t-110 -15.5q-67 0 -123.5 22.5t-98 62.5t-64.5 95.5t-23 120.5zM272 1206q0 28 10.5 52.5t28.5 43t41.5 29t50.5 10.5q28 0 52.5 -10.5t43 -29t29.5 -43t11 -52.5q0 -27 -11 -50.5t-29.5 -41.5 t-43 -28.5t-52.5 -10.5q-26 0 -49.5 11t-41.5 29t-29 41.5t-11 49.5zM303 438q44 14 76.5 27t58 27.5t46.5 31.5t42 39q50 51 75.5 114.5t25.5 131.5q0 70 -58 70q-74 0 -142 -113t-124 -328zM702 1206q0 28 10.5 52.5t28.5 43t42 29t51 10.5t51.5 -10.5t43 -29t29.5 -43 t11 -52.5q0 -27 -11 -50.5t-29.5 -41.5t-43 -28.5t-51.5 -10.5q-26 0 -50 11t-42 29t-29 41.5t-11 49.5z" />
<glyph unicode="&#xec;" horiz-adv-x="569" d="M4 111q0 21 7 58.5t20 82.5l119 440q6 26 10 48t4 34q0 60 -94 60h-27v55q121 9 225.5 24t188.5 33l-187 -684q-3 -13 -6 -28.5t-6 -30.5t-4.5 -27.5t-1.5 -19.5q0 -13 9 -22t22 -9q23 0 56.5 31.5t74.5 91.5l28 41l45 -29q-54 -81 -96.5 -135t-82 -85.5t-78.5 -44.5 t-85 -13q-63 0 -102 35t-39 94zM199.5 1246.5q-6.5 20.5 9.5 49.5q11 20 28 38t37.5 31t42 20.5t41.5 7.5q28 0 46.5 -22.5t41.5 -80.5l107 -268h-100l-215 178q-32 26 -38.5 46.5z" />
<glyph unicode="&#xed;" horiz-adv-x="569" d="M4 111q0 21 7 58.5t20 82.5l119 440q6 26 10 48t4 34q0 60 -94 60h-27v55q121 9 225.5 24t188.5 33l-187 -684q-3 -13 -6 -28.5t-6 -30.5t-4.5 -27.5t-1.5 -19.5q0 -13 9 -22t22 -9q23 0 56.5 31.5t74.5 91.5l28 41l45 -29q-54 -81 -96.5 -135t-82 -85.5t-78.5 -44.5 t-85 -13q-63 0 -102 35t-39 94zM160 1022l250 268q27 29 47.5 49t37 32t30.5 17t28 5q20 0 37.5 -7.5t31 -20.5t21.5 -31t8 -38q0 -29 -17 -49.5t-63 -46.5l-311 -178h-100z" />
<glyph unicode="&#xee;" horiz-adv-x="569" d="M4 111q0 21 7 58.5t20 82.5l119 440q6 26 10 48t4 34q0 60 -94 60h-27v55q121 9 225.5 24t188.5 33l-187 -684q-3 -13 -6 -28.5t-6 -30.5t-4.5 -27.5t-1.5 -19.5q0 -13 9 -22t22 -9q23 0 56.5 31.5t74.5 91.5l28 41l45 -29q-54 -81 -96.5 -135t-82 -85.5t-78.5 -44.5 t-85 -13q-63 0 -102 35t-39 94zM25 1030l327 356h166l176 -356h-104l-180 195l-269 -195h-116z" />
<glyph unicode="&#xef;" horiz-adv-x="569" d="M4 111q0 21 7 58.5t20 82.5l119 440q6 26 10 48t4 34q0 60 -94 60h-27v55q121 9 225.5 24t188.5 33l-187 -684q-3 -13 -6 -28.5t-6 -30.5t-4.5 -27.5t-1.5 -19.5q0 -13 9 -22t22 -9q23 0 56.5 31.5t74.5 91.5l28 41l45 -29q-54 -81 -96.5 -135t-82 -85.5t-78.5 -44.5 t-85 -13q-63 0 -102 35t-39 94zM57 1206q0 28 10.5 52.5t28.5 43t41.5 29t50.5 10.5q28 0 52.5 -10.5t43 -29t29.5 -43t11 -52.5q0 -27 -11 -50.5t-29.5 -41.5t-43 -28.5t-52.5 -10.5q-26 0 -49.5 11t-41.5 29t-29 41.5t-11 49.5zM487 1206q0 28 10.5 52.5t28.5 43t41.5 29 t50.5 10.5q28 0 52.5 -10.5t43 -29t29.5 -43t11 -52.5q0 -27 -11 -50.5t-29.5 -41.5t-43 -28.5t-52.5 -10.5q-26 0 -49.5 11t-41.5 29t-29 41.5t-11 49.5z" />
<glyph unicode="&#xf0;" d="M-6 274q0 84 22 167t61 157.5t92.5 138t116 110t131.5 73t140 26.5q48 0 82 -19.5t63 -66.5l5 8q-7 83 -37.5 157t-89.5 151l-244 -127l-68 63l250 131q-118 113 -237 133l90 56q75 -11 139.5 -40t130.5 -83l219 116l70 -65l-219 -115q51 -61 87.5 -118t60 -114.5 t34 -119t10.5 -131.5q0 -107 -21.5 -207t-60 -187.5t-92.5 -160.5t-119 -125t-139.5 -80.5t-153.5 -28.5q-69 0 -128 23t-102.5 63t-68 95t-24.5 120zM238 176q0 -143 100 -143q56 0 102.5 46.5t91.5 145.5q25 55 48.5 128t40.5 148t27.5 145.5t10.5 121.5q0 56 -25 87.5 t-69 31.5q-100 0 -178 -139q-28 -50 -54.5 -124.5t-47.5 -155t-34 -158t-13 -134.5z" />
<glyph unicode="&#xf1;" horiz-adv-x="1139" d="M-12 0l114 418q49 173 72 259.5t23 104.5q0 29 -23.5 39.5t-87.5 12.5v55q43 1 94 6t105 12t108 16.5t103 20.5l-131 -405q51 76 86.5 126t62.5 85t50.5 60t51.5 52q42 40 95 62t110 22q73 0 111.5 -39t38.5 -114q0 -38 -14.5 -101t-38.5 -135l-74 -223 q-15 -43 -24.5 -73.5t-15.5 -51t-8.5 -33.5t-2.5 -20q0 -16 8 -25.5t20 -9.5q13 0 25.5 6.5t28.5 23.5t37.5 47.5t52.5 77.5l45 -26q-45 -75 -84 -126t-77.5 -82.5t-78.5 -45.5t-86 -14q-66 0 -102.5 32t-36.5 90q0 20 4.5 51t12 67t18 75t22.5 76l113 340q5 15 7.5 26.5 t2.5 16.5q0 17 -15.5 30t-35.5 13q-14 0 -32 -8t-37.5 -21.5t-38.5 -32t-34 -39.5q-47 -62 -86 -129t-73.5 -149.5t-67.5 -184.5t-69 -235h-248zM338 1090q10 55 32 99.5t53 76t69.5 48.5t82.5 17q39 0 87.5 -12.5t111.5 -40.5q42 -17 67 -25t44 -8q35 0 58 18.5t46 67.5h84 q-34 -129 -91 -186.5t-148 -57.5q-15 0 -27 1t-25.5 4t-28.5 8.5t-36 13.5l-121 47q-20 8 -40.5 12.5t-37.5 4.5q-34 0 -56 -19.5t-42 -68.5h-82z" />
<glyph unicode="&#xf2;" d="M-6 276q0 86 22.5 169.5t62.5 157.5t95.5 137t120.5 109t138 71.5t149 25.5q70 0 129 -23t102 -64t66.5 -98t23.5 -124q0 -86 -22 -169t-61.5 -157t-94 -136t-119 -107t-138 -70t-149.5 -25q-71 0 -130.5 23t-102.5 63.5t-67.5 96t-24.5 120.5zM238 160q0 -60 26.5 -93.5 t73.5 -33.5q56 0 102.5 46.5t91.5 145.5q25 55 48.5 128t40.5 148t27.5 145.5t10.5 121.5q0 56 -25.5 87.5t-70.5 31.5q-102 0 -184 -154q-18 -32 -35 -76.5t-32.5 -95t-29 -105t-23.5 -107.5t-15.5 -101.5t-5.5 -87.5zM441 1246.5q-6 20.5 10 49.5q10 20 27.5 38t37.5 31 t42 20.5t42 7.5q28 0 46.5 -22t41.5 -81l107 -268h-101l-215 178q-32 26 -38 46.5z" />
<glyph unicode="&#xf3;" d="M-6 276q0 86 22.5 169.5t62.5 157.5t95.5 137t120.5 109t138 71.5t149 25.5q70 0 129 -23t102 -64t66.5 -98t23.5 -124q0 -86 -22 -169t-61.5 -157t-94 -136t-119 -107t-138 -70t-149.5 -25q-71 0 -130.5 23t-102.5 63.5t-67.5 96t-24.5 120.5zM238 160q0 -60 26.5 -93.5 t73.5 -33.5q56 0 102.5 46.5t91.5 145.5q25 55 48.5 128t40.5 148t27.5 145.5t10.5 121.5q0 56 -25.5 87.5t-70.5 31.5q-102 0 -184 -154q-18 -32 -35 -76.5t-32.5 -95t-29 -105t-23.5 -107.5t-15.5 -101.5t-5.5 -87.5zM401 1022l250 268q28 29 48.5 49t37 32t30.5 17t28 5 q20 0 37.5 -7.5t31 -20.5t21.5 -31t8 -38q0 -29 -17 -49.5t-63 -46.5l-311 -178h-101z" />
<glyph unicode="&#xf4;" d="M-6 276q0 86 22.5 169.5t62.5 157.5t95.5 137t120.5 109t138 71.5t149 25.5q70 0 129 -23t102 -64t66.5 -98t23.5 -124q0 -86 -22 -169t-61.5 -157t-94 -136t-119 -107t-138 -70t-149.5 -25q-71 0 -130.5 23t-102.5 63.5t-67.5 96t-24.5 120.5zM238 160q0 -60 26.5 -93.5 t73.5 -33.5q56 0 102.5 46.5t91.5 145.5q25 55 48.5 128t40.5 148t27.5 145.5t10.5 121.5q0 56 -25.5 87.5t-70.5 31.5q-102 0 -184 -154q-18 -32 -35 -76.5t-32.5 -95t-29 -105t-23.5 -107.5t-15.5 -101.5t-5.5 -87.5zM266 1030l328 356h166l176 -356h-105l-180 195 l-268 -195h-117z" />
<glyph unicode="&#xf5;" d="M-6 276q0 86 22.5 169.5t62.5 157.5t95.5 137t120.5 109t138 71.5t149 25.5q70 0 129 -23t102 -64t66.5 -98t23.5 -124q0 -86 -22 -169t-61.5 -157t-94 -136t-119 -107t-138 -70t-149.5 -25q-71 0 -130.5 23t-102.5 63.5t-67.5 96t-24.5 120.5zM238 160q0 -60 26.5 -93.5 t73.5 -33.5q56 0 102.5 46.5t91.5 145.5q25 55 48.5 128t40.5 148t27.5 145.5t10.5 121.5q0 56 -25.5 87.5t-70.5 31.5q-102 0 -184 -154q-18 -32 -35 -76.5t-32.5 -95t-29 -105t-23.5 -107.5t-15.5 -101.5t-5.5 -87.5zM283 1090q10 55 31.5 99.5t52.5 76t70 48.5t83 17 q38 0 87 -12.5t112 -40.5q42 -17 67 -25t43 -8q36 0 59 18.5t46 67.5h84q-34 -129 -91 -186.5t-149 -57.5q-15 0 -27 1t-25 4t-28 8.5t-36 13.5l-121 47q-20 8 -40.5 12.5t-37.5 4.5q-34 0 -56 -19.5t-42 -68.5h-82z" />
<glyph unicode="&#xf6;" d="M-6 276q0 86 22.5 169.5t62.5 157.5t95.5 137t120.5 109t138 71.5t149 25.5q70 0 129 -23t102 -64t66.5 -98t23.5 -124q0 -86 -22 -169t-61.5 -157t-94 -136t-119 -107t-138 -70t-149.5 -25q-71 0 -130.5 23t-102.5 63.5t-67.5 96t-24.5 120.5zM238 160q0 -60 26.5 -93.5 t73.5 -33.5q56 0 102.5 46.5t91.5 145.5q25 55 48.5 128t40.5 148t27.5 145.5t10.5 121.5q0 56 -25.5 87.5t-70.5 31.5q-102 0 -184 -154q-18 -32 -35 -76.5t-32.5 -95t-29 -105t-23.5 -107.5t-15.5 -101.5t-5.5 -87.5zM299 1206q0 28 10.5 52.5t28 43t41.5 29t51 10.5 q28 0 52.5 -10.5t43 -29t29 -43t10.5 -52.5q0 -27 -10.5 -50.5t-29 -41.5t-43 -28.5t-52.5 -10.5q-26 0 -50 11t-42 29t-28.5 41.5t-10.5 49.5zM729 1206q0 28 10.5 52.5t28 43t41.5 29t51 10.5q28 0 52.5 -10.5t43 -29t29 -43t10.5 -52.5q0 -27 -10.5 -50.5t-29 -41.5 t-43 -28.5t-52.5 -10.5q-26 0 -49.5 11t-41.5 29t-29 41.5t-11 49.5z" />
<glyph unicode="&#xf7;" horiz-adv-x="1167" d="M66 422v180h987v-180h-987zM387 170q0 35 13.5 66.5t37 55t55 37t66.5 13.5t66.5 -13.5t55 -37t37 -55t13.5 -66.5q0 -36 -13.5 -67.5t-37 -54.5t-55 -36.5t-66.5 -13.5t-66.5 13.5t-55 36.5t-37 54.5t-13.5 67.5zM387 854q0 36 13.5 67.5t37 54.5t55 36.5t66.5 13.5 t66.5 -13.5t55 -36.5t37 -54.5t13.5 -67.5q0 -35 -13.5 -66.5t-37 -55t-55 -37t-66.5 -13.5t-66.5 13.5t-55 37t-37 55t-13.5 66.5z" />
<glyph unicode="&#xf8;" d="M-6 274q0 87 22.5 171t62.5 158.5t95.5 137.5t121.5 108.5t139.5 71t150.5 25.5q21 0 39.5 -2t46.5 -10l121 213h75l-133 -238q88 -43 128 -108t40 -164q0 -86 -22 -169t-61.5 -157t-93.5 -136t-118.5 -107t-137 -70t-148.5 -25q-28 0 -51 3.5t-54 13.5l-131 -234h-82 l148 258q-82 47 -120 109.5t-38 150.5zM238 160l391 698q-16 16 -31 22.5t-35 6.5q-99 0 -176 -139q-28 -50 -54.5 -124.5t-47.5 -155t-34 -158t-13 -134.5v-16zM262 70q16 -20 33.5 -28.5t42.5 -8.5q60 0 109.5 53t97.5 170q22 53 42.5 121.5t36.5 138.5t25.5 135t9.5 111 v3q0 3 -2 7z" />
<glyph unicode="&#xf9;" horiz-adv-x="1139" d="M31 133q0 38 10.5 91t32.5 130l82 273q14 45 21 84.5t7 64.5q0 15 -4.5 25t-17 16.5t-35 10t-57.5 6.5v55q74 3 165 15t205 32q23 5 35.5 6.5t22.5 3.5l-193 -631q-11 -35 -17 -56t-9 -34.5t-4 -23t-1 -21.5q0 -51 43 -51q31 0 66.5 27t83.5 86q30 37 55 74t48 79 t44 92.5t43.5 113.5t47 141.5t53.5 177.5h241l-159 -549q-11 -35 -20.5 -69.5t-16.5 -63.5t-11 -51t-4 -31q0 -16 8.5 -25.5t20.5 -9.5q13 0 27.5 8t32.5 26t39.5 47t48.5 70l43 -26q-80 -137 -159 -200.5t-171 -63.5q-68 0 -100.5 29.5t-32.5 92.5q0 22 2.5 44.5t8 48.5 t15 58.5t23.5 74.5q-79 -111 -133.5 -179t-99 -105.5t-85 -50.5t-92.5 -13q-153 0 -153 151zM494 1246.5q-6 20.5 10 49.5q10 20 27.5 38t37.5 31t42 20.5t42 7.5q28 0 46.5 -22.5t41.5 -80.5l107 -268h-100l-216 178q-32 26 -38 46.5z" />
<glyph unicode="&#xfa;" horiz-adv-x="1139" d="M31 133q0 38 10.5 91t32.5 130l82 273q14 45 21 84.5t7 64.5q0 15 -4.5 25t-17 16.5t-35 10t-57.5 6.5v55q74 3 165 15t205 32q23 5 35.5 6.5t22.5 3.5l-193 -631q-11 -35 -17 -56t-9 -34.5t-4 -23t-1 -21.5q0 -51 43 -51q31 0 66.5 27t83.5 86q30 37 55 74t48 79 t44 92.5t43.5 113.5t47 141.5t53.5 177.5h241l-159 -549q-11 -35 -20.5 -69.5t-16.5 -63.5t-11 -51t-4 -31q0 -16 8.5 -25.5t20.5 -9.5q13 0 27.5 8t32.5 26t39.5 47t48.5 70l43 -26q-80 -137 -159 -200.5t-171 -63.5q-68 0 -100.5 29.5t-32.5 92.5q0 22 2.5 44.5t8 48.5 t15 58.5t23.5 74.5q-79 -111 -133.5 -179t-99 -105.5t-85 -50.5t-92.5 -13q-153 0 -153 151zM455 1022l250 268q27 29 47.5 49t37 32t30.5 17t28 5q20 0 37.5 -7.5t31 -20.5t21.5 -31t8 -38q0 -29 -17 -49.5t-63 -46.5l-311 -178h-100z" />
<glyph unicode="&#xfb;" horiz-adv-x="1139" d="M31 133q0 38 10.5 91t32.5 130l82 273q14 45 21 84.5t7 64.5q0 15 -4.5 25t-17 16.5t-35 10t-57.5 6.5v55q74 3 165 15t205 32q23 5 35.5 6.5t22.5 3.5l-193 -631q-11 -35 -17 -56t-9 -34.5t-4 -23t-1 -21.5q0 -51 43 -51q31 0 66.5 27t83.5 86q30 37 55 74t48 79 t44 92.5t43.5 113.5t47 141.5t53.5 177.5h241l-159 -549q-11 -35 -20.5 -69.5t-16.5 -63.5t-11 -51t-4 -31q0 -16 8.5 -25.5t20.5 -9.5q13 0 27.5 8t32.5 26t39.5 47t48.5 70l43 -26q-80 -137 -159 -200.5t-171 -63.5q-68 0 -100.5 29.5t-32.5 92.5q0 22 2.5 44.5t8 48.5 t15 58.5t23.5 74.5q-79 -111 -133.5 -179t-99 -105.5t-85 -50.5t-92.5 -13q-153 0 -153 151zM319 1030l328 356h166l176 -356h-104l-180 195l-269 -195h-117z" />
<glyph unicode="&#xfc;" horiz-adv-x="1139" d="M31 133q0 38 10.5 91t32.5 130l82 273q14 45 21 84.5t7 64.5q0 15 -4.5 25t-17 16.5t-35 10t-57.5 6.5v55q74 3 165 15t205 32q23 5 35.5 6.5t22.5 3.5l-193 -631q-11 -35 -17 -56t-9 -34.5t-4 -23t-1 -21.5q0 -51 43 -51q31 0 66.5 27t83.5 86q30 37 55 74t48 79 t44 92.5t43.5 113.5t47 141.5t53.5 177.5h241l-159 -549q-11 -35 -20.5 -69.5t-16.5 -63.5t-11 -51t-4 -31q0 -16 8.5 -25.5t20.5 -9.5q13 0 27.5 8t32.5 26t39.5 47t48.5 70l43 -26q-80 -137 -159 -200.5t-171 -63.5q-68 0 -100.5 29.5t-32.5 92.5q0 22 2.5 44.5t8 48.5 t15 58.5t23.5 74.5q-79 -111 -133.5 -179t-99 -105.5t-85 -50.5t-92.5 -13q-153 0 -153 151zM352 1206q0 28 10.5 52.5t28.5 43t41.5 29t50.5 10.5q28 0 52.5 -10.5t43 -29t29 -43t10.5 -52.5q0 -27 -10.5 -50.5t-29 -41.5t-43 -28.5t-52.5 -10.5q-26 0 -49.5 11t-41.5 29 t-29 41.5t-11 49.5zM782 1206q0 28 10.5 52.5t28.5 43t41.5 29t50.5 10.5q28 0 52.5 -10.5t43 -29t29.5 -43t11 -52.5q0 -27 -11 -50.5t-29.5 -41.5t-43 -28.5t-52.5 -10.5q-26 0 -49.5 11t-41.5 29t-29 41.5t-11 49.5z" />
<glyph unicode="&#xfd;" horiz-adv-x="909" d="M-193 -297q0 22 8.5 42.5t23 36t33 25t38.5 9.5q28 0 62.5 -12.5t60.5 -30.5q14 -11 36 -20t33 -9q13 0 30 8t36 22t37.5 33.5t34.5 42.5q26 38 38.5 72.5t12.5 69.5q0 47 -25.5 194t-77.5 396q-45 219 -98 249q-11 7 -22 9t-39 2v55q50 4 90 9t75.5 11t69 13t70.5 16 q14 -36 30.5 -95t34 -133t35.5 -161t35 -178l25 -154q54 103 88.5 172.5t54.5 117t27.5 77t7.5 53.5q0 20 -10 35t-39 37q-19 14 -31 26t-19.5 24.5t-10.5 27.5t-3 34q0 23 9.5 44.5t25.5 37.5t37.5 25.5t44.5 9.5q25 0 48 -10.5t40.5 -28.5t28 -42t10.5 -50 q0 -52 -19.5 -125t-54 -158.5t-82 -180.5t-104 -191t-120.5 -189t-130 -174q-85 -103 -179.5 -160t-179.5 -57q-27 0 -50 9.5t-40 26t-27 39t-10 48.5zM328 1022l250 268q27 29 47.5 49t37 32t30.5 17t28 5q20 0 37.5 -7.5t31 -20.5t21.5 -31t8 -38q0 -29 -17 -49.5 t-63 -46.5l-311 -178h-100z" />
<glyph unicode="&#xfe;" d="M-246 -365q38 -1 62.5 4.5t41.5 24.5t29.5 53.5t26.5 92.5l332 1290q10 37 16.5 64t10.5 45t6 28.5t2 15.5q0 62 -93 62h-36v55q69 8 124 15t103.5 14t95 15t98.5 18l-194 -697l6 -6q39 58 76 99.5t74 67.5t76 38t83 12q50 0 90.5 -17.5t69 -50t44 -78.5t15.5 -102 q0 -88 -22.5 -176.5t-62.5 -169t-94 -150t-117 -120.5t-132 -80t-139 -29q-16 0 -29.5 2t-29 7t-34.5 13.5t-46 22.5q-3 -11 -5 -18.5t-4 -16t-5 -19.5t-9 -30q-15 -54 -25 -93t-16 -66.5t-9 -45t-3 -28.5q0 -18 6.5 -30.5t22 -20t41 -11t63.5 -4.5v-55h-510v55zM231 119 q0 -31 23 -52.5t57 -21.5q53 0 102 42t97 126q28 50 53 111t45 124t33 124t16 112q4 50 -17.5 82t-61.5 35q-20 1 -42.5 -7.5t-45.5 -25.5t-45.5 -41.5t-41.5 -54.5q-11 -18 -21 -38t-20.5 -48t-23 -67t-29.5 -95q-21 -70 -35.5 -121.5t-24 -88t-14 -59.5t-4.5 -36z" />
<glyph unicode="&#xff;" horiz-adv-x="909" d="M-193 -297q0 22 8.5 42.5t23 36t33 25t38.5 9.5q28 0 62.5 -12.5t60.5 -30.5q14 -11 36 -20t33 -9q13 0 30 8t36 22t37.5 33.5t34.5 42.5q26 38 38.5 72.5t12.5 69.5q0 47 -25.5 194t-77.5 396q-45 219 -98 249q-11 7 -22 9t-39 2v55q50 4 90 9t75.5 11t69 13t70.5 16 q14 -36 30.5 -95t34 -133t35.5 -161t35 -178l25 -154q54 103 88.5 172.5t54.5 117t27.5 77t7.5 53.5q0 20 -10 35t-39 37q-19 14 -31 26t-19.5 24.5t-10.5 27.5t-3 34q0 23 9.5 44.5t25.5 37.5t37.5 25.5t44.5 9.5q25 0 48 -10.5t40.5 -28.5t28 -42t10.5 -50 q0 -52 -19.5 -125t-54 -158.5t-82 -180.5t-104 -191t-120.5 -189t-130 -174q-85 -103 -179.5 -160t-179.5 -57q-27 0 -50 9.5t-40 26t-27 39t-10 48.5zM225 1206q0 28 10.5 52.5t28.5 43t41.5 29t50.5 10.5q28 0 52.5 -10.5t43 -29t29.5 -43t11 -52.5q0 -27 -11 -50.5 t-29.5 -41.5t-43 -28.5t-52.5 -10.5q-26 0 -49.5 11t-41.5 29t-29 41.5t-11 49.5zM655 1206q0 28 10.5 52.5t28.5 43t41.5 29t50.5 10.5q28 0 52.5 -10.5t43 -29t29.5 -43t11 -52.5q0 -27 -11 -50.5t-29.5 -41.5t-43 -28.5t-52.5 -10.5q-26 0 -49.5 11t-41.5 29t-29 41.5 t-11 49.5z" />
<glyph unicode="&#x152;" horiz-adv-x="1933" d="M47 459q0 111 29 222t83 213.5t130 191.5t170 157q54 39 107.5 66.5t112 44.5t124.5 24.5t147 7.5h23t24 -0.5t29 -2t39 -3.5q65 -5 111.5 -7.5t74.5 -2.5h686l-94 -391l-51 12q2 22 3 42t1 34q0 120 -82 178q-18 13 -45.5 24t-61.5 19t-72 12.5t-77 4.5q-27 0 -44 -3.5 t-28.5 -13.5t-19.5 -29.5t-16 -50.5l-125 -450h43h8q69 -1 121 10t91.5 35.5t69 65.5t54.5 100l55 -6l-147 -557l-56 10l2 39q3 26 5 48t2 36q0 29 -11 55t-32 43q-12 10 -26.5 17t-39.5 12.5t-62.5 10.5t-95.5 11l-131 -502q-3 -14 -5.5 -28t-2.5 -23q0 -37 34.5 -53 t115.5 -16q90 0 163.5 18.5t136.5 59.5t118 106t108 158l55 -11l-123 -397h-606h-57l-49 -2h-45l-316 -14h-37q-128 0 -218 28t-159 88q-69 62 -105 153t-36 206zM336 324q0 -62 17.5 -112t50 -86t78.5 -55.5t102 -19.5q44 0 78 11t60.5 35t46 62t34.5 93l221 801 q12 42 18.5 79t6.5 62q0 62 -39 94.5t-111 32.5q-94 0 -174.5 -53t-155.5 -164q-32 -47 -61.5 -106.5t-55.5 -126.5t-47.5 -138.5t-36.5 -143t-23.5 -139t-8.5 -126.5z" />
<glyph unicode="&#x153;" horiz-adv-x="1479" d="M12 295q0 78 23.5 159.5t68.5 161.5q45 77 102 138t123 104t138.5 65.5t146.5 22.5q41 0 74 -7t61 -22t53 -39.5t50 -58.5q45 36 82.5 60.5t72 39t69.5 21t75 6.5q53 0 95.5 -13t72 -37t45.5 -58t16 -76q0 -71 -45 -137t-133 -123q-35 -23 -64.5 -38.5t-67.5 -29 t-90.5 -26.5t-131.5 -31q-5 -23 -8 -39t-5 -28.5t-3 -24t-1 -23.5q0 -78 35 -119t103 -41q35 0 64 8.5t57 29.5t56.5 56.5t63.5 88.5l58 -31q-22 -40 -40 -70t-35 -53t-34.5 -41t-38.5 -35q-52 -40 -112 -61t-125 -21q-36 0 -66.5 6.5t-59 20.5t-56.5 36t-58 54 q-66 -60 -139 -88.5t-164 -28.5q-73 0 -133.5 23.5t-103.5 66t-67 101.5t-24 131zM254 199q0 -81 28 -123.5t80 -42.5q56 0 104.5 47.5t94.5 150.5q23 49 46 119.5t41.5 143t30 137.5t11.5 104q0 152 -112 152q-38 0 -72 -21t-66 -66t-63 -115.5t-62 -168.5 q-31 -99 -46 -176.5t-15 -140.5zM862 446q60 18 105 37.5t79.5 42.5t60.5 52t48 67q20 37 32.5 79t12.5 79q0 38 -20.5 60t-55.5 22q-21 0 -40 -9t-33 -24q-16 -19 -29 -36t-25 -37.5t-25 -48t-28.5 -66.5t-35.5 -92t-46 -126z" />
<glyph unicode="&#x178;" horiz-adv-x="1251" d="M150 0v51q53 4 86.5 11t55.5 23t36 43t28 71l123 442l-180 549q-15 40 -25.5 63.5t-25 36t-37 18.5t-61.5 11v51h579v-51q-42 -2 -70 -6t-44 -12.5t-22.5 -22.5t-6.5 -35q0 -28 16 -85t51 -159l39 -120l51 -158l265 381q16 23 26.5 40t16.5 30.5t8 26t2 26.5 q0 27 -6 44.5t-22 28t-42.5 15t-66.5 6.5v51h426v-51q-29 -6 -52 -15.5t-44.5 -25.5t-43 -40.5t-47.5 -59.5l-389 -547l-106 -391q-6 -20 -9 -33t-5 -23t-2.5 -18.5t-0.5 -18.5q0 -28 6 -45.5t23 -28t48 -15.5t81 -7v-51h-659zM541 1616q0 28 10.5 52.5t28 43t41.5 29 t51 10.5t51.5 -10.5t43 -29t29.5 -43t11 -52.5q0 -27 -11 -51t-29.5 -41.5t-43 -28t-51.5 -10.5q-26 0 -50 10.5t-42 28.5t-28.5 42t-10.5 50zM971 1616q0 28 10.5 52.5t28 43t41.5 29t51 10.5q28 0 52.5 -10.5t43 -29t29 -43t10.5 -52.5q0 -27 -10.5 -51t-29 -41.5t-43 -28 t-52.5 -10.5q-26 0 -50 10.5t-42 28.5t-28.5 42t-10.5 50z" />
<glyph unicode="&#x2c6;" horiz-adv-x="682" d="M47 1030l328 356h166l176 -356h-105l-180 195l-268 -195h-117z" />
<glyph unicode="&#x2dc;" horiz-adv-x="682" d="M63 1090q10 55 32 99.5t53 76t70 48.5t83 17q38 0 87 -12.5t112 -40.5q42 -17 67 -25t43 -8q35 0 58.5 18.5t46.5 67.5h84q-34 -129 -91 -186.5t-149 -57.5q-15 0 -27 1t-25 4t-28.5 8.5t-36.5 13.5l-120 47q-20 8 -40.5 12.5t-37.5 4.5q-34 0 -56.5 -19.5t-42.5 -68.5 h-82z" />
<glyph unicode="&#x2000;" horiz-adv-x="938" />
<glyph unicode="&#x2001;" horiz-adv-x="1876" />
<glyph unicode="&#x2002;" horiz-adv-x="938" />
<glyph unicode="&#x2003;" horiz-adv-x="1876" />
<glyph unicode="&#x2004;" horiz-adv-x="625" />
<glyph unicode="&#x2005;" horiz-adv-x="469" />
<glyph unicode="&#x2006;" horiz-adv-x="312" />
<glyph unicode="&#x2007;" horiz-adv-x="312" />
<glyph unicode="&#x2008;" horiz-adv-x="234" />
<glyph unicode="&#x2009;" horiz-adv-x="375" />
<glyph unicode="&#x200a;" horiz-adv-x="104" />
<glyph unicode="&#x2010;" horiz-adv-x="682" d="M4 340l49 238h502l-47 -238h-504z" />
<glyph unicode="&#x2011;" horiz-adv-x="682" d="M4 340l49 238h502l-47 -238h-504z" />
<glyph unicode="&#x2012;" horiz-adv-x="682" d="M4 340l49 238h502l-47 -238h-504z" />
<glyph unicode="&#x2013;" d="M-82 365l35 186h1024l-35 -186h-1024z" />
<glyph unicode="&#x2014;" horiz-adv-x="2048" d="M-82 365l35 186h2048l-35 -186h-2048z" />
<glyph unicode="&#x2018;" horiz-adv-x="682" d="M262 956q0 63 28 126t79 121t123 109.5t161 90.5l27 -49q-242 -128 -242 -238q0 -23 13 -41t47 -41q47 -31 65.5 -59t18.5 -70q0 -32 -11 -59.5t-30.5 -47.5t-46.5 -31t-58 -11q-39 0 -71 14.5t-55 40.5t-35.5 63t-12.5 82z" />
<glyph unicode="&#x2019;" horiz-adv-x="682" d="M201 805q241 129 241 237q0 23 -13 41t-48 41q-23 15 -39 29.5t-25.5 29.5t-13.5 32t-4 38q0 32 11 59.5t30 47.5t45.5 31.5t58.5 11.5q39 0 71.5 -14.5t55 -40.5t35 -63.5t12.5 -82.5q0 -62 -27.5 -125.5t-78.5 -122t-123.5 -109.5t-161.5 -89z" />
<glyph unicode="&#x201a;" horiz-adv-x="682" d="M-10 -324q241 128 241 240q0 22 -13 39.5t-48 40.5q-23 15 -38.5 29t-25.5 29t-14 32.5t-4 38.5q0 32 11 59.5t30.5 47.5t46 31t57.5 11q39 0 71.5 -14t55.5 -40.5t35.5 -63.5t12.5 -82q0 -62 -28 -125t-79 -121.5t-123.5 -110t-161.5 -90.5z" />
<glyph unicode="&#x201c;" d="M109 956q0 63 27.5 126t78.5 121t123.5 109.5t161.5 90.5l26 -49q-241 -129 -241 -238q0 -23 12.5 -41t46.5 -41q24 -15 40 -29.5t26 -29.5t14 -32t4 -38q0 -32 -11 -59.5t-30 -47.5t-46 -31t-58 -11q-39 0 -71.5 14.5t-55 40.5t-35 63t-12.5 82zM633 956q0 63 27.5 126 t78.5 121t123.5 109.5t161.5 90.5l27 -49q-242 -128 -242 -238q0 -23 12.5 -41t46.5 -41q24 -15 40 -29.5t26 -29.5t14 -32t4 -38q0 -32 -11 -59.5t-30 -47.5t-46 -31t-58 -11q-39 0 -71.5 14.5t-55 40.5t-35 63t-12.5 82z" />
<glyph unicode="&#x201d;" d="M109 805q241 129 241 237q0 23 -13 41t-48 41q-23 15 -39 29.5t-25.5 29.5t-13.5 32t-4 38q0 32 11 59.5t30 47.5t45.5 31.5t58.5 11.5q39 0 71.5 -14.5t55 -40.5t35 -63.5t12.5 -82.5q0 -62 -27.5 -125.5t-78.5 -122t-123.5 -109.5t-161.5 -89zM633 805q241 128 241 237 q0 23 -13 41t-48 41q-23 15 -38.5 29.5t-25.5 29.5t-14 32t-4 38q0 32 11 59.5t30.5 47.5t46 31.5t58.5 11.5q39 0 71 -14.5t55 -40.5t35.5 -63.5t12.5 -82.5q0 -62 -28 -125.5t-79 -122t-123.5 -109.5t-161.5 -89z" />
<glyph unicode="&#x201e;" d="M-117 -324q242 128 242 240q0 22 -13 39.5t-49 40.5q-23 15 -38.5 29.5t-25 29.5t-13.5 32t-4 38q0 32 11 59.5t30 47.5t45.5 31t58.5 11q39 0 71 -14t55 -40.5t35.5 -63.5t12.5 -82q0 -62 -28 -125t-79 -121.5t-123 -110t-161 -90.5zM408 -324q241 129 241 240 q0 22 -13 39.5t-48 40.5q-23 15 -39 29t-25.5 29t-13.5 32.5t-4 38.5q0 32 11 59.5t30 47.5t45.5 31t58.5 11q39 0 71.5 -14t55 -40.5t35 -63.5t12.5 -82q0 -62 -27.5 -125t-78.5 -121.5t-123.5 -110t-161.5 -90.5z" />
<glyph unicode="&#x2022;" horiz-adv-x="717" d="M96 594q0 90 32 167.5t89 134.5t135 89.5t170 32.5q87 0 163 -33.5t132 -91t88.5 -135t32.5 -164.5q0 -90 -32.5 -167.5t-90 -134.5t-136 -89.5t-169.5 -32.5q-90 0 -166 32.5t-131 89.5t-86 134.5t-31 167.5z" />
<glyph unicode="&#x2026;" horiz-adv-x="2048" d="M82 125q0 32 11.5 59.5t32 48t49 32t61.5 11.5q30 0 57.5 -12t47.5 -32.5t32 -48t12 -58.5q0 -32 -12 -60t-33 -48.5t-49 -32t-60 -11.5t-59.5 11.5t-47.5 32t-31 48.5t-11 60zM762 125q0 32 11.5 59.5t32 48t48.5 32t61 11.5q31 0 58 -12t47.5 -32.5t32.5 -48t12 -58.5 q0 -32 -12 -60t-33 -48.5t-49 -32t-60 -11.5t-59.5 11.5t-47.5 32t-31 48.5t-11 60zM1442 125q0 32 11.5 59.5t32 48t48.5 32t61 11.5q31 0 58 -12t47.5 -32.5t32.5 -48t12 -58.5q0 -32 -12 -60t-33 -48.5t-49 -32t-60 -11.5t-59.5 11.5t-47.5 32t-31 48.5t-11 60z" />
<glyph unicode="&#x202f;" horiz-adv-x="375" />
<glyph unicode="&#x2039;" horiz-adv-x="682" d="M66 444v19l348 254q18 13 31.5 23t24.5 18.5t20.5 17t19.5 17.5q58 57 84 57q11 0 19 -7.5t8 -17.5q0 -32 -49 -97t-158 -177l-92 -100l81 -170q36 -75 52 -118.5t16 -66.5q0 -12 -8.5 -21t-22.5 -9q-8 0 -13.5 4t-16.5 16z" />
<glyph unicode="&#x203a;" horiz-adv-x="682" d="M20 90q0 16 12 40t37 57.5t64.5 77.5t93.5 100l92 100l-81 170q-38 75 -53 117t-15 67q0 13 8.5 22t22.5 9q8 0 13.5 -4t16.5 -17l344 -358v-18l-348 -254l-31.5 -24.5t-24.5 -19.5t-20.5 -17t-19.5 -17q-58 -55 -84 -55q-11 0 -19 6.5t-8 17.5z" />
<glyph unicode="&#x205f;" horiz-adv-x="469" />
<glyph unicode="&#x20ac;" d="M106 524l66 103h98q5 28 11.5 53.5t15.5 54.5h-131l67 103h93q29 81 72 154.5t96 137.5t114.5 115.5t127.5 88.5t134.5 57t135.5 20q22 0 40 -1.5t38 -5.5t46 -12t64 -20q15 -6 29.5 -9t25.5 -3q22 0 38 11.5t30 37.5h39l-99 -373h-38v25q0 70 -14.5 120.5t-41.5 83.5 t-64.5 48.5t-82.5 15.5q-56 0 -113 -34t-112.5 -98t-107 -154.5t-95.5 -204.5h381l-68 -103h-342q-8 -20 -16 -50t-15 -58h277l-66 -103h-223q-5 -34 -7.5 -66t-2.5 -61q0 -154 61 -237.5t172 -83.5q36 0 78 15t84.5 47t83.5 82t74 120l12 25h41l-98 -373h-41 q-2 26 -12 37.5t-33 11.5q-25 0 -62 -12q-46 -12 -75 -20t-50 -12t-38.5 -5.5t-40.5 -1.5q-93 0 -166.5 34.5t-124.5 100t-78.5 160t-28.5 215.5v8q0 6 2 16h-160z" />
<glyph unicode="&#x2122;" horiz-adv-x="2073" d="M389 1167l43 203h717l-41 -227l-57 4q-7 85 -41 125t-111 43l-154 -549q-5 -22 -7.5 -37.5t-2.5 -28.5q1 -11 5 -18t14.5 -10.5t28.5 -5t48 -2.5l3 -46h-431l-2 46h23q43 0 65 16.5t33 54.5l160 580q-86 -5 -141 -43t-97 -117zM1118 662q26 5 41.5 11.5t27 23t22.5 46.5 t28 82l121 410q5 20 7.5 34.5t2.5 26.5q0 10 -3.5 15.5t-13 8.5t-26.5 4t-45 3l-2 43h299l88 -506l354 506h279l2 -43q-22 -2 -36.5 -6.5t-24.5 -13t-16 -22t-11 -32.5l-137 -491q-5 -16 -8 -31t-1 -29q0 -11 3.5 -18t12.5 -11.5t24.5 -6t39.5 -2.5l2 -46h-403l-2 46 q28 1 47 4.5t31.5 12t20 21.5t13.5 33l121 449l-413 -578h-54l-102 568l-96 -353q-13 -42 -17 -64t-4 -34q1 -16 6 -26.5t16 -17t30.5 -10t48.5 -5.5l2 -46h-273z" />
<glyph unicode="&#x25fc;" horiz-adv-x="945" d="M0 0v945h945v-945h-945z" />
<glyph unicode="&#xfb03;" horiz-adv-x="1708" d="M-385 -260q0 49 27.5 79.5t72.5 30.5t75 -28.5t30 -71.5q0 -17 -5.5 -28.5t-19.5 -26.5q-14 -17 -14 -27q0 -18 35 -18q34 0 61 13t51 50t46 104t46 175l189 842h-154l21 86h155q28 81 51 139.5t46 102.5t47.5 78t56.5 67q59 63 148 98t188 35q88 0 154.5 -26t101.5 -71 q59 47 136 72t161 25q64 0 118 -14.5t92 -40t59.5 -61.5t21.5 -79q0 -25 -8.5 -46.5t-24.5 -37t-37.5 -24.5t-46.5 -9q-26 0 -47.5 9t-37.5 24t-25 35.5t-9 44.5q0 20 7 37.5t24 36.5q14 20 14 31q0 32 -53 32q-57 0 -106 -20t-78 -55q-25 -30 -43 -59.5t-35 -71t-36 -101.5 t-44 -151h242q23 0 80 3t141 11l96 6l-149 -580l-2 -8q-20 -72 -31.5 -124.5t-11.5 -69.5q0 -13 9.5 -23t20.5 -10q25 0 62.5 37.5t97.5 124.5l45 -27q-53 -81 -95.5 -134.5t-82 -85.5t-79 -45t-85.5 -13q-69 0 -107 35t-38 100q0 13 1 24.5t4.5 28.5t9.5 43.5t17 69.5 l142 551h-307l-193 -789q-10 -40 -24 -85t-31 -89t-37.5 -84t-44.5 -70q-51 -65 -112 -101t-136 -36q-43 0 -79.5 12t-63 33.5t-41.5 50.5t-15 64q0 49 28 79.5t73 30.5t74.5 -28.5t29.5 -71.5q0 -17 -5 -28.5t-19 -26.5q-15 -16 -15 -27q0 -18 35 -18q34 0 51.5 13t30 50 t25 104t36.5 175l189 842h-309l-193 -789q-14 -58 -33 -105t-41.5 -86.5t-47 -73t-48.5 -63.5q-25 -32 -57.5 -57.5t-68.5 -43t-74.5 -27t-75.5 -9.5q-43 0 -79.5 12t-63 33.5t-41.5 50.5t-15 64zM473 920h311q26 75 47.5 130t42.5 97q-23 15 -37 40t-14 54q0 20 7 37.5 t24 36.5q14 20 14 31q0 32 -53 32q-57 0 -106 -20t-78 -55q-25 -30 -43 -59.5t-35 -71t-36 -101.5t-44 -151z" />
</font>
</defs>
</svg>
